{
.appVersion = "919";
classes = (
{
automatic = 1;

glyphs = (
{
glyphname = A;
layers = (
{
anchors = (
{
name = bottom;
position = "{497, 20}";
},
{
name = ogonek;
position = "{790, 0}";
},
{
name = top_case;
position = "{496, 1760}";
}
);
background = {
anchors = (
{
name = bottom;
position = "{497, 20}";
},
{
name = ogonek;
position = "{790, 0}";
},
{
name = top;
position = "{496, 1760}";
},
{
name = top_case;
position = "{496, 1750}";
}
);
paths = (
{
closed = 1;
nodes = (
"372 0 LINE",
"394 284 LINE",
"606 284 LINE",
"631 0 LINE",
"964 0 LINE",
"797 1760 LINE",
"200 1760 LINE",
"30 0 LINE"
);
},
{
closed = 1;
nodes = (
"486 1460 LINE",
"502 1460 LINE",
"579 565 LINE",
"419 565 LINE"
);
}
);
};
layerId = "6CD1E358-6E98-409F-9A1F-EA9DE4C1A8AA";
paths = (
{
closed = 1;
nodes = (
"372 0 LINE",
"394 284 LINE",
"606 284 LINE",
"631 0 LINE",
"964 0 LINE",
"797 1760 LINE",
"200 1760 LINE",
"30 0 LINE"
);
},
{
closed = 1;
nodes = (
"486 1460 LINE",
"502 1460 LINE",
"579 565 LINE",
"419 565 LINE"
);
}
);
width = 994;
}
);
unicode = 0041;
userData = {
com.typemytype.robofont.layerData = {
};
};
},
{
glyphname = AE;
layers = (
{
anchors = (
{
name = top;
position = "{796, 1760}";
}
);
background = {
anchors = (
{
name = top;
position = "{796, 1760}";
}
);
paths = (
{
closed = 1;
nodes = (
"337 0 LINE",
"416 479 LINE",
"622 479 LINE",
"623 0 LINE",
"1272 0 LINE",
"1272 311 LINE",
"963 311 LINE",
"963 750 LINE",
"1235 750 LINE",
"1235 1049 LINE",
"963 1049 LINE",
"963 1451 LINE",
"1249 1451 LINE",
"1249 1760 LINE",
"277 1760 LINE",
"-44 0 LINE"
);
},
{
closed = 1;
nodes = (
"561 1461 LINE",
"618 1461 LINE",
"618 769 LINE",
"462 769 LINE"
);
}
);
};
layerId = "6CD1E358-6E98-409F-9A1F-EA9DE4C1A8AA";
paths = (
{
closed = 1;
nodes = (
"337 0 LINE",
"416 479 LINE",
"622 479 LINE",
"623 0 LINE",
"1272 0 LINE",
"1272 311 LINE",
"963 311 LINE",
"963 750 LINE",
"1235 750 LINE",
"1235 1049 LINE",
"963 1049 LINE",
"963 1451 LINE",
"1249 1451 LINE",
"1249 1760 LINE",
"277 1760 LINE",
"-44 0 LINE"
);
},
{
closed = 1;
nodes = (
"561 1461 LINE",
"618 1461 LINE",
"618 769 LINE",
"462 769 LINE"
);
}
);
width = 1311;
}
);
unicode = 00C6;
userData = {
com.typemytype.robofont.layerData = {
};
};
},
{
glyphname = B;
layers = (
{
anchors = (
{
name = top;
position = "{451, 1760}";
}
);
background = {
anchors = (
{
name = top;
position = "{451, 1760}";
}
);
paths = (
{
closed = 1;
nodes = (
"555 0 LINE SMOOTH",
"865 0 OFFCURVE",
"942 226 OFFCURVE",
"942 569 CURVE SMOOTH",
"942 781 OFFCURVE",
"900 939 OFFCURVE",
"742 979 CURVE",
"863 1011 OFFCURVE",
"922 1116 OFFCURVE",
"922 1281 CURVE SMOOTH",
"922 1358 LINE SMOOTH",
"922 1645 OFFCURVE",
"811 1760 OFFCURVE",
"555 1760 CURVE SMOOTH",
"78 1760 LINE",
"78 0 LINE"
);
},
{
closed = 1;
nodes = (
"450 310 OFFCURVE",
"438 311 OFFCURVE",
"422 312 CURVE",
"422 822 LINE",
"487 822 LINE SMOOTH",
"570 822 OFFCURVE",
"594 760 OFFCURVE",
"594 660 CURVE SMOOTH",
"594 440 LINE SMOOTH",
"594 354 OFFCURVE",
"548 310 OFFCURVE",
"457 310 CURVE SMOOTH"
);
},
{
closed = 1;
nodes = (
"422 1488 LINE",
"496 1488 LINE SMOOTH",
"546 1488 OFFCURVE",
"571 1460 OFFCURVE",
"571 1403 CURVE SMOOTH",
"571 1226 LINE SMOOTH",
"571 1155 OFFCURVE",
"559 1097 OFFCURVE",
"494 1097 CURVE SMOOTH",
"422 1097 LINE"
);
}
);
};
layerId = "6CD1E358-6E98-409F-9A1F-EA9DE4C1A8AA";
paths = (
{
closed = 1;
nodes = (
"555 0 LINE SMOOTH",
"865 0 OFFCURVE",
"942 226 OFFCURVE",
"942 569 CURVE SMOOTH",
"942 781 OFFCURVE",
"900 939 OFFCURVE",
"742 979 CURVE",
"863 1011 OFFCURVE",
"922 1116 OFFCURVE",
"922 1281 CURVE SMOOTH",
"922 1358 LINE SMOOTH",
"922 1645 OFFCURVE",
"811 1760 OFFCURVE",
"555 1760 CURVE SMOOTH",
"78 1760 LINE",
"78 0 LINE"
);
},
{
closed = 1;
nodes = (
"450 310 OFFCURVE",
"438 311 OFFCURVE",
"422 312 CURVE",
"422 822 LINE",
"487 822 LINE SMOOTH",
"570 822 OFFCURVE",
"594 760 OFFCURVE",
"594 660 CURVE SMOOTH",
"594 440 LINE SMOOTH",
"594 354 OFFCURVE",
"548 310 OFFCURVE",
"457 310 CURVE SMOOTH"
);
},
{
closed = 1;
nodes = (
"422 1488 LINE",
"496 1488 LINE SMOOTH",
"546 1488 OFFCURVE",
"571 1460 OFFCURVE",
"571 1403 CURVE SMOOTH",
"571 1226 LINE SMOOTH",
"571 1155 OFFCURVE",
"559 1097 OFFCURVE",
"494 1097 CURVE SMOOTH",
"422 1097 LINE"
);
}
);
width = 980;
}
);
unicode = 0042;
userData = {
com.typemytype.robofont.layerData = {
};
};
},
{
glyphname = C;
layers = (
{
anchors = (
{
name = bot;
position = "{489, 0}";
},
{
name = top;
position = "{496, 1760}";
}
);
background = {
anchors = (
{
name = bot;
position = "{489, 0}";
},
{
name = top;
position = "{496, 1760}";
}
);
paths = (
{
closed = 1;
nodes = (
"768 -16 OFFCURVE",
"932 116 OFFCURVE",
"932 425 CURVE SMOOTH",
"932 758 LINE",
"578 758 LINE",
"578 441 LINE SMOOTH",
"578 362 OFFCURVE",
"556 308 OFFCURVE",
"496 308 CURVE SMOOTH",
"442 308 OFFCURVE",
"413 344 OFFCURVE",
"413 441 CURVE SMOOTH",
"413 1322 LINE SMOOTH",
"413 1400 OFFCURVE",
"431 1452 OFFCURVE",
"496 1452 CURVE SMOOTH",
"552 1452 OFFCURVE",
"578 1423 OFFCURVE",
"578 1318 CURVE SMOOTH",
"578 1058 LINE",
"928 1058 LINE",
"928 1362 LINE SMOOTH",
"928 1639 OFFCURVE",
"746 1776 OFFCURVE",
"496 1776 CURVE SMOOTH",
"191 1776 OFFCURVE",
"64 1589 OFFCURVE",
"64 1248 CURVE SMOOTH",
"64 436 LINE SMOOTH",
"64 151 OFFCURVE",
"233 -16 OFFCURVE",
"488 -16 CURVE SMOOTH"
);
}
);
};
layerId = "6CD1E358-6E98-409F-9A1F-EA9DE4C1A8AA";
paths = (
{
closed = 1;
nodes = (
"768 -16 OFFCURVE",
"932 116 OFFCURVE",
"932 425 CURVE SMOOTH",
"932 758 LINE",
"578 758 LINE",
"578 441 LINE SMOOTH",
"578 362 OFFCURVE",
"556 308 OFFCURVE",
"496 308 CURVE SMOOTH",
"442 308 OFFCURVE",
"413 344 OFFCURVE",
"413 441 CURVE SMOOTH",
"413 1322 LINE SMOOTH",
"413 1400 OFFCURVE",
"431 1452 OFFCURVE",
"496 1452 CURVE SMOOTH",
"552 1452 OFFCURVE",
"578 1423 OFFCURVE",
"578 1318 CURVE SMOOTH",
"578 1058 LINE",
"928 1058 LINE",
"928 1362 LINE SMOOTH",
"928 1639 OFFCURVE",
"746 1776 OFFCURVE",
"496 1776 CURVE SMOOTH",
"191 1776 OFFCURVE",
"64 1589 OFFCURVE",
"64 1248 CURVE SMOOTH",
"64 436 LINE SMOOTH",
"64 151 OFFCURVE",
"233 -16 OFFCURVE",
"488 -16 CURVE SMOOTH"
);
}
);
width = 971;
}
);
unicode = 0043;
userData = {
com.typemytype.robofont.layerData = {
};
};
},
{
glyphname = D;
layers = (
{
anchors = (
{
name = mid;
position = "{271, 923}";
},
{
name = top;
position = "{504, 1760}";
}
);
background = {
anchors = (
{
name = mid;
position = "{271, 923}";
},
{
name = top;
position = "{504, 1760}";
}
);
paths = (
{
closed = 1;
nodes = (
"551 0 LINE SMOOTH",
"843 0 OFFCURVE",
"948 189 OFFCURVE",
"946 522 CURVE SMOOTH",
"942 1346 LINE SMOOTH",
"941 1616 OFFCURVE",
"816 1760 OFFCURVE",
"563 1760 CURVE SMOOTH",
"78 1760 LINE",
"78 0 LINE"
);
},
{
closed = 1;
nodes = (
"432 1452 LINE",
"471 1452 LINE SMOOTH",
"567 1452 OFFCURVE",
"590 1430 OFFCURVE",
"590 1313 CURVE SMOOTH",
"590 405 LINE SMOOTH",
"590 342 OFFCURVE",
"556 311 OFFCURVE",
"493 311 CURVE SMOOTH",
"432 311 LINE"
);
}
);
};
layerId = "6CD1E358-6E98-409F-9A1F-EA9DE4C1A8AA";
paths = (
{
closed = 1;
nodes = (
"551 0 LINE SMOOTH",
"843 0 OFFCURVE",
"948 189 OFFCURVE",
"946 522 CURVE SMOOTH",
"942 1346 LINE SMOOTH",
"941 1616 OFFCURVE",
"816 1760 OFFCURVE",
"563 1760 CURVE SMOOTH",
"78 1760 LINE",
"78 0 LINE"
);
},
{
closed = 1;
nodes = (
"432 1452 LINE",
"471 1452 LINE SMOOTH",
"567 1452 OFFCURVE",
"590 1430 OFFCURVE",
"590 1313 CURVE SMOOTH",
"590 405 LINE SMOOTH",
"590 342 OFFCURVE",
"556 311 OFFCURVE",
"493 311 CURVE SMOOTH",
"432 311 LINE"
);
}
);
width = 1010.03;
}
);
unicode = 0044;
userData = {
com.typemytype.robofont.layerData = {
};
};
},
{
glyphname = E;
layers = (
{
anchors = (
{
name = bottom;
position = "{442, 0}";
},
{
name = ogonek;
position = "{477, 0}";
},
{
name = top_case;
position = "{435, 1760}";
}
);
background = {
anchors = (
{
name = bottom;
position = "{442, 0}";
},
{
name = ogonek;
position = "{477, 0}";
},
{
name = top;
position = "{444, 1760}";
}
);
paths = (
{
closed = 1;
nodes = (
"805 0 LINE",
"805 343 LINE",
"436 343 LINE",
"436 746 LINE",
"768 746 LINE",
"768 1077 LINE",
"436 1077 LINE",
"436 1420 LINE",
"782 1420 LINE",
"782 1760 LINE",
"78 1760 LINE",
"78 0 LINE"
);
}
);
};
layerId = "6CD1E358-6E98-409F-9A1F-EA9DE4C1A8AA";
paths = (
{
closed = 1;
nodes = (
"805 0 LINE",
"805 343 LINE",
"436 343 LINE",
"436 746 LINE",
"768 746 LINE",
"768 1077 LINE",
"436 1077 LINE",
"436 1420 LINE",
"782 1420 LINE",
"782 1760 LINE",
"78 1760 LINE",
"78 0 LINE"
);
}
);
width = 843;
}
);
unicode = 0045;
userData = {
com.typemytype.robofont.layerData = {
};
};
},
{
glyphname = F;
layers = (
{
anchors = (
{
name = top;
position = "{452, 1760}";
}
);
background = {
anchors = (
{
name = top;
position = "{452, 1760}";
}
);
paths = (
{
closed = 1;
nodes = (
"432 0 LINE",
"432 798 LINE",
"764 798 LINE",
"764 1137 LINE",
"432 1137 LINE",
"432 1417 LINE",
"782 1417 LINE",
"782 1760 LINE",
"78 1760 LINE",
"78 0 LINE"
);
}
);
};
layerId = "6CD1E358-6E98-409F-9A1F-EA9DE4C1A8AA";
paths = (
{
closed = 1;
nodes = (
"432 0 LINE",
"432 798 LINE",
"764 798 LINE",
"764 1137 LINE",
"432 1137 LINE",
"432 1417 LINE",
"782 1417 LINE",
"782 1760 LINE",
"78 1760 LINE",
"78 0 LINE"
);
}
);
width = 817;
}
);
unicode = 0046;
userData = {
com.typemytype.robofont.layerData = {
};
};
},
{
glyphname = G;
layers = (
{
anchors = (
{
name = bot;
position = "{504, 0}";
},
{
name = top;
position = "{495, 1760}";
}
);
background = {
anchors = (
{
name = bot;
position = "{504, 0}";
},
{
name = top;
position = "{495, 1760}";
}
);
paths = (
{
closed = 1;
nodes = (
"572 -16 OFFCURVE",
"668 36 OFFCURVE",
"731 148 CURVE",
"791 0 LINE",
"932 0 LINE",
"932 1025 LINE",
"502 1025 LINE",
"502 721 LINE",
"596 721 LINE",
"596 470 LINE SMOOTH",
"596 372 OFFCURVE",
"577 308 OFFCURVE",
"503 308 CURVE SMOOTH",
"431 308 OFFCURVE",
"412 373 OFFCURVE",
"412 468 CURVE SMOOTH",
"412 1321 LINE SMOOTH",
"412 1386 OFFCURVE",
"430 1452 OFFCURVE",
"512 1452 CURVE SMOOTH",
"577 1452 OFFCURVE",
"592 1394 OFFCURVE",
"592 1318 CURVE SMOOTH",
"592 1162 LINE",
"936 1162 LINE",
"936 1555 OFFCURVE",
"851 1776 OFFCURVE",
"496 1776 CURVE SMOOTH",
"208 1776 OFFCURVE",
"64 1608 OFFCURVE",
"64 1283 CURVE SMOOTH",
"64 524 LINE SMOOTH",
"64 161 OFFCURVE",
"187 -16 OFFCURVE",
"441 -16 CURVE SMOOTH"
);
}
);
};
layerId = "6CD1E358-6E98-409F-9A1F-EA9DE4C1A8AA";
paths = (
{
closed = 1;
nodes = (
"572 -16 OFFCURVE",
"668 36 OFFCURVE",
"731 148 CURVE",
"791 0 LINE",
"932 0 LINE",
"932 1025 LINE",
"502 1025 LINE",
"502 721 LINE",
"596 721 LINE",
"596 470 LINE SMOOTH",
"596 372 OFFCURVE",
"577 308 OFFCURVE",
"503 308 CURVE SMOOTH",
"431 308 OFFCURVE",
"412 373 OFFCURVE",
"412 468 CURVE SMOOTH",
"412 1321 LINE SMOOTH",
"412 1386 OFFCURVE",
"430 1452 OFFCURVE",
"512 1452 CURVE SMOOTH",
"577 1452 OFFCURVE",
"592 1394 OFFCURVE",
"592 1318 CURVE SMOOTH",
"592 1162 LINE",
"936 1162 LINE",
"936 1555 OFFCURVE",
"851 1776 OFFCURVE",
"496 1776 CURVE SMOOTH",
"208 1776 OFFCURVE",
"64 1608 OFFCURVE",
"64 1283 CURVE SMOOTH",
"64 524 LINE SMOOTH",
"64 161 OFFCURVE",
"187 -16 OFFCURVE",
"441 -16 CURVE SMOOTH"
);
}
);
width = 993;
}
);
unicode = 0047;
userData = {
com.typemytype.robofont.layerData = {
};
};
},
{
glyphname = H;
layers = (
{
anchors = (
{
name = top;
position = "{511, 1760}";
}
);
background = {
anchors = (
{
name = top;
position = "{511, 1760}";
}
);
paths = (
{
closed = 1;
nodes = (
"428 0 LINE",
"428 798 LINE",
"594 798 LINE",
"594 0 LINE",
"944 0 LINE",
"944 1760 LINE",
"594 1760 LINE",
"594 1131 LINE",
"428 1131 LINE",
"428 1760 LINE",
"78 1760 LINE",
"78 0 LINE"
);
}
);
};
layerId = "6CD1E358-6E98-409F-9A1F-EA9DE4C1A8AA";
paths = (
{
closed = 1;
nodes = (
"428 0 LINE",
"428 798 LINE",
"594 798 LINE",
"594 0 LINE",
"944 0 LINE",
"944 1760 LINE",
"594 1760 LINE",
"594 1131 LINE",
"428 1131 LINE",
"428 1760 LINE",
"78 1760 LINE",
"78 0 LINE"
);
}
);
width = 1022;
}
);
unicode = 0048;
userData = {
com.typemytype.robofont.layerData = {
};
};
},
{
glyphname = Hbar;
layers = (
{
background = {
components = (
{
name = H;
}
);
paths = (
{
closed = 1;
nodes = (
"1033 1342 LINE",
"1033 1500 LINE",
"-28 1500 LINE",
"-28 1342 LINE"
);
}
);
};
components = (
{
name = H;
}
);
layerId = "6CD1E358-6E98-409F-9A1F-EA9DE4C1A8AA";
paths = (
{
closed = 1;
nodes = (
"1033 1342 LINE",
"1033 1500 LINE",
"-28 1500 LINE",
"-28 1342 LINE"
);
}
);
width = 990;
}
);
unicode = 0126;
},
{
glyphname = I;
layers = (
{
anchors = (
{
name = bottom;
position = "{232, 0}";
},
{
name = ogonek;
position = "{290, 0}";
},
{
name = top_case;
position = "{232, 1760}";
}
);
background = {
anchors = (
{
name = bottom;
position = "{232, 0}";
},
{
name = ogonek;
position = "{290, 0}";
},
{
name = top;
position = "{232, 1760}";
}
);
paths = (
{
closed = 1;
nodes = (
"402 0 LINE",
"402 1760 LINE",
"62 1760 LINE",
"62 0 LINE"
);
}
);
};
layerId = "6CD1E358-6E98-409F-9A1F-EA9DE4C1A8AA";
paths = (
{
closed = 1;
nodes = (
"402 0 LINE",
"402 1760 LINE",
"62 1760 LINE",
"62 0 LINE"
);
}
);
width = 464;
}
);
unicode = 0049;
userData = {
com.typemytype.robofont.layerData = {
};
};
},
{
glyphname = J;
layers = (
{
anchors = (
{
name = top;
position = "{721, 1760}";
}
);
background = {
anchors = (
{
name = top;
position = "{721, 1760}";
}
);
paths = (
{
closed = 1;
nodes = (
"719 -16 OFFCURVE",
"898 160 OFFCURVE",
"898 440 CURVE SMOOTH",
"898 1760 LINE",
"543 1760 LINE",
"543 405 LINE SMOOTH",
"543 344 OFFCURVE",
"517 308 OFFCURVE",
"464 308 CURVE SMOOTH",
"409 308 OFFCURVE",
"386 348 OFFCURVE",
"386 410 CURVE SMOOTH",
"386 830 LINE",
"38 830 LINE",
"38 389 LINE SMOOTH",
"38 124 OFFCURVE",
"229 -16 OFFCURVE",
"468 -16 CURVE SMOOTH"
);
}
);
};
layerId = "6CD1E358-6E98-409F-9A1F-EA9DE4C1A8AA";
paths = (
{
closed = 1;
nodes = (
"719 -16 OFFCURVE",
"898 160 OFFCURVE",
"898 440 CURVE SMOOTH",
"898 1760 LINE",
"543 1760 LINE",
"543 405 LINE SMOOTH",
"543 344 OFFCURVE",
"517 308 OFFCURVE",
"464 308 CURVE SMOOTH",
"409 308 OFFCURVE",
"386 348 OFFCURVE",
"386 410 CURVE SMOOTH",
"386 830 LINE",
"38 830 LINE",
"38 389 LINE SMOOTH",
"38 124 OFFCURVE",
"229 -16 OFFCURVE",
"468 -16 CURVE SMOOTH"
);
}
);
width = 955;
}
);
unicode = 004A;
userData = {
com.typemytype.robofont.layerData = {
};
};
},
{
glyphname = K;
layers = (
{
anchors = (
{
name = bot;
position = "{523, 0}";
},
{
name = top;
position = "{511, 1760}";
}
);
background = {
anchors = (
{
name = bot;
position = "{523, 0}";
},
{
name = top;
position = "{511, 1760}";
}
);
paths = (
{
closed = 1;
nodes = (
"428 0 LINE",
"428 852 LINE",
"620 0 LINE",
"985 0 LINE",
"747 954 LINE",
"944 1760 LINE",
"590 1760 LINE",
"426 1055 LINE",
"426 1760 LINE",
"78 1760 LINE",
"78 0 LINE"
);
}
);
};
layerId = "6CD1E358-6E98-409F-9A1F-EA9DE4C1A8AA";
paths = (
{
closed = 1;
nodes = (
"428 0 LINE",
"428 852 LINE",
"620 0 LINE",
"985 0 LINE",
"747 954 LINE",
"944 1760 LINE",
"590 1760 LINE",
"426 1055 LINE",
"426 1760 LINE",
"78 1760 LINE",
"78 0 LINE"
);
}
);
width = 967;
}
);
unicode = 004B;
userData = {
com.typemytype.robofont.layerData = {
};
};
},
{
glyphname = L;
layers = (
{
anchors = (
{
name = bot;
position = "{433, 0}";
},
{
name = caron.alt;
position = "{193, 1500}";
},
{
name = mid;
position = "{716, 931}";
},
{
name = top;
position = "{254, 1760}";
}
);
background = {
anchors = (
{
name = bot;
position = "{433, 0}";
},
{
name = caron.alt;
position = "{193, 1500}";
},
{
name = mid;
position = "{716, 931}";
},
{
name = top;
position = "{254, 1760}";
}
);
paths = (
{
closed = 1;
nodes = (
"792 0 LINE",
"792 300 LINE",
"430 300 LINE",
"430 1760 LINE",
"78 1760 LINE",
"78 0 LINE"
);
}
);
};
layerId = "6CD1E358-6E98-409F-9A1F-EA9DE4C1A8AA";
paths = (
{
closed = 1;
nodes = (
"792 0 LINE",
"792 300 LINE",
"430 300 LINE",
"430 1760 LINE",
"78 1760 LINE",
"78 0 LINE"
);
}
);
width = 814;
}
);
unicode = 004C;
userData = {
com.typemytype.robofont.layerData = {
};
};
},
{
glyphname = Lslash;
layers = (
{
background = {
components = (
{
name = L;
}
);
paths = (
{
closed = 1;
nodes = (
"636 951 LINE",
"636 1293 LINE",
"-11 1011 LINE",
"-11 669 LINE"
);
}
);
};
components = (
{
name = L;
}
);
layerId = "6CD1E358-6E98-409F-9A1F-EA9DE4C1A8AA";
paths = (
{
closed = 1;
nodes = (
"636 951 LINE",
"636 1293 LINE",
"-11 1011 LINE",
"-11 669 LINE"
);
}
);
width = 853;
}
);
unicode = 0141;
userData = {
com.typemytype.robofont.layerData = {
};
};
},
{
glyphname = M;
layers = (
{
anchors = (
{
name = top;
position = "{762, 1760}";
}
);
background = {
anchors = (
{
name = top;
position = "{762, 1760}";
}
);
paths = (
{
closed = 1;
nodes = (
"396 0 LINE",
"396 1268 LINE",
"610 0 LINE",
"926 0 LINE",
"1128 1268 LINE",
"1128 0 LINE",
"1450 0 LINE",
"1450 1760 LINE",
"909 1760 LINE",
"762 687 LINE",
"614 1760 LINE",
"78 1760 LINE",
"78 0 LINE"
);
}
);
};
layerId = "6CD1E358-6E98-409F-9A1F-EA9DE4C1A8AA";
paths = (
{
closed = 1;
nodes = (
"396 0 LINE",
"396 1268 LINE",
"610 0 LINE",
"926 0 LINE",
"1128 1268 LINE",
"1128 0 LINE",
"1450 0 LINE",
"1450 1760 LINE",
"909 1760 LINE",
"762 687 LINE",
"614 1760 LINE",
"78 1760 LINE",
"78 0 LINE"
);
}
);
width = 1528;
}
);
unicode = 004D;
userData = {
com.typemytype.robofont.layerData = {
};
};
},
{
glyphname = N;
layers = (
{
anchors = (
{
name = bot;
position = "{503, 0}";
},
{
name = top;
position = "{531, 1760}";
}
);
background = {
anchors = (
{
name = bot;
position = "{503, 0}";
},
{
name = top;
position = "{531, 1760}";
}
);
paths = (
{
closed = 1;
nodes = (
"422 0 LINE",
"422 880 LINE",
"598 0 LINE",
"942 0 LINE",
"942 1760 LINE",
"602 1760 LINE",
"602 917 LINE",
"440 1760 LINE",
"78 1760 LINE",
"78 0 LINE"
);
}
);
};
layerId = "6CD1E358-6E98-409F-9A1F-EA9DE4C1A8AA";
paths = (
{
closed = 1;
nodes = (
"422 0 LINE",
"422 880 LINE",
"598 0 LINE",
"942 0 LINE",
"942 1760 LINE",
"602 1760 LINE",
"602 917 LINE",
"440 1760 LINE",
"78 1760 LINE",
"78 0 LINE"
);
}
);
width = 1020;
}
);
unicode = 004E;
userData = {
com.typemytype.robofont.layerData = {
};
};
},
{
glyphname = Eng;
layers = (
{
background = {
components = (
{
name = N;
}
);
paths = (
{
closed = 1;
nodes = (
"741 -488 OFFCURVE",
"942 -355 OFFCURVE",
"942 -18 CURVE SMOOTH",
"942 182 LINE",
"577 182 LINE",
"577 -41 LINE SMOOTH",
"577 -182 OFFCURVE",
"517 -236 OFFCURVE",
"417 -236 CURVE SMOOTH",
"345 -236 OFFCURVE",
"251 -207 OFFCURVE",
"145 -161 CURVE",
"64 -368 LINE",
"202 -444 OFFCURVE",
"357 -488 OFFCURVE",
"497 -488 CURVE SMOOTH"
);
}
);
};
components = (
{
name = N;
}
);
layerId = "6CD1E358-6E98-409F-9A1F-EA9DE4C1A8AA";
paths = (
{
closed = 1;
nodes = (
"741 -488 OFFCURVE",
"942 -355 OFFCURVE",
"942 -18 CURVE SMOOTH",
"942 182 LINE",
"577 182 LINE",
"577 -41 LINE SMOOTH",
"577 -182 OFFCURVE",
"517 -236 OFFCURVE",
"417 -236 CURVE SMOOTH",
"345 -236 OFFCURVE",
"251 -207 OFFCURVE",
"145 -161 CURVE",
"64 -368 LINE",
"202 -444 OFFCURVE",
"357 -488 OFFCURVE",
"497 -488 CURVE SMOOTH"
);
}
);
width = 1006;
}
);
unicode = 014A;
},
{
glyphname = O;
layers = (
{
anchors = (
{
name = bottom;
position = "{498, 0}";
},
{
name = ogonek;
position = "{677, 80}";
},
{
name = top_case;
position = "{498, 1760}";
},
{
name = topright;
position = "{498, 1515}";
}
);
background = {
anchors = (
{
name = bottom;
position = "{498, 0}";
},
{
name = ogonek;
position = "{677, 80}";
},
{
name = top;
position = "{499, 1760}";
}
);
paths = (
{
closed = 1;
nodes = (
"786 -16 OFFCURVE",
"932 167 OFFCURVE",
"932 480 CURVE SMOOTH",
"932 1316 LINE SMOOTH",
"932 1619 OFFCURVE",
"780 1776 OFFCURVE",
"498 1776 CURVE SMOOTH",
"216 1776 OFFCURVE",
"64 1619 OFFCURVE",
"64 1316 CURVE SMOOTH",
"64 480 LINE SMOOTH",
"64 167 OFFCURVE",
"210 -16 OFFCURVE",
"498 -16 CURVE SMOOTH"
);
},
{
closed = 1;
nodes = (
"426 308 OFFCURVE",
"412 369 OFFCURVE",
"412 461 CURVE SMOOTH",
"412 1319 LINE SMOOTH",
"412 1394 OFFCURVE",
"432 1452 OFFCURVE",
"500 1452 CURVE SMOOTH",
"569 1452 OFFCURVE",
"578 1384 OFFCURVE",
"578 1322 CURVE SMOOTH",
"578 463 LINE SMOOTH",
"578 378 OFFCURVE",
"565 308 OFFCURVE",
"498 308 CURVE SMOOTH"
);
}
);
};
layerId = "6CD1E358-6E98-409F-9A1F-EA9DE4C1A8AA";
paths = (
{
closed = 1;
nodes = (
"786 -16 OFFCURVE",
"932 167 OFFCURVE",
"932 480 CURVE SMOOTH",
"932 1316 LINE SMOOTH",
"932 1619 OFFCURVE",
"780 1776 OFFCURVE",
"498 1776 CURVE SMOOTH",
"216 1776 OFFCURVE",
"64 1619 OFFCURVE",
"64 1316 CURVE SMOOTH",
"64 480 LINE SMOOTH",
"64 167 OFFCURVE",
"210 -16 OFFCURVE",
"498 -16 CURVE SMOOTH"
);
},
{
closed = 1;
nodes = (
"426 308 OFFCURVE",
"412 369 OFFCURVE",
"412 461 CURVE SMOOTH",
"412 1319 LINE SMOOTH",
"412 1394 OFFCURVE",
"432 1452 OFFCURVE",
"500 1452 CURVE SMOOTH",
"569 1452 OFFCURVE",
"578 1384 OFFCURVE",
"578 1322 CURVE SMOOTH",
"578 463 LINE SMOOTH",
"578 378 OFFCURVE",
"565 308 OFFCURVE",
"498 308 CURVE SMOOTH"
);
}
);
width = 996;
}
);
unicode = 004F;
userData = {
com.typemytype.robofont.layerData = {
};
};
},
{
glyphname = Ohorn;
layers = (
{
anchors = (
{
name = bottom;
position = "{498, 0}";
},
{
name = ogonek;
position = "{677, 80}";
},
{
name = top_case;
position = "{500, 1895}";
}
);
layerId = "6CD1E358-6E98-409F-9A1F-EA9DE4C1A8AA";
paths = (
{
closed = 1;
nodes = (
"786 -16 OFFCURVE",
"932 167 OFFCURVE",
"932 480 CURVE SMOOTH",
"932 1316 LINE SMOOTH",
"932 1459 OFFCURVE",
"898 1569 OFFCURVE",
"833 1646 CURVE",
"828 1612 LINE",
"913 1662 OFFCURVE",
"969 1756 OFFCURVE",
"969 1909 CURVE SMOOTH",
"969 1924 LINE",
"691 1923 LINE",
"691 1901 LINE SMOOTH",
"691 1815 OFFCURVE",
"651 1776 OFFCURVE",
"576 1776 CURVE SMOOTH",
"500 1776 LINE SMOOTH",
"217 1776 OFFCURVE",
"64 1619 OFFCURVE",
"64 1316 CURVE SMOOTH",
"64 480 LINE SMOOTH",
"64 167 OFFCURVE",
"210 -16 OFFCURVE",
"498 -16 CURVE SMOOTH"
);
},
{
closed = 1;
nodes = (
"426 308 OFFCURVE",
"412 369 OFFCURVE",
"412 461 CURVE SMOOTH",
"412 1319 LINE SMOOTH",
"412 1394 OFFCURVE",
"432 1452 OFFCURVE",
"500 1452 CURVE SMOOTH",
"569 1452 OFFCURVE",
"578 1384 OFFCURVE",
"578 1322 CURVE SMOOTH",
"578 463 LINE SMOOTH",
"578 378 OFFCURVE",
"565 308 OFFCURVE",
"498 308 CURVE SMOOTH"
);
}
);
width = 1003;
},
{
anchors = (
{
name = _topright;
position = "{498, 1515}";
},
{
name = bottom;
position = "{498, 0}";
},
{
name = ogonek;
position = "{677, 80}";
},
{
name = top_case;
position = "{498, 1760}";
},
{
name = topright;
position = "{498, 1515}";
}
);
associatedMasterId = "6CD1E358-6E98-409F-9A1F-EA9DE4C1A8AA";
background = {
components = (
{
name = O;
},
{
name = horncomb.case;
}
);
};
layerId = "9A1CC48F-EBA3-4F80-80D1-25802E2DFBE4";
name = "Regular Jul 24 16, 23:49";
paths = (
{
closed = 1;
nodes = (
"786 -16 OFFCURVE",
"932 167 OFFCURVE",
"932 480 CURVE SMOOTH",
"932 1316 LINE SMOOTH",
"932 1619 OFFCURVE",
"780 1776 OFFCURVE",
"498 1776 CURVE SMOOTH",
"216 1776 OFFCURVE",
"64 1619 OFFCURVE",
"64 1316 CURVE SMOOTH",
"64 480 LINE SMOOTH",
"64 167 OFFCURVE",
"210 -16 OFFCURVE",
"498 -16 CURVE SMOOTH"
);
},
{
closed = 1;
nodes = (
"426 308 OFFCURVE",
"412 369 OFFCURVE",
"412 461 CURVE SMOOTH",
"412 1319 LINE SMOOTH",
"412 1394 OFFCURVE",
"432 1452 OFFCURVE",
"500 1452 CURVE SMOOTH",
"569 1452 OFFCURVE",
"578 1384 OFFCURVE",
"578 1322 CURVE SMOOTH",
"578 463 LINE SMOOTH",
"578 378 OFFCURVE",
"565 308 OFFCURVE",
"498 308 CURVE SMOOTH"
);
},
{
closed = 1;
nodes = (
"819 1566 OFFCURVE",
"969 1659 OFFCURVE",
"969 1909 CURVE SMOOTH",
"969 1924 LINE",
"691 1923 LINE",
"691 1901 LINE SMOOTH",
"691 1815 OFFCURVE",
"651 1776 OFFCURVE",
"576 1776 CURVE SMOOTH",
"499 1776 LINE",
"499 1587 LINE",
"539 1573 OFFCURVE",
"580 1566 OFFCURVE",
"634 1566 CURVE"
);
}
);
width = 996;
visible = 1;
}
);
unicode = 01A0;
},
{
glyphname = Oslash;
layers = (
{
anchors = (
{
name = top;
position = "{494, 1897}";
}
);
background = {
anchors = (
{
name = top;
position = "{494, 1897}";
}
);
components = (
{
name = O;
transform = "{1, 0, 0, 1, -4, 0}";
}
);
paths = (
{
closed = 1;
nodes = (
"849 1971 LINE",
"732 2004 LINE",
"604 1550 LINE",
"715 1500 LINE"
);
},
{
closed = 1;
nodes = (
"354 230 LINE",
"255 316 LINE",
"128 -132 LINE",
"240 -172 LINE"
);
}
);
};
components = (
{
name = O;
transform = "{1, 0, 0, 1, -4, 0}";
}
);
layerId = "6CD1E358-6E98-409F-9A1F-EA9DE4C1A8AA";
paths = (
{
closed = 1;
nodes = (
"849 1971 LINE",
"732 2004 LINE",
"604 1550 LINE",
"715 1500 LINE"
);
},
{
closed = 1;
nodes = (
"354 230 LINE",
"255 316 LINE",
"128 -132 LINE",
"240 -172 LINE"
);
}
);
width = 988;
}
);
unicode = 00D8;
userData = {
com.typemytype.robofont.layerData = {
};
};
},
{
glyphname = OE;
layers = (
{
background = {
paths = (
{
closed = 1;
nodes = (
"1291 0 LINE",
"1291 311 LINE",
"931 311 LINE",
"931 784 LINE",
"1254 784 LINE",
"1254 1083 LINE",
"931 1083 LINE",
"931 1451 LINE",
"1268 1451 LINE",
"1268 1760 LINE",
"598 1760 LINE SMOOTH",
"273 1760 OFFCURVE",
"50 1665 OFFCURVE",
"50 1356 CURVE SMOOTH",
"50 430 LINE SMOOTH",
"50 143 OFFCURVE",
"235 0 OFFCURVE",
"606 0 CURVE SMOOTH"
);
},
{
closed = 1;
nodes = (
"431 311 OFFCURVE",
"398 387 OFFCURVE",
"398 480 CURVE SMOOTH",
"398 1314 LINE SMOOTH",
"398 1399 OFFCURVE",
"440 1451 OFFCURVE",
"519 1451 CURVE SMOOTH",
"574 1451 LINE",
"574 311 LINE",
"513 311 LINE SMOOTH"
);
}
);
};
layerId = "6CD1E358-6E98-409F-9A1F-EA9DE4C1A8AA";
paths = (
{
closed = 1;
nodes = (
"1291 0 LINE",
"1291 311 LINE",
"931 311 LINE",
"931 784 LINE",
"1254 784 LINE",
"1254 1083 LINE",
"931 1083 LINE",
"931 1451 LINE",
"1268 1451 LINE",
"1268 1760 LINE",
"598 1760 LINE SMOOTH",
"273 1760 OFFCURVE",
"50 1665 OFFCURVE",
"50 1356 CURVE SMOOTH",
"50 430 LINE SMOOTH",
"50 143 OFFCURVE",
"235 0 OFFCURVE",
"606 0 CURVE SMOOTH"
);
},
{
closed = 1;
nodes = (
"431 311 OFFCURVE",
"398 387 OFFCURVE",
"398 480 CURVE SMOOTH",
"398 1314 LINE SMOOTH",
"398 1399 OFFCURVE",
"440 1451 OFFCURVE",
"519 1451 CURVE SMOOTH",
"574 1451 LINE",
"574 311 LINE",
"513 311 LINE SMOOTH"
);
}
);
width = 1330;
}
);
unicode = 0152;
userData = {
com.typemytype.robofont.layerData = {
};
};
},
{
glyphname = P;
layers = (
{
anchors = (
{
name = top;
position = "{483, 1760}";
}
);
background = {
anchors = (
{
name = top;
position = "{483, 1760}";
}
);
paths = (
{
closed = 1;
nodes = (
"424 0 LINE",
"424 697 LINE",
"567 697 LINE SMOOTH",
"859 697 OFFCURVE",
"934 903 OFFCURVE",
"934 1224 CURVE SMOOTH",
"934 1556 OFFCURVE",
"835 1760 OFFCURVE",
"543 1760 CURVE SMOOTH",
"78 1760 LINE",
"78 0 LINE"
);
},
{
closed = 1;
nodes = (
"424 1439 LINE",
"463 1439 LINE SMOOTH",
"569 1439 OFFCURVE",
"586 1363 OFFCURVE",
"586 1230 CURVE SMOOTH",
"586 1087 OFFCURVE",
"574 1013 OFFCURVE",
"444 1013 CURVE SMOOTH",
"424 1013 LINE"
);
}
);
};
layerId = "6CD1E358-6E98-409F-9A1F-EA9DE4C1A8AA";
paths = (
{
closed = 1;
nodes = (
"424 0 LINE",
"424 697 LINE",
"567 697 LINE SMOOTH",
"859 697 OFFCURVE",
"934 903 OFFCURVE",
"934 1224 CURVE SMOOTH",
"934 1556 OFFCURVE",
"835 1760 OFFCURVE",
"543 1760 CURVE SMOOTH",
"78 1760 LINE",
"78 0 LINE"
);
},
{
closed = 1;
nodes = (
"424 1439 LINE",
"463 1439 LINE SMOOTH",
"569 1439 OFFCURVE",
"586 1363 OFFCURVE",
"586 1230 CURVE SMOOTH",
"586 1087 OFFCURVE",
"574 1013 OFFCURVE",
"444 1013 CURVE SMOOTH",
"424 1013 LINE"
);
}
);
width = 967;
}
);
unicode = 0050;
userData = {
com.typemytype.robofont.layerData = {
};
};
},
{
glyphname = Thorn;
layers = (
{
background = {
paths = (
{
closed = 1;
nodes = (
"408 0 LINE",
"408 434 LINE",
"551 434 LINE SMOOTH",
"856 434 OFFCURVE",
"918 666 OFFCURVE",
"918 973 CURVE SMOOTH",
"918 1291 OFFCURVE",
"835 1516 OFFCURVE",
"527 1516 CURVE SMOOTH",
"407 1516 LINE",
"407 1760 LINE",
"62 1760 LINE",
"62 0 LINE"
);
},
{
closed = 1;
nodes = (
"408 1226 LINE",
"447 1226 LINE SMOOTH",
"562 1226 OFFCURVE",
"570 1121 OFFCURVE",
"570 979 CURVE SMOOTH",
"570 833 OFFCURVE",
"572 721 OFFCURVE",
"428 721 CURVE SMOOTH",
"408 721 LINE"
);
}
);
};
layerId = "6CD1E358-6E98-409F-9A1F-EA9DE4C1A8AA";
paths = (
{
closed = 1;
nodes = (
"408 0 LINE",
"408 434 LINE",
"551 434 LINE SMOOTH",
"856 434 OFFCURVE",
"918 666 OFFCURVE",
"918 973 CURVE SMOOTH",
"918 1291 OFFCURVE",
"835 1516 OFFCURVE",
"527 1516 CURVE SMOOTH",
"407 1516 LINE",
"407 1760 LINE",
"62 1760 LINE",
"62 0 LINE"
);
},
{
closed = 1;
nodes = (
"408 1226 LINE",
"447 1226 LINE SMOOTH",
"562 1226 OFFCURVE",
"570 1121 OFFCURVE",
"570 979 CURVE SMOOTH",
"570 833 OFFCURVE",
"572 721 OFFCURVE",
"428 721 CURVE SMOOTH",
"408 721 LINE"
);
}
);
width = 947;
}
);
unicode = 00DE;
userData = {
com.typemytype.robofont.layerData = {
};
};
},
{
glyphname = Q;
layers = (
{
background = {
paths = (
{
closed = 1;
nodes = (
"975 23 LINE",
"824 119 LINE",
"889 202 OFFCURVE",
"922 318 OFFCURVE",
"922 462 CURVE SMOOTH",
"922 1313 LINE SMOOTH",
"922 1616 OFFCURVE",
"769 1776 OFFCURVE",
"488 1776 CURVE SMOOTH",
"207 1776 OFFCURVE",
"54 1616 OFFCURVE",
"54 1313 CURVE SMOOTH",
"54 462 LINE SMOOTH",
"54 150 OFFCURVE",
"202 -16 OFFCURVE",
"488 -16 CURVE SMOOTH",
"501 -16 OFFCURVE",
"531 -10 OFFCURVE",
"576 -3 CURVE",
"856 -187 LINE"
);
},
{
closed = 1;
nodes = (
"406 308 OFFCURVE",
"402 407 OFFCURVE",
"402 477 CURVE SMOOTH",
"402 1308 LINE SMOOTH",
"402 1384 OFFCURVE",
"417 1452 OFFCURVE",
"486 1452 CURVE SMOOTH",
"554 1452 OFFCURVE",
"568 1382 OFFCURVE",
"568 1307 CURVE SMOOTH",
"568 484 LINE SMOOTH",
"568 407 OFFCURVE",
"563 308 OFFCURVE",
"488 308 CURVE SMOOTH"
);
}
);
};
layerId = "6CD1E358-6E98-409F-9A1F-EA9DE4C1A8AA";
paths = (
{
closed = 1;
nodes = (
"975 23 LINE",
"824 119 LINE",
"889 202 OFFCURVE",
"922 318 OFFCURVE",
"922 462 CURVE SMOOTH",
"922 1313 LINE SMOOTH",
"922 1616 OFFCURVE",
"769 1776 OFFCURVE",
"488 1776 CURVE SMOOTH",
"207 1776 OFFCURVE",
"54 1616 OFFCURVE",
"54 1313 CURVE SMOOTH",
"54 462 LINE SMOOTH",
"54 150 OFFCURVE",
"202 -16 OFFCURVE",
"488 -16 CURVE SMOOTH",
"501 -16 OFFCURVE",
"531 -10 OFFCURVE",
"576 -3 CURVE",
"856 -187 LINE"
);
},
{
closed = 1;
nodes = (
"406 308 OFFCURVE",
"402 407 OFFCURVE",
"402 477 CURVE SMOOTH",
"402 1308 LINE SMOOTH",
"402 1384 OFFCURVE",
"417 1452 OFFCURVE",
"486 1452 CURVE SMOOTH",
"554 1452 OFFCURVE",
"568 1382 OFFCURVE",
"568 1307 CURVE SMOOTH",
"568 484 LINE SMOOTH",
"568 407 OFFCURVE",
"563 308 OFFCURVE",
"488 308 CURVE SMOOTH"
);
}
);
width = 1011;
}
);
unicode = 0051;
userData = {
com.typemytype.robofont.layerData = {
};
};
},
{
glyphname = R;
layers = (
{
anchors = (
{
name = bot;
position = "{515, 0}";
},
{
name = top;
position = "{479, 1760}";
}
);
background = {
anchors = (
{
name = bot;
position = "{515, 0}";
},
{
name = top;
position = "{479, 1760}";
}
);
paths = (
{
closed = 1;
nodes = (
"434 0 LINE",
"434 803 LINE",
"527 803 OFFCURVE",
"567 792 OFFCURVE",
"567 689 CURVE SMOOTH",
"567 0 LINE",
"911 0 LINE",
"915 666 LINE SMOOTH",
"915 805 OFFCURVE",
"874 895 OFFCURVE",
"764 918 CURVE",
"898 962 OFFCURVE",
"938 1075 OFFCURVE",
"938 1267 CURVE SMOOTH",
"938 1564 OFFCURVE",
"888 1760 OFFCURVE",
"618 1760 CURVE SMOOTH",
"78 1760 LINE",
"78 0 LINE"
);
},
{
closed = 1;
nodes = (
"436 1434 LINE",
"518 1434 LINE SMOOTH",
"577 1434 OFFCURVE",
"594 1404 OFFCURVE",
"594 1267 CURVE SMOOTH",
"594 1160 OFFCURVE",
"568 1108 OFFCURVE",
"521 1108 CURVE SMOOTH",
"436 1108 LINE"
);
}
);
};
layerId = "6CD1E358-6E98-409F-9A1F-EA9DE4C1A8AA";
paths = (
{
closed = 1;
nodes = (
"434 0 LINE",
"434 803 LINE",
"527 803 OFFCURVE",
"567 792 OFFCURVE",
"567 689 CURVE SMOOTH",
"567 0 LINE",
"911 0 LINE",
"915 666 LINE SMOOTH",
"915 805 OFFCURVE",
"874 895 OFFCURVE",
"764 918 CURVE",
"898 962 OFFCURVE",
"938 1075 OFFCURVE",
"938 1267 CURVE SMOOTH",
"938 1564 OFFCURVE",
"888 1760 OFFCURVE",
"618 1760 CURVE SMOOTH",
"78 1760 LINE",
"78 0 LINE"
);
},
{
closed = 1;
nodes = (
"436 1434 LINE",
"518 1434 LINE SMOOTH",
"577 1434 OFFCURVE",
"594 1404 OFFCURVE",
"594 1267 CURVE SMOOTH",
"594 1160 OFFCURVE",
"568 1108 OFFCURVE",
"521 1108 CURVE SMOOTH",
"436 1108 LINE"
);
}
);
width = 976;
}
);
unicode = 0052;
userData = {
com.typemytype.robofont.layerData = {
};
};
},
{
glyphname = S;
layers = (
{
anchors = (
{
name = bot;
position = "{476, 0}";
},
{
name = top;
position = "{468, 1760}";
}
);
background = {
anchors = (
{
name = bot;
position = "{476, 0}";
},
{
name = top;
position = "{468, 1760}";
}
);
paths = (
{
closed = 1;
nodes = (
"798 -16 OFFCURVE",
"906 182 OFFCURVE",
"906 513 CURVE SMOOTH",
"906 758 OFFCURVE",
"802 877 OFFCURVE",
"681 994 CURVE SMOOTH",
"478 1189 LINE SMOOTH",
"399 1264 OFFCURVE",
"379 1319 OFFCURVE",
"379 1368 CURVE SMOOTH",
"379 1417 OFFCURVE",
"404 1452 OFFCURVE",
"460 1452 CURVE SMOOTH",
"506 1452 OFFCURVE",
"534 1424 OFFCURVE",
"535 1376 CURVE SMOOTH",
"537 1255 LINE",
"894 1255 LINE",
"894 1605 OFFCURVE",
"772 1776 OFFCURVE",
"449 1776 CURVE SMOOTH",
"185 1776 OFFCURVE",
"42 1615 OFFCURVE",
"42 1315 CURVE SMOOTH",
"42 1172 OFFCURVE",
"102 1049 OFFCURVE",
"219 933 CURVE SMOOTH",
"371 783 LINE SMOOTH",
"492 663 OFFCURVE",
"558 610 OFFCURVE",
"558 428 CURVE SMOOTH",
"558 342 OFFCURVE",
"537 308 OFFCURVE",
"473 308 CURVE SMOOTH",
"411 308 OFFCURVE",
"390 356 OFFCURVE",
"390 438 CURVE SMOOTH",
"390 658 LINE",
"42 658 LINE",
"42 486 LINE SMOOTH",
"42 136 OFFCURVE",
"174 -16 OFFCURVE",
"496 -16 CURVE SMOOTH"
);
}
);
};
layerId = "6CD1E358-6E98-409F-9A1F-EA9DE4C1A8AA";
paths = (
{
closed = 1;
nodes = (
"798 -16 OFFCURVE",
"906 182 OFFCURVE",
"906 513 CURVE SMOOTH",
"906 758 OFFCURVE",
"802 877 OFFCURVE",
"681 994 CURVE SMOOTH",
"478 1189 LINE SMOOTH",
"399 1264 OFFCURVE",
"379 1319 OFFCURVE",
"379 1368 CURVE SMOOTH",
"379 1417 OFFCURVE",
"404 1452 OFFCURVE",
"460 1452 CURVE SMOOTH",
"506 1452 OFFCURVE",
"534 1424 OFFCURVE",
"535 1376 CURVE SMOOTH",
"537 1255 LINE",
"894 1255 LINE",
"894 1605 OFFCURVE",
"772 1776 OFFCURVE",
"449 1776 CURVE SMOOTH",
"185 1776 OFFCURVE",
"42 1615 OFFCURVE",
"42 1315 CURVE SMOOTH",
"42 1172 OFFCURVE",
"102 1049 OFFCURVE",
"219 933 CURVE SMOOTH",
"371 783 LINE SMOOTH",
"492 663 OFFCURVE",
"558 610 OFFCURVE",
"558 428 CURVE SMOOTH",
"558 342 OFFCURVE",
"537 308 OFFCURVE",
"473 308 CURVE SMOOTH",
"411 308 OFFCURVE",
"390 356 OFFCURVE",
"390 438 CURVE SMOOTH",
"390 658 LINE",
"42 658 LINE",
"42 486 LINE SMOOTH",
"42 136 OFFCURVE",
"174 -16 OFFCURVE",
"496 -16 CURVE SMOOTH"
);
}
);
width = 945;
}
);
unicode = 0053;
userData = {
com.typemytype.robofont.layerData = {
};
};
},
{
glyphname = Germandbls;
layers = (
{
background = {
paths = (
{
closed = 1;
nodes = (
"408 0 LINE",
"408 1358 LINE SMOOTH",
"408 1433 OFFCURVE",
"444 1470 OFFCURVE",
"514 1470 CURVE SMOOTH",
"575 1470 OFFCURVE",
"637 1450 OFFCURVE",
"676 1418 CURVE",
"655 1560 LINE",
"474 1043 LINE",
"474 823 LINE",
"583 823 OFFCURVE",
"621 784 OFFCURVE",
"621 676 CURVE SMOOTH",
"621 399 LINE SMOOTH",
"621 320 OFFCURVE",
"573 281 OFFCURVE",
"478 281 CURVE",
"478 0 LINE",
"582 0 LINE SMOOTH",
"882 0 OFFCURVE",
"969 174 OFFCURVE",
"969 538 CURVE SMOOTH",
"969 865 OFFCURVE",
"923 1026 OFFCURVE",
"727 1053 CURVE",
"772 935 LINE",
"934 1404 LINE",
"934 1647 LINE",
"837 1716 OFFCURVE",
"690 1777 OFFCURVE",
"491 1777 CURVE SMOOTH",
"213 1777 OFFCURVE",
"58 1654 OFFCURVE",
"58 1403 CURVE SMOOTH",
"58 0 LINE"
);
}
);
};
layerId = "6CD1E358-6E98-409F-9A1F-EA9DE4C1A8AA";
paths = (
{
closed = 1;
nodes = (
"408 0 LINE",
"408 1358 LINE SMOOTH",
"408 1433 OFFCURVE",
"444 1470 OFFCURVE",
"514 1470 CURVE SMOOTH",
"575 1470 OFFCURVE",
"637 1450 OFFCURVE",
"676 1418 CURVE",
"655 1560 LINE",
"474 1043 LINE",
"474 823 LINE",
"583 823 OFFCURVE",
"621 784 OFFCURVE",
"621 676 CURVE SMOOTH",
"621 399 LINE SMOOTH",
"621 320 OFFCURVE",
"573 281 OFFCURVE",
"478 281 CURVE",
"478 0 LINE",
"582 0 LINE SMOOTH",
"882 0 OFFCURVE",
"969 174 OFFCURVE",
"969 538 CURVE SMOOTH",
"969 865 OFFCURVE",
"923 1026 OFFCURVE",
"727 1053 CURVE",
"772 935 LINE",
"934 1404 LINE",
"934 1647 LINE",
"837 1716 OFFCURVE",
"690 1777 OFFCURVE",
"491 1777 CURVE SMOOTH",
"213 1777 OFFCURVE",
"58 1654 OFFCURVE",
"58 1403 CURVE SMOOTH",
"58 0 LINE"
);
}
);
width = 1019;
},
{
associatedMasterId = "6CD1E358-6E98-409F-9A1F-EA9DE4C1A8AA";
layerId = "B1AC1EE3-C7F4-49F5-AC77-6FCE0C5BEB98";
name = "Condensed Jul 1 16, 12:16";
paths = (
{
closed = 1;
nodes = (
"474 745 CURVE",
"474 993 LINE",
"544 993 OFFCURVE",
"558 1044 OFFCURVE",
"558 1112 CURVE SMOOTH",
"558 1270 LINE SMOOTH",
"558 1321 OFFCURVE",
"533 1346 OFFCURVE",
"483 1346 CURVE SMOOTH",
"433 1346 OFFCURVE",
"408 1321 OFFCURVE",
"408 1270 CURVE SMOOTH",
"408 0 LINE",
"58 0 LINE",
"58 1229 LINE SMOOTH",
"58 1472 OFFCURVE",
"200 1593 OFFCURVE",
"483 1593 CURVE SMOOTH",
"742 1593 OFFCURVE",
"909 1490 OFFCURVE",
"909 1229 CURVE SMOOTH",
"909 1162 LINE SMOOTH",
"909 1022 OFFCURVE",
"867 922 OFFCURVE",
"759 887 CURVE",
"928 847 OFFCURVE",
"969 684 OFFCURVE",
"969 476 CURVE SMOOTH",
"969 177 OFFCURVE",
"882 0 OFFCURVE",
"582 0 CURVE SMOOTH",
"478 0 LINE",
"478 281 LINE",
"573 281 OFFCURVE",
"621 320 OFFCURVE",
"621 399 CURVE SMOOTH",
"621 598 LINE SMOOTH",
"621 706 OFFCURVE",
"583 745 OFFCURVE"
);
}
);
width = 600;
}
);
unicode = 1E9E;
},
{
glyphname = Schwa;
layers = (
{
background = {
paths = (
{
closed = 1;
nodes = (
"805 -16 OFFCURVE",
"932 171 OFFCURVE",
"932 512 CURVE SMOOTH",
"932 1324 LINE SMOOTH",
"932 1609 OFFCURVE",
"763 1776 OFFCURVE",
"508 1776 CURVE SMOOTH",
"228 1776 OFFCURVE",
"64 1644 OFFCURVE",
"64 1335 CURVE SMOOTH",
"64 1087 LINE",
"418 1087 LINE",
"418 1319 LINE SMOOTH",
"418 1398 OFFCURVE",
"440 1452 OFFCURVE",
"500 1452 CURVE SMOOTH",
"554 1452 OFFCURVE",
"583 1416 OFFCURVE",
"583 1319 CURVE SMOOTH",
"583 890 LINE",
"68 890 LINE",
"68 398 LINE SMOOTH",
"68 121 OFFCURVE",
"250 -16 OFFCURVE",
"500 -16 CURVE SMOOTH"
);
},
{
closed = 1;
nodes = (
"444 308 OFFCURVE",
"418 337 OFFCURVE",
"418 442 CURVE SMOOTH",
"418 614 LINE",
"583 614 LINE",
"583 438 LINE SMOOTH",
"583 360 OFFCURVE",
"565 308 OFFCURVE",
"500 308 CURVE SMOOTH"
);
}
);
};
layerId = "6CD1E358-6E98-409F-9A1F-EA9DE4C1A8AA";
paths = (
{
closed = 1;
nodes = (
"805 -16 OFFCURVE",
"932 171 OFFCURVE",
"932 512 CURVE SMOOTH",
"932 1324 LINE SMOOTH",
"932 1609 OFFCURVE",
"763 1776 OFFCURVE",
"508 1776 CURVE SMOOTH",
"228 1776 OFFCURVE",
"64 1644 OFFCURVE",
"64 1335 CURVE SMOOTH",
"64 1087 LINE",
"418 1087 LINE",
"418 1319 LINE SMOOTH",
"418 1398 OFFCURVE",
"440 1452 OFFCURVE",
"500 1452 CURVE SMOOTH",
"554 1452 OFFCURVE",
"583 1416 OFFCURVE",
"583 1319 CURVE SMOOTH",
"583 890 LINE",
"68 890 LINE",
"68 398 LINE SMOOTH",
"68 121 OFFCURVE",
"250 -16 OFFCURVE",
"500 -16 CURVE SMOOTH"
);
},
{
closed = 1;
nodes = (
"444 308 OFFCURVE",
"418 337 OFFCURVE",
"418 442 CURVE SMOOTH",
"418 620 LINE",
"583 620 LINE",
"583 438 LINE SMOOTH",
"583 360 OFFCURVE",
"565 308 OFFCURVE",
"500 308 CURVE SMOOTH"
);
}
);
width = 1000;
}
);
unicode = 018F;
},
{
glyphname = T;
layers = (
{
anchors = (
{
name = bot;
position = "{405, 0}";
},
{
name = mid;
position = "{405, 883}";
},
{
name = top;
position = "{405, 1760}";
}
);
background = {
anchors = (
{
name = bot;
position = "{405, 0}";
},
{
name = mid;
position = "{405, 883}";
},
{
name = top;
position = "{405, 1760}";
}
);
paths = (
{
closed = 1;
nodes = (
"581 0 LINE",
"581 1422 LINE",
"790 1422 LINE",
"790 1760 LINE",
"20 1760 LINE",
"20 1422 LINE",
"229 1422 LINE",
"229 0 LINE"
);
}
);
};
layerId = "6CD1E358-6E98-409F-9A1F-EA9DE4C1A8AA";
paths = (
{
closed = 1;
nodes = (
"581 0 LINE",
"581 1422 LINE",
"790 1422 LINE",
"790 1760 LINE",
"20 1760 LINE",
"20 1422 LINE",
"229 1422 LINE",
"229 0 LINE"
);
}
);
width = 810;
}
);
unicode = 0054;
userData = {
com.typemytype.robofont.layerData = {
};
};
},
{
glyphname = U;
layers = (
{
anchors = (
{
name = bottom;
position = "{485, 0}";
},
{
name = ogonek;
position = "{507, 0}";
},
{
name = top;
position = "{485, 1760}";
},
{
name = top_case;
position = "{485, 1760}";
},
{
name = topright;
position = "{672, 1499}";
}
);
background = {
anchors = (
{
name = bottom;
position = "{485, 0}";
},
{
name = ogonek;
position = "{507, 0}";
},
{
name = top;
position = "{485, 1760}";
}
);
paths = (
{
closed = 1;
nodes = (
"778 -16 OFFCURVE",
"913 151 OFFCURVE",
"913 471 CURVE SMOOTH",
"913 1760 LINE",
"571 1760 LINE",
"571 485 LINE SMOOTH",
"571 396 OFFCURVE",
"566 308 OFFCURVE",
"485 308 CURVE SMOOTH",
"405 308 OFFCURVE",
"399 397 OFFCURVE",
"399 485 CURVE SMOOTH",
"399 1760 LINE",
"57 1760 LINE",
"57 471 LINE SMOOTH",
"57 151 OFFCURVE",
"192 -16 OFFCURVE",
"485 -16 CURVE SMOOTH"
);
}
);
};
layerId = "6CD1E358-6E98-409F-9A1F-EA9DE4C1A8AA";
paths = (
{
closed = 1;
nodes = (
"778 -16 OFFCURVE",
"913 151 OFFCURVE",
"913 471 CURVE SMOOTH",
"913 1760 LINE",
"571 1760 LINE",
"571 485 LINE SMOOTH",
"571 396 OFFCURVE",
"566 308 OFFCURVE",
"485 308 CURVE SMOOTH",
"405 308 OFFCURVE",
"399 397 OFFCURVE",
"399 485 CURVE SMOOTH",
"399 1760 LINE",
"57 1760 LINE",
"57 471 LINE SMOOTH",
"57 151 OFFCURVE",
"192 -16 OFFCURVE",
"485 -16 CURVE SMOOTH"
);
}
);
width = 970;
}
);
unicode = 0055;
userData = {
com.typemytype.robofont.layerData = {
};
};
},
{
glyphname = Uhorn;
layers = (
{
anchors = (
{
name = bottom;
position = "{485, 0}";
},
{
name = ogonek;
position = "{507, 0}";
},
{
name = top_case;
position = "{485, 1845}";
}
);
layerId = "6CD1E358-6E98-409F-9A1F-EA9DE4C1A8AA";
paths = (
{
closed = 1;
nodes = (
"778 -16 OFFCURVE",
"913 151 OFFCURVE",
"913 471 CURVE SMOOTH",
"913 1606 LINE",
"885 1556 LINE",
"1033 1580 OFFCURVE",
"1143 1679 OFFCURVE",
"1143 1893 CURVE SMOOTH",
"1143 1908 LINE",
"865 1907 LINE",
"865 1885 LINE SMOOTH",
"865 1799 OFFCURVE",
"825 1760 OFFCURVE",
"750 1760 CURVE SMOOTH",
"571 1760 LINE",
"571 485 LINE SMOOTH",
"571 396 OFFCURVE",
"566 308 OFFCURVE",
"485 308 CURVE SMOOTH",
"405 308 OFFCURVE",
"399 397 OFFCURVE",
"399 485 CURVE SMOOTH",
"399 1760 LINE",
"57 1760 LINE",
"57 471 LINE SMOOTH",
"57 151 OFFCURVE",
"192 -16 OFFCURVE",
"485 -16 CURVE SMOOTH"
);
}
);
width = 1165;
},
{
anchors = (
{
name = _topright;
position = "{672, 1499}";
},
{
name = bottom;
position = "{485, 0}";
},
{
name = ogonek;
position = "{507, 0}";
},
{
name = top;
position = "{485, 1760}";
},
{
name = topright;
position = "{672, 1499}";
}
);
associatedMasterId = "6CD1E358-6E98-409F-9A1F-EA9DE4C1A8AA";
layerId = "6CF3DF08-681F-4F99-9B24-F8A4C46A3D77";
name = "Regular Jul 24 16, 23:53";
paths = (
{
closed = 1;
nodes = (
"778 -16 OFFCURVE",
"913 151 OFFCURVE",
"913 471 CURVE SMOOTH",
"913 1760 LINE",
"571 1760 LINE",
"571 485 LINE SMOOTH",
"571 396 OFFCURVE",
"566 308 OFFCURVE",
"485 308 CURVE SMOOTH",
"405 308 OFFCURVE",
"399 397 OFFCURVE",
"399 485 CURVE SMOOTH",
"399 1760 LINE",
"57 1760 LINE",
"57 471 LINE SMOOTH",
"57 151 OFFCURVE",
"192 -16 OFFCURVE",
"485 -16 CURVE SMOOTH"
);
},
{
closed = 1;
nodes = (
"993 1550 OFFCURVE",
"1143 1643 OFFCURVE",
"1143 1893 CURVE SMOOTH",
"1143 1908 LINE",
"865 1907 LINE",
"865 1885 LINE SMOOTH",
"865 1799 OFFCURVE",
"825 1760 OFFCURVE",
"750 1760 CURVE SMOOTH",
"673 1760 LINE",
"673 1571 LINE",
"713 1557 OFFCURVE",
"754 1550 OFFCURVE",
"808 1550 CURVE"
);
}
);
width = 970;
}
);
unicode = 01AF;
},
{
glyphname = V;
layers = (
{
anchors = (
{
name = bottom;
position = "{481, 0}";
},
{
name = top;
position = "{481, 1760}";
}
);
background = {
anchors = (
{
name = bottom;
position = "{481, 0}";
},
{
name = top;
position = "{481, 1760}";
}
);
paths = (
{
closed = 1;
nodes = (
"720 0 LINE",
"937 1761 LINE",
"602 1761 LINE",
"487 563 LINE",
"358 1761 LINE",
"23 1761 LINE",
"240 0 LINE"
);
}
);
};
layerId = "6CD1E358-6E98-409F-9A1F-EA9DE4C1A8AA";
paths = (
{
closed = 1;
nodes = (
"720 0 LINE",
"937 1761 LINE",
"602 1761 LINE",
"487 563 LINE",
"358 1761 LINE",
"23 1761 LINE",
"240 0 LINE"
);
}
);
width = 961;
}
);
unicode = 0056;
userData = {
com.typemytype.robofont.layerData = {
};
};
},
{
glyphname = W;
layers = (
{
anchors = (
{
name = top;
position = "{743, 1760}";
}
);
background = {
anchors = (
{
name = top;
position = "{743, 1760}";
}
);
paths = (
{
closed = 1;
nodes = (
"645 0 LINE",
"729 847 LINE",
"817 0 LINE",
"1239 0 LINE",
"1431 1760 LINE",
"1083 1760 LINE",
"989 649 LINE",
"895 1760 LINE",
"567 1760 LINE",
"468 649 LINE",
"371 1760 LINE",
"27 1760 LINE",
"216 0 LINE"
);
}
);
};
layerId = "6CD1E358-6E98-409F-9A1F-EA9DE4C1A8AA";
paths = (
{
closed = 1;
nodes = (
"645 0 LINE",
"729 847 LINE",
"817 0 LINE",
"1239 0 LINE",
"1431 1760 LINE",
"1083 1760 LINE",
"989 649 LINE",
"895 1760 LINE",
"567 1760 LINE",
"468 649 LINE",
"371 1760 LINE",
"27 1760 LINE",
"216 0 LINE"
);
}
);
width = 1458;
}
);
unicode = 0057;
userData = {
com.typemytype.robofont.layerData = {
};
};
},
{
glyphname = X;
layers = (
{
anchors = (
{
name = bottom;
position = "{496, 0}";
},
{
name = top;
position = "{496, 1760}";
}
);
background = {
anchors = (
{
name = bottom;
position = "{496, 0}";
},
{
name = top;
position = "{496, 1760}";
}
);
paths = (
{
closed = 1;
nodes = (
"384 0 LINE",
"498 688 LINE",
"609 0 LINE",
"965 0 LINE",
"777 933 LINE",
"927 1761 LINE",
"582 1761 LINE",
"501 1156 LINE",
"410 1761 LINE",
"66 1761 LINE",
"216 933 LINE",
"27 0 LINE"
);
}
);
};
layerId = "6CD1E358-6E98-409F-9A1F-EA9DE4C1A8AA";
paths = (
{
closed = 1;
nodes = (
"384 0 LINE",
"498 688 LINE",
"609 0 LINE",
"965 0 LINE",
"777 933 LINE",
"927 1761 LINE",
"582 1761 LINE",
"501 1156 LINE",
"410 1761 LINE",
"66 1761 LINE",
"216 933 LINE",
"27 0 LINE"
);
}
);
width = 991;
}
);
unicode = 0058;
userData = {
com.typemytype.robofont.layerData = {
};
};
},
{
glyphname = Y;
layers = (
{
anchors = (
{
name = bottom;
position = "{457, 0}";
},
{
name = top_case;
position = "{456, 1760}";
}
);
background = {
anchors = (
{
name = bottom;
position = "{457, 0}";
},
{
name = top;
position = "{456, 1760}";
}
);
paths = (
{
closed = 1;
nodes = (
"623 0 LINE",
"623 579 LINE",
"903 1760 LINE",
"555 1760 LINE",
"457 1164 LINE",
"359 1760 LINE",
"10 1760 LINE",
"291 579 LINE",
"291 0 LINE"
);
}
);
};
layerId = "6CD1E358-6E98-409F-9A1F-EA9DE4C1A8AA";
paths = (
{
closed = 1;
nodes = (
"623 0 LINE",
"623 579 LINE",
"903 1760 LINE",
"555 1760 LINE",
"457 1164 LINE",
"359 1760 LINE",
"10 1760 LINE",
"291 579 LINE",
"291 0 LINE"
);
}
);
width = 914;
}
);
unicode = 0059;
userData = {
com.typemytype.robofont.layerData = {
};
};
},
{
glyphname = Z;
layers = (
{
anchors = (
{
name = bottom;
position = "{420, 0}";
},
{
name = top;
position = "{439, 1760}";
}
);
background = {
anchors = (
{
name = bottom;
position = "{420, 0}";
},
{
name = top;
position = "{439, 1760}";
}
);
paths = (
{
closed = 1;
nodes = (
"789 0 LINE",
"789 324 LINE",
"396 324 LINE",
"806 1452 LINE",
"806 1760 LINE",
"71 1760 LINE",
"71 1436 LINE",
"435 1436 LINE",
"32 320 LINE",
"32 0 LINE"
);
}
);
};
layerId = "6CD1E358-6E98-409F-9A1F-EA9DE4C1A8AA";
paths = (
{
closed = 1;
nodes = (
"789 0 LINE",
"789 324 LINE",
"396 324 LINE",
"806 1452 LINE",
"806 1760 LINE",
"71 1760 LINE",
"71 1436 LINE",
"435 1436 LINE",
"32 320 LINE",
"32 0 LINE"
);
}
);
width = 840;
}
);
unicode = 005A;
userData = {
com.typemytype.robofont.layerData = {
};
};
},
{
glyphname = a;
layers = (
{
anchors = (
{
name = bottom;
position = "{494, 0}";
},
{
name = ogonek;
position = "{755, 0}";
},
{
name = top;
position = "{503, 1516}";
},
{
name = top_case;
position = "{503, 1500}";
}
);
background = {
anchors = (
{
name = bottom;
position = "{494, 0}";
},
{
name = ogonek;
position = "{755, 0}";
},
{
name = top;
position = "{503, 1500}";
}
);
paths = (
{
closed = 1;
nodes = (
"448 -16 OFFCURVE",
"533 53 OFFCURVE",
"568 178 CURVE",
"568 0 LINE",
"924 0 LINE",
"924 1143 LINE SMOOTH",
"924 1387 OFFCURVE",
"743 1516 OFFCURVE",
"503 1516 CURVE SMOOTH",
"197 1516 OFFCURVE",
"63 1403 OFFCURVE",
"63 1105 CURVE SMOOTH",
"63 1084 OFFCURVE",
"63 1067 OFFCURVE",
"64 1056 CURVE",
"412 1056 LINE",
"412 1146 LINE SMOOTH",
"412 1201 OFFCURVE",
"433 1243 OFFCURVE",
"498 1239 CURVE SMOOTH",
"543 1236 OFFCURVE",
"563 1213 OFFCURVE",
"563 1123 CURVE SMOOTH",
"563 1102 OFFCURVE",
"563 998 OFFCURVE",
"563 972 CURVE SMOOTH",
"563 969 LINE",
"227 854 OFFCURVE",
"41 839 OFFCURVE",
"41 430 CURVE SMOOTH",
"41 174 OFFCURVE",
"95 -16 OFFCURVE",
"345 -16 CURVE SMOOTH"
);
},
{
closed = 1;
nodes = (
"433 262 OFFCURVE",
"406 306 OFFCURVE",
"406 395 CURVE SMOOTH",
"406 588 LINE SMOOTH",
"406 705 OFFCURVE",
"463 757 OFFCURVE",
"562 797 CURVE",
"562 379 LINE SMOOTH",
"562 322 OFFCURVE",
"544 262 OFFCURVE",
"486 262 CURVE SMOOTH"
);
}
);
};
layerId = "6CD1E358-6E98-409F-9A1F-EA9DE4C1A8AA";
paths = (
{
closed = 1;
nodes = (
"448 -16 OFFCURVE",
"533 53 OFFCURVE",
"568 178 CURVE",
"568 0 LINE",
"924 0 LINE",
"924 1143 LINE SMOOTH",
"924 1387 OFFCURVE",
"743 1516 OFFCURVE",
"503 1516 CURVE SMOOTH",
"197 1516 OFFCURVE",
"63 1403 OFFCURVE",
"63 1105 CURVE SMOOTH",
"63 1084 OFFCURVE",
"63 1067 OFFCURVE",
"64 1056 CURVE",
"412 1056 LINE",
"412 1146 LINE SMOOTH",
"412 1278 OFFCURVE",
"563 1284 OFFCURVE",
"563 1123 CURVE SMOOTH",
"563 1102 OFFCURVE",
"563 998 OFFCURVE",
"563 972 CURVE SMOOTH",
"563 969 LINE",
"227 854 OFFCURVE",
"41 839 OFFCURVE",
"41 430 CURVE SMOOTH",
"41 174 OFFCURVE",
"95 -16 OFFCURVE",
"345 -16 CURVE SMOOTH"
);
},
{
closed = 1;
nodes = (
"433 262 OFFCURVE",
"406 306 OFFCURVE",
"406 395 CURVE SMOOTH",
"406 588 LINE SMOOTH",
"406 705 OFFCURVE",
"463 757 OFFCURVE",
"562 797 CURVE",
"562 379 LINE SMOOTH",
"562 322 OFFCURVE",
"544 262 OFFCURVE",
"486 262 CURVE SMOOTH"
);
}
);
width = 990;
}
);
unicode = 0061;
userData = {
com.typemytype.robofont.layerData = {
};
};
},
{
glyphname = ae;
layers = (
{
anchors = (
{
name = top;
position = "{769, 1500}";
}
);
background = {
anchors = (
{
name = top;
position = "{769, 1500}";
}
);
paths = (
{
closed = 1;
nodes = (
"598 -18 OFFCURVE",
"702 51 OFFCURVE",
"748 148 CURVE",
"789 53 OFFCURVE",
"896 -18 OFFCURVE",
"1036 -18 CURVE SMOOTH",
"1358 -18 OFFCURVE",
"1446 172 OFFCURVE",
"1446 494 CURVE SMOOTH",
"1446 579 LINE",
"1090 579 LINE",
"1091 574 OFFCURVE",
"1092 542 OFFCURVE",
"1092 483 CURVE SMOOTH",
"1092 394 OFFCURVE",
"1094 260 OFFCURVE",
"1008 260 CURVE SMOOTH",
"950 260 OFFCURVE",
"921 338 OFFCURVE",
"921 494 CURVE SMOOTH",
"921 704 LINE",
"1442 704 LINE",
"1445 755 OFFCURVE",
"1446 848 OFFCURVE",
"1446 983 CURVE SMOOTH",
"1446 1092 LINE SMOOTH",
"1446 1376 OFFCURVE",
"1302 1518 OFFCURVE",
"1014 1518 CURVE SMOOTH",
"889 1518 OFFCURVE",
"800 1477 OFFCURVE",
"747 1396 CURVE",
"692 1477 OFFCURVE",
"610 1518 OFFCURVE",
"501 1518 CURVE SMOOTH",
"195 1518 OFFCURVE",
"60 1403 OFFCURVE",
"60 1105 CURVE SMOOTH",
"60 1084 OFFCURVE",
"60 1067 OFFCURVE",
"61 1056 CURVE",
"409 1056 LINE",
"409 1157 LINE SMOOTH",
"409 1212 OFFCURVE",
"434 1239 OFFCURVE",
"483 1239 CURVE SMOOTH",
"578 1239 OFFCURVE",
"560 1079 OFFCURVE",
"560 983 CURVE SMOOTH",
"560 980 LINE",
"224 865 OFFCURVE",
"38 839 OFFCURVE",
"38 430 CURVE SMOOTH",
"38 154 OFFCURVE",
"182 -18 OFFCURVE",
"449 -18 CURVE SMOOTH"
);
},
{
closed = 1;
nodes = (
"430 262 OFFCURVE",
"403 306 OFFCURVE",
"403 395 CURVE SMOOTH",
"403 570 LINE SMOOTH",
"403 687 OFFCURVE",
"460 734 OFFCURVE",
"559 774 CURVE",
"559 379 LINE SMOOTH",
"559 322 OFFCURVE",
"541 262 OFFCURVE",
"483 262 CURVE SMOOTH"
);
},
{
closed = 1;
nodes = (
"921 1052 LINE SMOOTH",
"921 1167 OFFCURVE",
"921 1249 OFFCURVE",
"1010 1249 CURVE SMOOTH",
"1063 1249 OFFCURVE",
"1090 1195 OFFCURVE",
"1090 1087 CURVE SMOOTH",
"1090 931 LINE",
"921 931 LINE"
);
}
);
};
layerId = "6CD1E358-6E98-409F-9A1F-EA9DE4C1A8AA";
paths = (
{
closed = 1;
nodes = (
"598 -18 OFFCURVE",
"702 51 OFFCURVE",
"748 148 CURVE",
"789 53 OFFCURVE",
"896 -18 OFFCURVE",
"1036 -18 CURVE SMOOTH",
"1358 -18 OFFCURVE",
"1446 172 OFFCURVE",
"1446 494 CURVE SMOOTH",
"1446 579 LINE",
"1090 579 LINE",
"1091 574 OFFCURVE",
"1092 542 OFFCURVE",
"1092 483 CURVE SMOOTH",
"1092 394 OFFCURVE",
"1094 260 OFFCURVE",
"1008 260 CURVE SMOOTH",
"950 260 OFFCURVE",
"921 338 OFFCURVE",
"921 494 CURVE SMOOTH",
"921 704 LINE",
"1442 704 LINE",
"1445 755 OFFCURVE",
"1446 848 OFFCURVE",
"1446 983 CURVE SMOOTH",
"1446 1092 LINE SMOOTH",
"1446 1376 OFFCURVE",
"1302 1518 OFFCURVE",
"1014 1518 CURVE SMOOTH",
"889 1518 OFFCURVE",
"800 1477 OFFCURVE",
"747 1396 CURVE",
"692 1477 OFFCURVE",
"610 1518 OFFCURVE",
"501 1518 CURVE SMOOTH",
"195 1518 OFFCURVE",
"60 1403 OFFCURVE",
"60 1105 CURVE SMOOTH",
"60 1084 OFFCURVE",
"60 1067 OFFCURVE",
"61 1056 CURVE",
"409 1056 LINE",
"409 1157 LINE SMOOTH",
"409 1212 OFFCURVE",
"434 1239 OFFCURVE",
"483 1239 CURVE SMOOTH",
"578 1239 OFFCURVE",
"560 1079 OFFCURVE",
"560 983 CURVE SMOOTH",
"560 980 LINE",
"224 865 OFFCURVE",
"38 839 OFFCURVE",
"38 430 CURVE SMOOTH",
"38 154 OFFCURVE",
"182 -18 OFFCURVE",
"449 -18 CURVE SMOOTH"
);
},
{
closed = 1;
nodes = (
"430 262 OFFCURVE",
"403 306 OFFCURVE",
"403 395 CURVE SMOOTH",
"403 570 LINE SMOOTH",
"403 687 OFFCURVE",
"460 734 OFFCURVE",
"559 774 CURVE",
"559 379 LINE SMOOTH",
"559 322 OFFCURVE",
"541 262 OFFCURVE",
"483 262 CURVE SMOOTH"
);
},
{
closed = 1;
nodes = (
"921 1052 LINE SMOOTH",
"921 1167 OFFCURVE",
"921 1249 OFFCURVE",
"1010 1249 CURVE SMOOTH",
"1063 1249 OFFCURVE",
"1090 1195 OFFCURVE",
"1090 1087 CURVE SMOOTH",
"1090 931 LINE",
"921 931 LINE"
);
}
);
width = 1497;
}
);
unicode = 00E6;
userData = {
com.typemytype.robofont.layerData = {
};
};
},
{
glyphname = b;
layers = (
{
anchors = (
{
name = top;
position = "{256, 1770}";
}
);
background = {
anchors = (
{
name = top;
position = "{256, 1770}";
}
);
paths = (
{
closed = 1;
nodes = (
"875 -16 OFFCURVE",
"967 160 OFFCURVE",
"967 391 CURVE SMOOTH",
"967 1114 LINE SMOOTH",
"967 1360 OFFCURVE",
"884 1516 OFFCURVE",
"640 1516 CURVE SMOOTH",
"567 1516 OFFCURVE",
"500 1488 OFFCURVE",
"440 1427 CURVE",
"440 1770 LINE",
"72 1770 LINE",
"72 0 LINE",
"440 0 LINE",
"440 160 LINE",
"484 41 OFFCURVE",
"554 -16 OFFCURVE",
"651 -16 CURVE SMOOTH"
);
},
{
closed = 1;
nodes = (
"447 263 OFFCURVE",
"440 349 OFFCURVE",
"440 457 CURVE SMOOTH",
"440 1085 LINE SMOOTH",
"440 1175 OFFCURVE",
"456 1239 OFFCURVE",
"528 1239 CURVE SMOOTH",
"598 1239 OFFCURVE",
"604 1171 OFFCURVE",
"604 1081 CURVE SMOOTH",
"604 457 LINE SMOOTH",
"604 347 OFFCURVE",
"609 263 OFFCURVE",
"530 263 CURVE SMOOTH"
);
}
);
};
layerId = "6CD1E358-6E98-409F-9A1F-EA9DE4C1A8AA";
paths = (
{
closed = 1;
nodes = (
"875 -16 OFFCURVE",
"967 160 OFFCURVE",
"967 391 CURVE SMOOTH",
"967 1114 LINE SMOOTH",
"967 1360 OFFCURVE",
"884 1516 OFFCURVE",
"640 1516 CURVE SMOOTH",
"567 1516 OFFCURVE",
"500 1488 OFFCURVE",
"440 1427 CURVE",
"440 1770 LINE",
"72 1770 LINE",
"72 0 LINE",
"440 0 LINE",
"440 160 LINE",
"484 41 OFFCURVE",
"554 -16 OFFCURVE",
"651 -16 CURVE SMOOTH"
);
},
{
closed = 1;
nodes = (
"447 263 OFFCURVE",
"440 349 OFFCURVE",
"440 457 CURVE SMOOTH",
"440 1085 LINE SMOOTH",
"440 1175 OFFCURVE",
"456 1239 OFFCURVE",
"528 1239 CURVE SMOOTH",
"598 1239 OFFCURVE",
"604 1171 OFFCURVE",
"604 1081 CURVE SMOOTH",
"604 457 LINE SMOOTH",
"604 347 OFFCURVE",
"609 263 OFFCURVE",
"530 263 CURVE SMOOTH"
);
}
);
width = 1027;
}
);
unicode = 0062;
userData = {
com.typemytype.robofont.layerData = {
};
};
},
{
glyphname = c;
layers = (
{
anchors = (
{
name = bot;
position = "{514, 0}";
},
{
name = top;
position = "{515, 1500}";
}
);
background = {
anchors = (
{
name = bot;
position = "{514, 0}";
},
{
name = top;
position = "{515, 1500}";
}
);
paths = (
{
closed = 1;
nodes = (
"773 -16 OFFCURVE",
"953 130 OFFCURVE",
"953 379 CURVE SMOOTH",
"953 641 LINE",
"588 641 LINE",
"590 389 LINE SMOOTH",
"591 322 OFFCURVE",
"568 264 OFFCURVE",
"506 264 CURVE SMOOTH",
"445 264 OFFCURVE",
"420 326 OFFCURVE",
"420 387 CURVE SMOOTH",
"420 1114 LINE SMOOTH",
"420 1197 OFFCURVE",
"449 1239 OFFCURVE",
"508 1239 CURVE SMOOTH",
"575 1239 OFFCURVE",
"588 1185 OFFCURVE",
"588 1116 CURVE SMOOTH",
"588 906 LINE",
"953 906 LINE",
"953 1135 LINE SMOOTH",
"953 1380 OFFCURVE",
"766 1516 OFFCURVE",
"518 1516 CURVE SMOOTH",
"161 1516 OFFCURVE",
"60 1330 OFFCURVE",
"60 954 CURVE SMOOTH",
"60 492 LINE SMOOTH",
"60 158 OFFCURVE",
"187 -16 OFFCURVE",
"523 -16 CURVE SMOOTH"
);
}
);
};
layerId = "6CD1E358-6E98-409F-9A1F-EA9DE4C1A8AA";
paths = (
{
closed = 1;
nodes = (
"773 -16 OFFCURVE",
"953 130 OFFCURVE",
"953 379 CURVE SMOOTH",
"953 641 LINE",
"588 641 LINE",
"590 389 LINE SMOOTH",
"591 322 OFFCURVE",
"568 264 OFFCURVE",
"506 264 CURVE SMOOTH",
"445 264 OFFCURVE",
"420 326 OFFCURVE",
"420 387 CURVE SMOOTH",
"420 1114 LINE SMOOTH",
"420 1197 OFFCURVE",
"449 1239 OFFCURVE",
"508 1239 CURVE SMOOTH",
"575 1239 OFFCURVE",
"588 1185 OFFCURVE",
"588 1116 CURVE SMOOTH",
"588 906 LINE",
"953 906 LINE",
"953 1135 LINE SMOOTH",
"953 1380 OFFCURVE",
"766 1516 OFFCURVE",
"518 1516 CURVE SMOOTH",
"161 1516 OFFCURVE",
"60 1330 OFFCURVE",
"60 954 CURVE SMOOTH",
"60 492 LINE SMOOTH",
"60 158 OFFCURVE",
"187 -16 OFFCURVE",
"523 -16 CURVE SMOOTH"
);
}
);
width = 1006;
}
);
unicode = 0063;
userData = {
com.typemytype.robofont.layerData = {
};
};
},
{
glyphname = d;
layers = (
{
anchors = (
{
name = caron.alt;
position = "{770, 1500}";
},
{
name = mid;
position = "{767, 1629}";
},
{
name = top;
position = "{769, 1770}";
}
);
background = {
anchors = (
{
name = caron.alt;
position = "{770, 1500}";
},
{
name = mid;
position = "{767, 1629}";
},
{
name = top;
position = "{769, 1770}";
}
);
paths = (
{
closed = 1;
nodes = (
"492 -16 OFFCURVE",
"550 51 OFFCURVE",
"590 159 CURVE",
"590 0 LINE",
"948 0 LINE",
"948 1770 LINE",
"590 1770 LINE",
"590 1419 LINE",
"541 1485 OFFCURVE",
"468 1516 OFFCURVE",
"373 1516 CURVE SMOOTH",
"168 1516 OFFCURVE",
"64 1357 OFFCURVE",
"64 1153 CURVE SMOOTH",
"60 477 LINE SMOOTH",
"60 201 OFFCURVE",
"90 -16 OFFCURVE",
"367 -16 CURVE SMOOTH"
);
},
{
closed = 1;
nodes = (
"447 264 OFFCURVE",
"418 327 OFFCURVE",
"418 452 CURVE SMOOTH",
"418 1083 LINE SMOOTH",
"418 1160 OFFCURVE",
"429 1239 OFFCURVE",
"506 1239 CURVE SMOOTH",
"576 1239 OFFCURVE",
"590 1153 OFFCURVE",
"590 1083 CURVE SMOOTH",
"590 520 LINE SMOOTH",
"590 422 OFFCURVE",
"602 264 OFFCURVE",
"504 264 CURVE SMOOTH"
);
}
);
};
layerId = "6CD1E358-6E98-409F-9A1F-EA9DE4C1A8AA";
paths = (
{
closed = 1;
nodes = (
"492 -16 OFFCURVE",
"550 51 OFFCURVE",
"590 159 CURVE",
"590 0 LINE",
"948 0 LINE",
"948 1770 LINE",
"590 1770 LINE",
"590 1419 LINE",
"541 1485 OFFCURVE",
"468 1516 OFFCURVE",
"373 1516 CURVE SMOOTH",
"168 1516 OFFCURVE",
"64 1357 OFFCURVE",
"64 1153 CURVE SMOOTH",
"60 477 LINE SMOOTH",
"60 201 OFFCURVE",
"90 -16 OFFCURVE",
"367 -16 CURVE SMOOTH"
);
},
{
closed = 1;
nodes = (
"447 264 OFFCURVE",
"418 327 OFFCURVE",
"418 452 CURVE SMOOTH",
"418 1083 LINE SMOOTH",
"418 1160 OFFCURVE",
"429 1239 OFFCURVE",
"506 1239 CURVE SMOOTH",
"576 1239 OFFCURVE",
"590 1153 OFFCURVE",
"590 1083 CURVE SMOOTH",
"590 520 LINE SMOOTH",
"590 422 OFFCURVE",
"602 264 OFFCURVE",
"504 264 CURVE SMOOTH"
);
}
);
width = 1020;
}
);
unicode = 0064;
userData = {
com.typemytype.robofont.layerData = {
};
};
},
{
glyphname = eth;
layers = (
{
background = {
paths = (
{
closed = 1;
nodes = (
"875 -16 OFFCURVE",
"990 161 OFFCURVE",
"990 538 CURVE SMOOTH",
"990 799 LINE SMOOTH",
"990 1022.62 OFFCURVE",
"915.596 1225.94 OFFCURVE",
"798.757 1388.57 CURVE",
"1015 1529 LINE",
"911 1690 LINE",
"671.509 1534.47 LINE",
"528.689 1669.82 OFFCURVE",
"353.157 1756.7 OFFCURVE",
"178 1774 CURVE",
"84 1546 LINE",
"187.169 1523.89 OFFCURVE",
"305.399 1456.39 OFFCURVE",
"406.156 1362.15 CURVE",
"235 1251 LINE",
"339 1090 LINE",
"532.02 1215.35 LINE",
"586.775 1134.06 OFFCURVE",
"625.261 1043.75 OFFCURVE",
"636 951 CURVE",
"598 975 OFFCURVE",
"517 992 OFFCURVE",
"464 992 CURVE SMOOTH",
"173 992 OFFCURVE",
"49 826 OFFCURVE",
"49 509 CURVE SMOOTH",
"49 157 OFFCURVE",
"164 -16 OFFCURVE",
"508 -16 CURVE SMOOTH"
);
},
{
closed = 1;
nodes = (
"438 279 OFFCURVE",
"435 364 OFFCURVE",
"435 482 CURVE SMOOTH",
"435 570 LINE SMOOTH",
"435 674 OFFCURVE",
"464 726 OFFCURVE",
"522 726 CURVE SMOOTH",
"589 726 OFFCURVE",
"623 681 OFFCURVE",
"623 591 CURVE SMOOTH",
"623 420 LINE SMOOTH",
"623 326 OFFCURVE",
"592 279 OFFCURVE",
"528 279 CURVE SMOOTH"
);
}
);
};
layerId = "6CD1E358-6E98-409F-9A1F-EA9DE4C1A8AA";
paths = (
{
closed = 1;
nodes = (
"875 -16 OFFCURVE",
"990 161 OFFCURVE",
"990 538 CURVE SMOOTH",
"990 799 LINE SMOOTH",
"990 1022.62 OFFCURVE",
"915.596 1225.94 OFFCURVE",
"798.757 1388.57 CURVE",
"1015 1529 LINE",
"911 1690 LINE",
"671.509 1534.47 LINE",
"528.689 1669.82 OFFCURVE",
"353.157 1756.7 OFFCURVE",
"178 1774 CURVE",
"84 1546 LINE",
"187.169 1523.89 OFFCURVE",
"305.399 1456.39 OFFCURVE",
"406.156 1362.15 CURVE",
"235 1251 LINE",
"339 1090 LINE",
"532.02 1215.35 LINE",
"586.775 1134.06 OFFCURVE",
"625.261 1043.75 OFFCURVE",
"636 951 CURVE",
"598 975 OFFCURVE",
"517 992 OFFCURVE",
"464 992 CURVE SMOOTH",
"173 992 OFFCURVE",
"49 826 OFFCURVE",
"49 509 CURVE SMOOTH",
"49 157 OFFCURVE",
"164 -16 OFFCURVE",
"508 -16 CURVE SMOOTH"
);
},
{
closed = 1;
nodes = (
"438 279 OFFCURVE",
"435 364 OFFCURVE",
"435 482 CURVE SMOOTH",
"435 570 LINE SMOOTH",
"435 674 OFFCURVE",
"464 726 OFFCURVE",
"522 726 CURVE SMOOTH",
"589 726 OFFCURVE",
"623 681 OFFCURVE",
"623 591 CURVE SMOOTH",
"623 420 LINE SMOOTH",
"623 326 OFFCURVE",
"592 279 OFFCURVE",
"528 279 CURVE SMOOTH"
);
}
);
width = 1031;
}
);
unicode = 00F0;
},
{
glyphname = e;
layers = (
{
anchors = (
{
name = bottom;
position = "{495, 0}";
},
{
name = ogonek;
position = "{518, 0}";
},
{
name = top;
position = "{510, 1516}";
},
{
name = top_case;
position = "{510, 1500}";
}
);
background = {
anchors = (
{
name = bottom;
position = "{495, 0}";
},
{
name = ogonek;
position = "{518, 0}";
},
{
name = top;
position = "{513, 1517}";
}
);
paths = (
{
closed = 1;
nodes = (
"832 -16 OFFCURVE",
"942 157 OFFCURVE",
"942 494 CURVE SMOOTH",
"942 579 LINE",
"586 579 LINE",
"586 435 LINE SMOOTH",
"586 350 OFFCURVE",
"590 260 OFFCURVE",
"504 260 CURVE SMOOTH",
"424 260 OFFCURVE",
"418 346 OFFCURVE",
"418 427 CURVE SMOOTH",
"418 717 LINE",
"938 717 LINE",
"941 768 OFFCURVE",
"942 848 OFFCURVE",
"942 983 CURVE SMOOTH",
"942 1092 LINE SMOOTH",
"942 1376 OFFCURVE",
"798 1516 OFFCURVE",
"510 1516 CURVE SMOOTH",
"230 1516 OFFCURVE",
"60 1371 OFFCURVE",
"60 1092 CURVE SMOOTH",
"60 489 LINE SMOOTH",
"60 170 OFFCURVE",
"171 -16 OFFCURVE",
"492 -16 CURVE SMOOTH"
);
},
{
closed = 1;
nodes = (
"416 1087 LINE SMOOTH",
"416 1199 OFFCURVE",
"449 1249 OFFCURVE",
"506 1249 CURVE SMOOTH",
"559 1249 OFFCURVE",
"586 1195 OFFCURVE",
"586 1087 CURVE SMOOTH",
"586 895 LINE",
"416 895 LINE"
);
}
);
};
layerId = "6CD1E358-6E98-409F-9A1F-EA9DE4C1A8AA";
paths = (
{
closed = 1;
nodes = (
"832 -16 OFFCURVE",
"942 157 OFFCURVE",
"942 494 CURVE SMOOTH",
"942 579 LINE",
"586 579 LINE",
"586 435 LINE SMOOTH",
"586 350 OFFCURVE",
"590 260 OFFCURVE",
"504 260 CURVE SMOOTH",
"424 260 OFFCURVE",
"418 346 OFFCURVE",
"418 427 CURVE SMOOTH",
"418 717 LINE",
"938 717 LINE",
"941 768 OFFCURVE",
"942 848 OFFCURVE",
"942 983 CURVE SMOOTH",
"942 1092 LINE SMOOTH",
"942 1376 OFFCURVE",
"798 1516 OFFCURVE",
"510 1516 CURVE SMOOTH",
"230 1516 OFFCURVE",
"60 1371 OFFCURVE",
"60 1092 CURVE SMOOTH",
"60 489 LINE SMOOTH",
"60 170 OFFCURVE",
"171 -16 OFFCURVE",
"492 -16 CURVE SMOOTH"
);
},
{
closed = 1;
nodes = (
"416 1087 LINE SMOOTH",
"416 1199 OFFCURVE",
"449 1249 OFFCURVE",
"506 1249 CURVE SMOOTH",
"559 1249 OFFCURVE",
"586 1195 OFFCURVE",
"586 1087 CURVE SMOOTH",
"586 895 LINE",
"416 895 LINE"
);
}
);
width = 1000;
}
);
unicode = 0065;
userData = {
com.typemytype.robofont.layerData = {
};
};
},
{
glyphname = schwa;
layers = (
{
background = {
paths = (
{
closed = 1;
nodes = (
"770 -16 OFFCURVE",
"940 129 OFFCURVE",
"940 408 CURVE SMOOTH",
"940 1011 LINE SMOOTH",
"940 1330 OFFCURVE",
"829 1516 OFFCURVE",
"508 1516 CURVE SMOOTH",
"168 1516 OFFCURVE",
"58 1343 OFFCURVE",
"58 1006 CURVE SMOOTH",
"58 921 LINE",
"414 921 LINE",
"414 1065 LINE SMOOTH",
"414 1150 OFFCURVE",
"410 1240 OFFCURVE",
"496 1240 CURVE SMOOTH",
"576 1240 OFFCURVE",
"582 1154 OFFCURVE",
"582 1073 CURVE SMOOTH",
"582 783 LINE",
"62 783 LINE",
"59 732 OFFCURVE",
"58 652 OFFCURVE",
"58 517 CURVE SMOOTH",
"58 408 LINE SMOOTH",
"58 124 OFFCURVE",
"202 -16 OFFCURVE",
"490 -16 CURVE SMOOTH"
);
},
{
closed = 1;
nodes = (
"441 251 OFFCURVE",
"414 305 OFFCURVE",
"414 413 CURVE SMOOTH",
"414 605 LINE",
"584 605 LINE",
"584 413 LINE SMOOTH",
"584 301 OFFCURVE",
"551 251 OFFCURVE",
"494 251 CURVE SMOOTH"
);
}
);
};
layerId = "6CD1E358-6E98-409F-9A1F-EA9DE4C1A8AA";
paths = (
{
closed = 1;
nodes = (
"770 -16 OFFCURVE",
"940 129 OFFCURVE",
"940 408 CURVE SMOOTH",
"940 1011 LINE SMOOTH",
"940 1330 OFFCURVE",
"829 1516 OFFCURVE",
"508 1516 CURVE SMOOTH",
"168 1516 OFFCURVE",
"58 1343 OFFCURVE",
"58 1006 CURVE SMOOTH",
"58 921 LINE",
"414 921 LINE",
"414 1065 LINE SMOOTH",
"414 1150 OFFCURVE",
"410 1240 OFFCURVE",
"496 1240 CURVE SMOOTH",
"576 1240 OFFCURVE",
"582 1154 OFFCURVE",
"582 1073 CURVE SMOOTH",
"582 783 LINE",
"62 783 LINE",
"59 732 OFFCURVE",
"58 652 OFFCURVE",
"58 517 CURVE SMOOTH",
"58 408 LINE SMOOTH",
"58 124 OFFCURVE",
"202 -16 OFFCURVE",
"490 -16 CURVE SMOOTH"
);
},
{
closed = 1;
nodes = (
"441 251 OFFCURVE",
"414 305 OFFCURVE",
"414 413 CURVE SMOOTH",
"414 605 LINE",
"584 605 LINE",
"584 413 LINE SMOOTH",
"584 301 OFFCURVE",
"551 251 OFFCURVE",
"494 251 CURVE SMOOTH"
);
}
);
width = 1000;
}
);
unicode = 0259;
},
{
glyphname = f;
layers = (
{
anchors = (
{
name = top;
position = "{321, 1760}";
}
);
background = {
anchors = (
{
name = top;
position = "{321, 1760}";
}
);
paths = (
{
closed = 1;
nodes = (
"460 0 LINE",
"460 1157 LINE",
"531 1157 LINE",
"531 1434 LINE",
"453 1434 LINE",
"453 1453 LINE SMOOTH",
"453 1500 OFFCURVE",
"456 1533 OFFCURVE",
"498 1533 CURVE SMOOTH",
"505 1533 OFFCURVE",
"516 1531 OFFCURVE",
"531 1528 CURVE",
"531 1749 LINE",
"485 1768 OFFCURVE",
"424 1778 OFFCURVE",
"347 1778 CURVE SMOOTH",
"186 1778 OFFCURVE",
"105 1697 OFFCURVE",
"105 1536 CURVE SMOOTH",
"105 1434 LINE",
"44 1434 LINE",
"41 1283 OFFCURVE",
"40 1192 OFFCURVE",
"40 1161 CURVE",
"105 1161 LINE",
"105 0 LINE"
);
}
);
};
layerId = "6CD1E358-6E98-409F-9A1F-EA9DE4C1A8AA";
paths = (
{
closed = 1;
nodes = (
"460 0 LINE",
"460 1157 LINE",
"531 1157 LINE",
"531 1434 LINE",
"453 1434 LINE",
"453 1453 LINE SMOOTH",
"453 1500 OFFCURVE",
"456 1533 OFFCURVE",
"498 1533 CURVE SMOOTH",
"505 1533 OFFCURVE",
"516 1531 OFFCURVE",
"531 1528 CURVE",
"531 1749 LINE",
"485 1768 OFFCURVE",
"424 1778 OFFCURVE",
"347 1778 CURVE SMOOTH",
"186 1778 OFFCURVE",
"105 1697 OFFCURVE",
"105 1536 CURVE SMOOTH",
"105 1434 LINE",
"44 1434 LINE",
"41 1283 OFFCURVE",
"40 1192 OFFCURVE",
"40 1161 CURVE",
"105 1161 LINE",
"105 0 LINE"
);
}
);
width = 574;
}
);
unicode = 0066;
userData = {
com.typemytype.robofont.layerData = {
};
};
},
{
glyphname = g;
layers = (
{
anchors = (
{
name = top;
position = "{509, 1500}";
}
);
background = {
anchors = (
{
name = top;
position = "{509, 1500}";
}
);
paths = (
{
closed = 1;
nodes = (
"813 -220 OFFCURVE",
"964 -86 OFFCURVE",
"964 254 CURVE SMOOTH",
"964 1500 LINE",
"599 1500 LINE",
"599 1331 LINE",
"574 1444 OFFCURVE",
"502 1516 OFFCURVE",
"370 1516 CURVE SMOOTH",
"135 1516 OFFCURVE",
"71 1348 OFFCURVE",
"71 1106 CURVE SMOOTH",
"71 543 LINE SMOOTH",
"71 328 OFFCURVE",
"155 160 OFFCURVE",
"370 160 CURVE SMOOTH",
"493 160 OFFCURVE",
"570 211 OFFCURVE",
"599 314 CURVE",
"599 231 LINE SMOOTH",
"599 113 OFFCURVE",
"544 33 OFFCURVE",
"429 33 CURVE SMOOTH",
"342 33 OFFCURVE",
"254 59 OFFCURVE",
"167 111 CURVE",
"46 -96 LINE",
"163 -194 OFFCURVE",
"268 -220 OFFCURVE",
"476 -220 CURVE SMOOTH"
);
},
{
closed = 1;
nodes = (
"441 430 OFFCURVE",
"433 510 OFFCURVE",
"433 582 CURVE SMOOTH",
"433 1116 LINE SMOOTH",
"433 1183 OFFCURVE",
"442 1243 OFFCURVE",
"511 1243 CURVE SMOOTH",
"566 1243 OFFCURVE",
"599 1171 OFFCURVE",
"599 1116 CURVE SMOOTH",
"599 582 LINE SMOOTH",
"599 481 OFFCURVE",
"571 430 OFFCURVE",
"515 430 CURVE SMOOTH"
);
}
);
};
layerId = "6CD1E358-6E98-409F-9A1F-EA9DE4C1A8AA";
paths = (
{
closed = 1;
nodes = (
"813 -220 OFFCURVE",
"964 -86 OFFCURVE",
"964 254 CURVE SMOOTH",
"964 1500 LINE",
"599 1500 LINE",
"599 1331 LINE",
"574 1444 OFFCURVE",
"502 1516 OFFCURVE",
"370 1516 CURVE SMOOTH",
"135 1516 OFFCURVE",
"71 1348 OFFCURVE",
"71 1106 CURVE SMOOTH",
"71 543 LINE SMOOTH",
"71 328 OFFCURVE",
"155 160 OFFCURVE",
"370 160 CURVE SMOOTH",
"493 160 OFFCURVE",
"570 211 OFFCURVE",
"599 314 CURVE",
"599 231 LINE SMOOTH",
"599 113 OFFCURVE",
"544 33 OFFCURVE",
"429 33 CURVE SMOOTH",
"342 33 OFFCURVE",
"254 59 OFFCURVE",
"167 111 CURVE",
"46 -96 LINE",
"163 -194 OFFCURVE",
"268 -220 OFFCURVE",
"476 -220 CURVE SMOOTH"
);
},
{
closed = 1;
nodes = (
"441 430 OFFCURVE",
"433 510 OFFCURVE",
"433 582 CURVE SMOOTH",
"433 1116 LINE SMOOTH",
"433 1183 OFFCURVE",
"442 1243 OFFCURVE",
"511 1243 CURVE SMOOTH",
"566 1243 OFFCURVE",
"599 1171 OFFCURVE",
"599 1116 CURVE SMOOTH",
"599 582 LINE SMOOTH",
"599 481 OFFCURVE",
"571 430 OFFCURVE",
"515 430 CURVE SMOOTH"
);
}
);
width = 1032;
}
);
unicode = 0067;
userData = {
com.typemytype.robofont.layerData = {
};
};
},
{
glyphname = h;
layers = (
{
anchors = (
{
name = mid;
position = "{250, 1603}";
},
{
name = top;
position = "{256, 1770}";
}
);
background = {
anchors = (
{
name = mid;
position = "{250, 1603}";
},
{
name = top;
position = "{256, 1770}";
}
);
paths = (
{
closed = 1;
nodes = (
"440 0 LINE",
"440 1135 LINE SMOOTH",
"440 1194 OFFCURVE",
"471 1243 OFFCURVE",
"520 1243 CURVE SMOOTH",
"579 1243 OFFCURVE",
"609 1197 OFFCURVE",
"609 1132 CURVE",
"608 0 LINE",
"967 0 LINE",
"967 1155 LINE SMOOTH",
"967 1375 OFFCURVE",
"867 1516 OFFCURVE",
"659 1516 CURVE SMOOTH",
"552 1516 OFFCURVE",
"479 1463 OFFCURVE",
"440 1351 CURVE",
"440 1770 LINE",
"72 1770 LINE",
"72 0 LINE"
);
}
);
};
layerId = "6CD1E358-6E98-409F-9A1F-EA9DE4C1A8AA";
paths = (
{
closed = 1;
nodes = (
"440 0 LINE",
"440 1135 LINE SMOOTH",
"440 1194 OFFCURVE",
"471 1243 OFFCURVE",
"520 1243 CURVE SMOOTH",
"579 1243 OFFCURVE",
"609 1197 OFFCURVE",
"609 1132 CURVE",
"608 0 LINE",
"967 0 LINE",
"967 1155 LINE SMOOTH",
"967 1375 OFFCURVE",
"867 1516 OFFCURVE",
"659 1516 CURVE SMOOTH",
"552 1516 OFFCURVE",
"479 1463 OFFCURVE",
"440 1351 CURVE",
"440 1770 LINE",
"72 1770 LINE",
"72 0 LINE"
);
}
);
width = 1035;
}
);
unicode = 0068;
userData = {
com.typemytype.robofont.layerData = {
};
};
},
{
glyphname = i;
layers = (
{
anchors = (
{
name = bottom;
position = "{249, 0}";
},
{
name = ogonek;
position = "{340, 0}";
}
);
background = {
anchors = (
{
name = bottom;
position = "{249, 0}";
},
{
name = ogonek;
position = "{340, 0}";
}
);
paths = (
{
closed = 1;
nodes = (
"428 0 LINE",
"428 1500 LINE",
"70 1500 LINE",
"70 0 LINE"
);
},
{
closed = 1;
nodes = (
"428 1600 LINE",
"428 1850 LINE",
"70 1850 LINE",
"70 1600 LINE"
);
}
);
};
layerId = "6CD1E358-6E98-409F-9A1F-EA9DE4C1A8AA";
paths = (
{
closed = 1;
nodes = (
"428 0 LINE",
"428 1500 LINE",
"70 1500 LINE",
"70 0 LINE"
);
},
{
closed = 1;
nodes = (
"428 1600 LINE",
"428 1850 LINE",
"70 1850 LINE",
"70 1600 LINE"
);
}
);
width = 498;
}
);
unicode = 0069;
userData = {
com.typemytype.robofont.layerData = {
};
};
},
{
glyphname = idotless;
layers = (
{
anchors = (
{
name = ogonek;
position = "{260, 0}";
},
{
name = top;
position = "{241, 1500}";
}
);
background = {
anchors = (
{
name = ogonek;
position = "{260, 0}";
},
{
name = top;
position = "{241, 1500}";
}
);
paths = (
{
closed = 1;
nodes = (
"420 0 LINE",
"420 1500 LINE",
"62 1500 LINE",
"62 0 LINE"
);
}
);
};
layerId = "6CD1E358-6E98-409F-9A1F-EA9DE4C1A8AA";
paths = (
{
closed = 1;
nodes = (
"420 0 LINE",
"420 1500 LINE",
"62 1500 LINE",
"62 0 LINE"
);
}
);
width = 482;
}
);
unicode = 0131;
userData = {
com.typemytype.robofont.layerData = {
};
};
},
{
glyphname = j;
layers = (
{
background = {
paths = (
{
closed = 1;
nodes = (
"392 -176 OFFCURVE",
"468 -47 OFFCURVE",
"468 166 CURVE SMOOTH",
"468 1500 LINE",
"110 1500 LINE",
"110 156 LINE SMOOTH",
"110 115 OFFCURVE",
"105 85 OFFCURVE",
"67 85 CURVE SMOOTH",
"56 85 OFFCURVE",
"45 87 OFFCURVE",
"34 90 CURVE",
"34 -150 LINE",
"59 -167 OFFCURVE",
"109 -176 OFFCURVE",
"186 -176 CURVE SMOOTH"
);
},
{
closed = 1;
nodes = (
"468 1600 LINE",
"468 1850 LINE",
"110 1850 LINE",
"110 1600 LINE"
);
}
);
};
layerId = "6CD1E358-6E98-409F-9A1F-EA9DE4C1A8AA";
paths = (
{
closed = 1;
nodes = (
"392 -176 OFFCURVE",
"468 -47 OFFCURVE",
"468 166 CURVE SMOOTH",
"468 1500 LINE",
"110 1500 LINE",
"110 156 LINE SMOOTH",
"110 115 OFFCURVE",
"105 85 OFFCURVE",
"67 85 CURVE SMOOTH",
"56 85 OFFCURVE",
"45 87 OFFCURVE",
"34 90 CURVE",
"34 -150 LINE",
"59 -167 OFFCURVE",
"109 -176 OFFCURVE",
"186 -176 CURVE SMOOTH"
);
},
{
closed = 1;
nodes = (
"468 1600 LINE",
"468 1850 LINE",
"110 1850 LINE",
"110 1600 LINE"
);
}
);
width = 538;
}
);
unicode = 006A;
userData = {
com.typemytype.robofont.layerData = {
};
};
},
{
glyphname = dotlessj;
layers = (
{
anchors = (
{
name = top;
position = "{297, 1500}";
}
);
background = {
anchors = (
{
name = top;
position = "{297, 1500}";
}
);
paths = (
{
closed = 1;
nodes = (
"392 -176 OFFCURVE",
"468 -47 OFFCURVE",
"468 166 CURVE SMOOTH",
"468 1500 LINE",
"110 1500 LINE",
"110 156 LINE SMOOTH",
"110 115 OFFCURVE",
"105 85 OFFCURVE",
"67 85 CURVE SMOOTH",
"56 85 OFFCURVE",
"45 87 OFFCURVE",
"34 90 CURVE",
"34 -150 LINE",
"59 -167 OFFCURVE",
"109 -176 OFFCURVE",
"186 -176 CURVE SMOOTH"
);
}
);
};
layerId = "6CD1E358-6E98-409F-9A1F-EA9DE4C1A8AA";
paths = (
{
closed = 1;
nodes = (
"392 -176 OFFCURVE",
"468 -47 OFFCURVE",
"468 166 CURVE SMOOTH",
"468 1500 LINE",
"110 1500 LINE",
"110 156 LINE SMOOTH",
"110 115 OFFCURVE",
"105 85 OFFCURVE",
"67 85 CURVE SMOOTH",
"56 85 OFFCURVE",
"45 87 OFFCURVE",
"34 90 CURVE",
"34 -150 LINE",
"59 -167 OFFCURVE",
"109 -176 OFFCURVE",
"186 -176 CURVE SMOOTH"
);
}
);
width = 538;
}
);
unicode = 0237;
},
{
glyphname = k;
layers = (
{
anchors = (
{
name = bot;
position = "{537, 0}";
},
{
name = top;
position = "{249, 1769}";
}
);
background = {
anchors = (
{
name = bot;
position = "{537, 0}";
},
{
name = top;
position = "{249, 1769}";
}
);
paths = (
{
closed = 1;
nodes = (
"426 0 LINE",
"426 707 LINE",
"649 0 LINE",
"1030 0 LINE",
"744 848 LINE",
"969 1500 LINE",
"598 1500 LINE",
"426 983 LINE",
"426 1769 LINE",
"72 1769 LINE",
"72 0 LINE"
);
}
);
};
layerId = "6CD1E358-6E98-409F-9A1F-EA9DE4C1A8AA";
paths = (
{
closed = 1;
nodes = (
"426 0 LINE",
"426 707 LINE",
"649 0 LINE",
"1030 0 LINE",
"744 848 LINE",
"969 1500 LINE",
"598 1500 LINE",
"426 983 LINE",
"426 1769 LINE",
"72 1769 LINE",
"72 0 LINE"
);
}
);
width = 1005;
}
);
unicode = 006B;
userData = {
com.typemytype.robofont.layerData = {
};
};
},
{
glyphname = kgreenlandic;
layers = (
{
background = {
paths = (
{
closed = 1;
nodes = (
"416 0 LINE",
"416 674 LINE",
"639 0 LINE",
"1020 0 LINE",
"734 815 LINE",
"959 1500 LINE",
"588 1500 LINE",
"416 950 LINE",
"416 1500 LINE",
"62 1500 LINE",
"62 0 LINE"
);
}
);
};
layerId = "6CD1E358-6E98-409F-9A1F-EA9DE4C1A8AA";
paths = (
{
closed = 1;
nodes = (
"416 0 LINE",
"416 674 LINE",
"639 0 LINE",
"1020 0 LINE",
"734 815 LINE",
"959 1500 LINE",
"588 1500 LINE",
"416 950 LINE",
"416 1500 LINE",
"62 1500 LINE",
"62 0 LINE"
);
}
);
width = 999;
}
);
unicode = 0138;
userData = {
com.typemytype.robofont.layerData = {
};
};
},
{
glyphname = l;
layers = (
{
anchors = (
{
name = bot;
position = "{288, 0}";
},
{
name = caron.alt;
position = "{254, 1500}";
},
{
name = mid;
position = "{702, 988}";
},
{
name = top;
position = "{254, 1770}";
}
);
background = {
anchors = (
{
name = bot;
position = "{288, 0}";
},
{
name = caron.alt;
position = "{254, 1500}";
},
{
name = mid;
position = "{702, 988}";
},
{
name = top;
position = "{254, 1770}";
}
);
paths = (
{
closed = 1;
nodes = (
"436 0 LINE",
"436 1770 LINE",
"72 1770 LINE",
"72 0 LINE"
);
}
);
};
layerId = "6CD1E358-6E98-409F-9A1F-EA9DE4C1A8AA";
paths = (
{
closed = 1;
nodes = (
"436 0 LINE",
"436 1770 LINE",
"72 1770 LINE",
"72 0 LINE"
);
}
);
width = 508;
}
);
unicode = 006C;
userData = {
com.typemytype.robofont.layerData = {
};
};
},
{
glyphname = lslash;
layers = (
{
background = {
paths = (
{
closed = 1;
nodes = (
"476 0 LINE",
"476 1767 LINE",
"112 1767 LINE",
"112 0 LINE"
);
},
{
closed = 1;
nodes = (
"593 851 LINE",
"593 1143 LINE",
"-3 911 LINE",
"-3 619 LINE"
);
}
);
};
layerId = "6CD1E358-6E98-409F-9A1F-EA9DE4C1A8AA";
paths = (
{
closed = 1;
nodes = (
"476 0 LINE",
"476 1767 LINE",
"112 1767 LINE",
"112 0 LINE"
);
},
{
closed = 1;
nodes = (
"593 851 LINE",
"593 1143 LINE",
"-3 911 LINE",
"-3 619 LINE"
);
}
);
width = 590;
}
);
unicode = 0142;
userData = {
com.typemytype.robofont.layerData = {
};
};
},
{
glyphname = m;
layers = (
{
anchors = (
{
name = top;
position = "{779, 1500}";
}
);
background = {
anchors = (
{
name = top;
position = "{779, 1500}";
}
);
paths = (
{
closed = 1;
nodes = (
"422 0 LINE",
"422 1059 LINE SMOOTH",
"422 1140 OFFCURVE",
"441 1243 OFFCURVE",
"522 1243 CURVE SMOOTH",
"585 1243 OFFCURVE",
"592 1165 OFFCURVE",
"592 1102 CURVE SMOOTH",
"592 0 LINE",
"950 0 LINE",
"950 1077 LINE SMOOTH",
"950 1154 OFFCURVE",
"970 1247 OFFCURVE",
"1047 1247 CURVE SMOOTH",
"1096 1247 OFFCURVE",
"1120 1199 OFFCURVE",
"1120 1102 CURVE SMOOTH",
"1120 0 LINE",
"1481 0 LINE",
"1485 1096 LINE",
"1485 1343 OFFCURVE",
"1421 1516 OFFCURVE",
"1172 1516 CURVE SMOOTH",
"1034 1516 OFFCURVE",
"972 1464 OFFCURVE",
"917 1365 CURVE",
"882 1456 OFFCURVE",
"794 1516 OFFCURVE",
"674 1516 CURVE SMOOTH",
"524 1516 OFFCURVE",
"454 1448 OFFCURVE",
"422 1326 CURVE",
"422 1500 LINE",
"72 1500 LINE",
"72 0 LINE"
);
}
);
};
layerId = "6CD1E358-6E98-409F-9A1F-EA9DE4C1A8AA";
paths = (
{
closed = 1;
nodes = (
"422 0 LINE",
"422 1059 LINE SMOOTH",
"422 1140 OFFCURVE",
"441 1243 OFFCURVE",
"522 1243 CURVE SMOOTH",
"585 1243 OFFCURVE",
"592 1165 OFFCURVE",
"592 1102 CURVE SMOOTH",
"592 0 LINE",
"950 0 LINE",
"950 1077 LINE SMOOTH",
"950 1154 OFFCURVE",
"970 1247 OFFCURVE",
"1047 1247 CURVE SMOOTH",
"1096 1247 OFFCURVE",
"1120 1199 OFFCURVE",
"1120 1102 CURVE SMOOTH",
"1120 0 LINE",
"1481 0 LINE",
"1485 1096 LINE",
"1485 1343 OFFCURVE",
"1421 1516 OFFCURVE",
"1172 1516 CURVE SMOOTH",
"1034 1516 OFFCURVE",
"972 1464 OFFCURVE",
"917 1365 CURVE",
"882 1456 OFFCURVE",
"794 1516 OFFCURVE",
"674 1516 CURVE SMOOTH",
"524 1516 OFFCURVE",
"454 1448 OFFCURVE",
"422 1326 CURVE",
"422 1500 LINE",
"72 1500 LINE",
"72 0 LINE"
);
}
);
width = 1553;
}
);
unicode = 006D;
userData = {
com.typemytype.robofont.layerData = {
};
};
},
{
glyphname = n;
layers = (
{
anchors = (
{
name = bot;
position = "{517, 0}";
},
{
name = top;
position = "{513, 1500}";
}
);
background = {
anchors = (
{
name = bot;
position = "{517, 0}";
},
{
name = top;
position = "{513, 1500}";
}
);
paths = (
{
closed = 1;
nodes = (
"430 0 LINE",
"430 1055 LINE SMOOTH",
"430 1138 OFFCURVE",
"437 1239 OFFCURVE",
"520 1239 CURVE SMOOTH",
"578 1239 OFFCURVE",
"600 1179 OFFCURVE",
"600 1120 CURVE SMOOTH",
"600 0 LINE",
"953 0 LINE",
"953 1157 LINE SMOOTH",
"953 1379 OFFCURVE",
"864 1516 OFFCURVE",
"656 1516 CURVE SMOOTH",
"527 1516 OFFCURVE",
"456 1423 OFFCURVE",
"430 1309 CURVE",
"430 1500 LINE",
"72 1500 LINE",
"72 0 LINE"
);
}
);
};
layerId = "6CD1E358-6E98-409F-9A1F-EA9DE4C1A8AA";
paths = (
{
closed = 1;
nodes = (
"430 0 LINE",
"430 1055 LINE SMOOTH",
"430 1138 OFFCURVE",
"437 1239 OFFCURVE",
"520 1239 CURVE SMOOTH",
"578 1239 OFFCURVE",
"600 1179 OFFCURVE",
"600 1120 CURVE SMOOTH",
"600 0 LINE",
"953 0 LINE",
"953 1157 LINE SMOOTH",
"953 1379 OFFCURVE",
"864 1516 OFFCURVE",
"656 1516 CURVE SMOOTH",
"527 1516 OFFCURVE",
"456 1423 OFFCURVE",
"430 1309 CURVE",
"430 1500 LINE",
"72 1500 LINE",
"72 0 LINE"
);
}
);
width = 1021;
}
);
unicode = 006E;
userData = {
com.typemytype.robofont.layerData = {
};
};
},
{
glyphname = eng;
layers = (
{
background = {
components = (
{
name = n;
}
);
paths = (
{
closed = 1;
nodes = (
"752 -488 OFFCURVE",
"953 -355 OFFCURVE",
"953 -18 CURVE SMOOTH",
"953 182 LINE",
"601 182 LINE",
"601 -41 LINE SMOOTH",
"601 -182 OFFCURVE",
"528 -236 OFFCURVE",
"428 -236 CURVE SMOOTH",
"356 -236 OFFCURVE",
"262 -207 OFFCURVE",
"156 -161 CURVE",
"75 -368 LINE",
"213 -444 OFFCURVE",
"368 -488 OFFCURVE",
"508 -488 CURVE SMOOTH"
);
}
);
};
components = (
{
name = n;
}
);
layerId = "6CD1E358-6E98-409F-9A1F-EA9DE4C1A8AA";
paths = (
{
closed = 1;
nodes = (
"752 -488 OFFCURVE",
"953 -355 OFFCURVE",
"953 -18 CURVE SMOOTH",
"953 182 LINE",
"601 182 LINE",
"601 -41 LINE SMOOTH",
"601 -182 OFFCURVE",
"528 -236 OFFCURVE",
"428 -236 CURVE SMOOTH",
"356 -236 OFFCURVE",
"262 -207 OFFCURVE",
"156 -161 CURVE",
"75 -368 LINE",
"213 -444 OFFCURVE",
"368 -488 OFFCURVE",
"508 -488 CURVE SMOOTH"
);
}
);
width = 1002;
}
);
unicode = 014B;
},
{
glyphname = o;
layers = (
{
anchors = (
{
name = bottom;
position = "{508, 0}";
},
{
name = ogonek;
position = "{731, 100}";
},
{
name = top;
position = "{508, 1516}";
},
{
name = top_case;
position = "{508, 1500}";
},
{
name = top_right;
position = "{508, 1255}";
}
);
background = {
anchors = (
{
name = bottom;
position = "{508, 0}";
},
{
name = ogonek;
position = "{731, 100}";
},
{
name = top;
position = "{509, 1500}";
}
);
paths = (
{
closed = 1;
nodes = (
"809 -16 OFFCURVE",
"957 143 OFFCURVE",
"957 449 CURVE SMOOTH",
"957 1051 LINE SMOOTH",
"957 1334 OFFCURVE",
"789 1516 OFFCURVE",
"508 1516 CURVE SMOOTH",
"228 1516 OFFCURVE",
"60 1333 OFFCURVE",
"60 1051 CURVE SMOOTH",
"60 449 LINE SMOOTH",
"60 138 OFFCURVE",
"209 -16 OFFCURVE",
"508 -16 CURVE SMOOTH"
);
},
{
closed = 1;
nodes = (
"448 260 OFFCURVE",
"424 308 OFFCURVE",
"424 375 CURVE SMOOTH",
"424 1108 LINE SMOOTH",
"424 1195 OFFCURVE",
"452 1239 OFFCURVE",
"508 1239 CURVE SMOOTH",
"564 1239 OFFCURVE",
"592 1195 OFFCURVE",
"592 1108 CURVE SMOOTH",
"592 375 LINE SMOOTH",
"592 308 OFFCURVE",
"568 260 OFFCURVE",
"508 260 CURVE SMOOTH"
);
}
);
};
layerId = "6CD1E358-6E98-409F-9A1F-EA9DE4C1A8AA";
paths = (
{
closed = 1;
nodes = (
"809 -16 OFFCURVE",
"957 143 OFFCURVE",
"957 449 CURVE SMOOTH",
"957 1051 LINE SMOOTH",
"957 1334 OFFCURVE",
"789 1516 OFFCURVE",
"508 1516 CURVE SMOOTH",
"228 1516 OFFCURVE",
"60 1333 OFFCURVE",
"60 1051 CURVE SMOOTH",
"60 449 LINE SMOOTH",
"60 138 OFFCURVE",
"209 -16 OFFCURVE",
"508 -16 CURVE SMOOTH"
);
},
{
closed = 1;
nodes = (
"448 260 OFFCURVE",
"424 308 OFFCURVE",
"424 375 CURVE SMOOTH",
"424 1108 LINE SMOOTH",
"424 1195 OFFCURVE",
"452 1239 OFFCURVE",
"508 1239 CURVE SMOOTH",
"564 1239 OFFCURVE",
"592 1195 OFFCURVE",
"592 1108 CURVE SMOOTH",
"592 375 LINE SMOOTH",
"592 308 OFFCURVE",
"568 260 OFFCURVE",
"508 260 CURVE SMOOTH"
);
}
);
width = 1017;
}
);
unicode = 006F;
userData = {
com.typemytype.robofont.layerData = {
};
};
},
{
glyphname = ohorn;
layers = (
{
anchors = (
{
name = _top_right;
position = "{508, 1255}";
},
{
name = bottom;
position = "{508, 0}";
},
{
name = ogonek;
position = "{731, 100}";
},
{
name = top;
position = "{508, 1586}";
},
{
name = top_case;
position = "{508, 1500}";
}
);
layerId = "6CD1E358-6E98-409F-9A1F-EA9DE4C1A8AA";
paths = (
{
closed = 1;
nodes = (
"809 -16 OFFCURVE",
"957 143 OFFCURVE",
"957 449 CURVE SMOOTH",
"957 1051 LINE SMOOTH",
"957 1191 OFFCURVE",
"916 1306 OFFCURVE",
"841 1386 CURVE",
"838 1352 LINE",
"923 1402 OFFCURVE",
"979 1496 OFFCURVE",
"979 1649 CURVE SMOOTH",
"979 1664 LINE",
"701 1663 LINE",
"701 1641 LINE SMOOTH",
"701 1555 OFFCURVE",
"661 1516 OFFCURVE",
"586 1516 CURVE SMOOTH",
"508 1516 LINE SMOOTH",
"228 1516 OFFCURVE",
"60 1333 OFFCURVE",
"60 1051 CURVE SMOOTH",
"60 449 LINE SMOOTH",
"60 138 OFFCURVE",
"209 -16 OFFCURVE",
"508 -16 CURVE SMOOTH"
);
},
{
closed = 1;
nodes = (
"448 260 OFFCURVE",
"424 308 OFFCURVE",
"424 375 CURVE SMOOTH",
"424 1108 LINE SMOOTH",
"424 1195 OFFCURVE",
"452 1239 OFFCURVE",
"508 1239 CURVE SMOOTH",
"564 1239 OFFCURVE",
"592 1195 OFFCURVE",
"592 1108 CURVE SMOOTH",
"592 375 LINE SMOOTH",
"592 308 OFFCURVE",
"568 260 OFFCURVE",
"508 260 CURVE SMOOTH"
);
}
);
width = 1017;
},
{
anchors = (
{
name = _top_right;
position = "{508, 1255}";
},
{
name = bottom;
position = "{508, 0}";
},
{
name = ogonek;
position = "{731, 100}";
},
{
name = top;
position = "{508, 1516}";
},
{
name = top_case;
position = "{508, 1500}";
},
{
name = top_right;
position = "{508, 1255}";
}
);
associatedMasterId = "6CD1E358-6E98-409F-9A1F-EA9DE4C1A8AA";
layerId = "CAC1031E-A84B-46C3-90D4-143FBAD98163";
name = "Regular Jul 25 16, 00:33";
paths = (
{
closed = 1;
nodes = (
"809 -16 OFFCURVE",
"957 143 OFFCURVE",
"957 449 CURVE SMOOTH",
"957 1051 LINE SMOOTH",
"957 1334 OFFCURVE",
"789 1516 OFFCURVE",
"508 1516 CURVE SMOOTH",
"228 1516 OFFCURVE",
"60 1333 OFFCURVE",
"60 1051 CURVE SMOOTH",
"60 449 LINE SMOOTH",
"60 138 OFFCURVE",
"209 -16 OFFCURVE",
"508 -16 CURVE SMOOTH"
);
},
{
closed = 1;
nodes = (
"448 260 OFFCURVE",
"424 308 OFFCURVE",
"424 375 CURVE SMOOTH",
"424 1108 LINE SMOOTH",
"424 1195 OFFCURVE",
"452 1239 OFFCURVE",
"508 1239 CURVE SMOOTH",
"564 1239 OFFCURVE",
"592 1195 OFFCURVE",
"592 1108 CURVE SMOOTH",
"592 375 LINE SMOOTH",
"592 308 OFFCURVE",
"568 260 OFFCURVE",
"508 260 CURVE SMOOTH"
);
},
{
closed = 1;
nodes = (
"829 1306 OFFCURVE",
"979 1399 OFFCURVE",
"979 1649 CURVE SMOOTH",
"979 1664 LINE",
"701 1663 LINE",
"701 1641 LINE SMOOTH",
"701 1555 OFFCURVE",
"661 1516 OFFCURVE",
"586 1516 CURVE SMOOTH",
"509 1516 LINE",
"509 1327 LINE",
"549 1313 OFFCURVE",
"590 1306 OFFCURVE",
"644 1306 CURVE"
);
}
);
width = 1017;
}
);
unicode = 01A1;
},
{
glyphname = oslash;
layers = (
{
background = {
components = (
{
name = o;
}
);
paths = (
{
closed = 1;
nodes = (
"978 1603 LINE",
"837 1661 LINE",
"706 1403 LINE",
"836 1348 LINE"
);
},
{
closed = 1;
nodes = (
"336 92 LINE",
"198 144 LINE",
"86 -123 LINE",
"222 -175 LINE"
);
}
);
};
components = (
{
name = o;
}
);
layerId = "6CD1E358-6E98-409F-9A1F-EA9DE4C1A8AA";
paths = (
{
closed = 1;
nodes = (
"978 1603 LINE",
"837 1661 LINE",
"706 1403 LINE",
"836 1348 LINE"
);
},
{
closed = 1;
nodes = (
"336 92 LINE",
"198 144 LINE",
"86 -123 LINE",
"222 -175 LINE"
);
}
);
width = 989;
}
);
unicode = 00F8;
userData = {
com.typemytype.robofont.layerData = {
};
};
},
{
glyphname = oe;
layers = (
{
background = {
paths = (
{
closed = 1;
nodes = (
"606 -18 OFFCURVE",
"696 11 OFFCURVE",
"766 69 CURVE",
"829 11 OFFCURVE",
"911 -18 OFFCURVE",
"1012 -18 CURVE SMOOTH",
"1352 -18 OFFCURVE",
"1462 157 OFFCURVE",
"1462 494 CURVE SMOOTH",
"1462 579 LINE",
"1106 579 LINE",
"1107 574 OFFCURVE",
"1108 542 OFFCURVE",
"1108 483 CURVE SMOOTH",
"1108 395 OFFCURVE",
"1110 260 OFFCURVE",
"1024 260 CURVE SMOOTH",
"944 260 OFFCURVE",
"937 346 OFFCURVE",
"937 427 CURVE SMOOTH",
"937 439 OFFCURVE",
"938 482 OFFCURVE",
"938 494 CURVE SMOOTH",
"938 704 LINE",
"1458 704 LINE",
"1461 755 OFFCURVE",
"1462 848 OFFCURVE",
"1462 983 CURVE SMOOTH",
"1462 1092 LINE SMOOTH",
"1462 1376 OFFCURVE",
"1318 1518 OFFCURVE",
"1030 1518 CURVE SMOOTH",
"919 1518 OFFCURVE",
"829 1486 OFFCURVE",
"761 1422 CURVE",
"686 1486 OFFCURVE",
"598 1518 OFFCURVE",
"496 1518 CURVE SMOOTH",
"216 1518 OFFCURVE",
"48 1333 OFFCURVE",
"48 1051 CURVE SMOOTH",
"48 449 LINE SMOOTH",
"48 138 OFFCURVE",
"197 -18 OFFCURVE",
"496 -18 CURVE SMOOTH"
);
},
{
closed = 1;
nodes = (
"436 260 OFFCURVE",
"412 308 OFFCURVE",
"412 375 CURVE SMOOTH",
"412 1108 LINE SMOOTH",
"412 1195 OFFCURVE",
"440 1239 OFFCURVE",
"496 1239 CURVE SMOOTH",
"552 1239 OFFCURVE",
"580 1195 OFFCURVE",
"580 1108 CURVE SMOOTH",
"580 375 LINE SMOOTH",
"580 308 OFFCURVE",
"556 260 OFFCURVE",
"496 260 CURVE SMOOTH"
);
},
{
closed = 1;
nodes = (
"938 955 OFFCURVE",
"936 1033 OFFCURVE",
"936 1057 CURVE SMOOTH",
"936 1146 OFFCURVE",
"939 1249 OFFCURVE",
"1026 1249 CURVE SMOOTH",
"1079 1249 OFFCURVE",
"1106 1195 OFFCURVE",
"1106 1087 CURVE SMOOTH",
"1106 931 LINE",
"938 931 LINE"
);
}
);
};
layerId = "6CD1E358-6E98-409F-9A1F-EA9DE4C1A8AA";
paths = (
{
closed = 1;
nodes = (
"606 -18 OFFCURVE",
"696 11 OFFCURVE",
"766 69 CURVE",
"829 11 OFFCURVE",
"911 -18 OFFCURVE",
"1012 -18 CURVE SMOOTH",
"1352 -18 OFFCURVE",
"1462 157 OFFCURVE",
"1462 494 CURVE SMOOTH",
"1462 579 LINE",
"1106 579 LINE",
"1107 574 OFFCURVE",
"1108 542 OFFCURVE",
"1108 483 CURVE SMOOTH",
"1108 395 OFFCURVE",
"1110 260 OFFCURVE",
"1024 260 CURVE SMOOTH",
"944 260 OFFCURVE",
"937 346 OFFCURVE",
"937 427 CURVE SMOOTH",
"937 439 OFFCURVE",
"938 482 OFFCURVE",
"938 494 CURVE SMOOTH",
"938 704 LINE",
"1458 704 LINE",
"1461 755 OFFCURVE",
"1462 848 OFFCURVE",
"1462 983 CURVE SMOOTH",
"1462 1092 LINE SMOOTH",
"1462 1376 OFFCURVE",
"1318 1518 OFFCURVE",
"1030 1518 CURVE SMOOTH",
"919 1518 OFFCURVE",
"829 1486 OFFCURVE",
"761 1422 CURVE",
"686 1486 OFFCURVE",
"598 1518 OFFCURVE",
"496 1518 CURVE SMOOTH",
"216 1518 OFFCURVE",
"48 1333 OFFCURVE",
"48 1051 CURVE SMOOTH",
"48 449 LINE SMOOTH",
"48 138 OFFCURVE",
"197 -18 OFFCURVE",
"496 -18 CURVE SMOOTH"
);
},
{
closed = 1;
nodes = (
"436 260 OFFCURVE",
"412 308 OFFCURVE",
"412 375 CURVE SMOOTH",
"412 1108 LINE SMOOTH",
"412 1195 OFFCURVE",
"440 1239 OFFCURVE",
"496 1239 CURVE SMOOTH",
"552 1239 OFFCURVE",
"580 1195 OFFCURVE",
"580 1108 CURVE SMOOTH",
"580 375 LINE SMOOTH",
"580 308 OFFCURVE",
"556 260 OFFCURVE",
"496 260 CURVE SMOOTH"
);
},
{
closed = 1;
nodes = (
"938 955 OFFCURVE",
"936 1033 OFFCURVE",
"936 1057 CURVE SMOOTH",
"936 1146 OFFCURVE",
"939 1249 OFFCURVE",
"1026 1249 CURVE SMOOTH",
"1079 1249 OFFCURVE",
"1106 1195 OFFCURVE",
"1106 1087 CURVE SMOOTH",
"1106 931 LINE",
"938 931 LINE"
);
}
);
width = 1513;
}
);
unicode = 0153;
userData = {
com.typemytype.robofont.layerData = {
};
};
},
{
glyphname = p;
layers = (
{
anchors = (
{
name = top;
position = "{513, 1500}";
}
);
background = {
anchors = (
{
name = top;
position = "{513, 1500}";
}
);
paths = (
{
closed = 1;
nodes = (
"436 -300 LINE",
"436 59 LINE",
"483 8 OFFCURVE",
"551 -16 OFFCURVE",
"641 -16 CURVE SMOOTH",
"937 -16 OFFCURVE",
"963 225 OFFCURVE",
"963 521 CURVE SMOOTH",
"963 1075 LINE SMOOTH",
"963 1323 OFFCURVE",
"899 1516 OFFCURVE",
"651 1516 CURVE SMOOTH",
"562 1516 OFFCURVE",
"490 1485 OFFCURVE",
"436 1419 CURVE",
"436 1500 LINE",
"72 1500 LINE",
"72 -300 LINE"
);
},
{
closed = 1;
nodes = (
"447 262 OFFCURVE",
"436 336 OFFCURVE",
"436 422 CURVE SMOOTH",
"436 1079 LINE SMOOTH",
"436 1183 OFFCURVE",
"464 1235 OFFCURVE",
"520 1235 CURVE SMOOTH",
"597 1235 OFFCURVE",
"600 1152 OFFCURVE",
"600 1075 CURVE SMOOTH",
"600 438 LINE SMOOTH",
"600 346 OFFCURVE",
"595 262 OFFCURVE",
"522 262 CURVE SMOOTH"
);
}
);
};
layerId = "6CD1E358-6E98-409F-9A1F-EA9DE4C1A8AA";
paths = (
{
closed = 1;
nodes = (
"436 -300 LINE",
"436 59 LINE",
"483 8 OFFCURVE",
"551 -16 OFFCURVE",
"641 -16 CURVE SMOOTH",
"937 -16 OFFCURVE",
"963 225 OFFCURVE",
"963 521 CURVE SMOOTH",
"963 1075 LINE SMOOTH",
"963 1323 OFFCURVE",
"899 1516 OFFCURVE",
"651 1516 CURVE SMOOTH",
"562 1516 OFFCURVE",
"490 1485 OFFCURVE",
"436 1419 CURVE",
"436 1500 LINE",
"72 1500 LINE",
"72 -300 LINE"
);
},
{
closed = 1;
nodes = (
"447 262 OFFCURVE",
"436 336 OFFCURVE",
"436 422 CURVE SMOOTH",
"436 1079 LINE SMOOTH",
"436 1183 OFFCURVE",
"464 1235 OFFCURVE",
"520 1235 CURVE SMOOTH",
"597 1235 OFFCURVE",
"600 1152 OFFCURVE",
"600 1075 CURVE SMOOTH",
"600 438 LINE SMOOTH",
"600 346 OFFCURVE",
"595 262 OFFCURVE",
"522 262 CURVE SMOOTH"
);
}
);
width = 1023;
}
);
unicode = 0070;
userData = {
com.typemytype.robofont.layerData = {
};
};
},
{
glyphname = thorn;
layers = (
{
background = {
paths = (
{
closed = 1;
nodes = (
"430 -185 LINE",
"430 160 LINE",
"474 41 OFFCURVE",
"544 -18 OFFCURVE",
"641 -18 CURVE SMOOTH",
"865 -18 OFFCURVE",
"957 160 OFFCURVE",
"957 391 CURVE SMOOTH",
"957 1114 LINE SMOOTH",
"957 1360 OFFCURVE",
"874 1519 OFFCURVE",
"630 1519 CURVE SMOOTH",
"557 1519 OFFCURVE",
"490 1488 OFFCURVE",
"430 1427 CURVE",
"430 1769 LINE",
"62 1769 LINE",
"62 -185 LINE"
);
},
{
closed = 1;
nodes = (
"437 263 OFFCURVE",
"430 349 OFFCURVE",
"430 457 CURVE SMOOTH",
"430 1085 LINE SMOOTH",
"430 1175 OFFCURVE",
"446 1239 OFFCURVE",
"518 1239 CURVE SMOOTH",
"588 1239 OFFCURVE",
"594 1171 OFFCURVE",
"594 1081 CURVE SMOOTH",
"594 457 LINE SMOOTH",
"594 347 OFFCURVE",
"599 263 OFFCURVE",
"520 263 CURVE SMOOTH"
);
}
);
};
layerId = "6CD1E358-6E98-409F-9A1F-EA9DE4C1A8AA";
paths = (
{
closed = 1;
nodes = (
"430 -185 LINE",
"430 160 LINE",
"474 41 OFFCURVE",
"544 -18 OFFCURVE",
"641 -18 CURVE SMOOTH",
"865 -18 OFFCURVE",
"957 160 OFFCURVE",
"957 391 CURVE SMOOTH",
"957 1114 LINE SMOOTH",
"957 1360 OFFCURVE",
"874 1519 OFFCURVE",
"630 1519 CURVE SMOOTH",
"557 1519 OFFCURVE",
"490 1488 OFFCURVE",
"430 1427 CURVE",
"430 1769 LINE",
"62 1769 LINE",
"62 -185 LINE"
);
},
{
closed = 1;
nodes = (
"437 263 OFFCURVE",
"430 349 OFFCURVE",
"430 457 CURVE SMOOTH",
"430 1085 LINE SMOOTH",
"430 1175 OFFCURVE",
"446 1239 OFFCURVE",
"518 1239 CURVE SMOOTH",
"588 1239 OFFCURVE",
"594 1171 OFFCURVE",
"594 1081 CURVE SMOOTH",
"594 457 LINE SMOOTH",
"594 347 OFFCURVE",
"599 263 OFFCURVE",
"520 263 CURVE SMOOTH"
);
}
);
width = 1007;
}
);
unicode = 00FE;
userData = {
com.typemytype.robofont.layerData = {
};
};
},
{
glyphname = q;
layers = (
{
anchors = (
{
name = bottom;
position = "{512, 0}";
},
{
name = top;
position = "{512, 1500}";
}
);
background = {
anchors = (
{
name = bottom;
position = "{512, 0}";
},
{
name = top;
position = "{512, 1500}";
}
);
paths = (
{
closed = 1;
nodes = (
"951 -300 LINE",
"951 1500 LINE",
"586 1500 LINE",
"586 1419 LINE",
"533 1485 OFFCURVE",
"461 1516 OFFCURVE",
"371 1516 CURVE SMOOTH",
"124 1516 OFFCURVE",
"60 1322 OFFCURVE",
"60 1075 CURVE SMOOTH",
"60 482 LINE SMOOTH",
"60 191 OFFCURVE",
"89 -16 OFFCURVE",
"381 -16 CURVE SMOOTH",
"473 -16 OFFCURVE",
"543 32 OFFCURVE",
"586 90 CURVE",
"586 -300 LINE"
);
},
{
closed = 1;
nodes = (
"427 262 OFFCURVE",
"422 346 OFFCURVE",
"422 438 CURVE SMOOTH",
"422 1075 LINE SMOOTH",
"422 1152 OFFCURVE",
"425 1235 OFFCURVE",
"502 1235 CURVE SMOOTH",
"558 1235 OFFCURVE",
"586 1183 OFFCURVE",
"586 1079 CURVE SMOOTH",
"586 422 LINE SMOOTH",
"586 335 OFFCURVE",
"576 262 OFFCURVE",
"500 262 CURVE SMOOTH"
);
}
);
};
layerId = "6CD1E358-6E98-409F-9A1F-EA9DE4C1A8AA";
paths = (
{
closed = 1;
nodes = (
"951 -300 LINE",
"951 1500 LINE",
"586 1500 LINE",
"586 1419 LINE",
"533 1485 OFFCURVE",
"461 1516 OFFCURVE",
"371 1516 CURVE SMOOTH",
"124 1516 OFFCURVE",
"60 1322 OFFCURVE",
"60 1075 CURVE SMOOTH",
"60 482 LINE SMOOTH",
"60 191 OFFCURVE",
"89 -16 OFFCURVE",
"381 -16 CURVE SMOOTH",
"473 -16 OFFCURVE",
"543 32 OFFCURVE",
"586 90 CURVE",
"586 -300 LINE"
);
},
{
closed = 1;
nodes = (
"427 262 OFFCURVE",
"422 346 OFFCURVE",
"422 438 CURVE SMOOTH",
"422 1075 LINE SMOOTH",
"422 1152 OFFCURVE",
"425 1235 OFFCURVE",
"502 1235 CURVE SMOOTH",
"558 1235 OFFCURVE",
"586 1183 OFFCURVE",
"586 1079 CURVE SMOOTH",
"586 422 LINE SMOOTH",
"586 335 OFFCURVE",
"576 262 OFFCURVE",
"500 262 CURVE SMOOTH"
);
}
);
width = 1023;
}
);
unicode = 0071;
userData = {
com.typemytype.robofont.layerData = {
};
};
},
{
glyphname = r;
layers = (
{
anchors = (
{
name = bot;
position = "{265, 0}";
},
{
name = top;
position = "{382, 1500}";
}
);
background = {
anchors = (
{
name = bot;
position = "{265, 0}";
},
{
name = top;
position = "{382, 1500}";
}
);
paths = (
{
closed = 1;
nodes = (
"430 0 LINE",
"430 1147 LINE SMOOTH",
"430 1187 OFFCURVE",
"600 1219 OFFCURVE",
"688 1219 CURVE",
"688 1518 LINE",
"555 1518 OFFCURVE",
"464 1449 OFFCURVE",
"430 1333 CURVE",
"430 1500 LINE",
"72 1500 LINE",
"72 0 LINE"
);
}
);
};
layerId = "6CD1E358-6E98-409F-9A1F-EA9DE4C1A8AA";
paths = (
{
closed = 1;
nodes = (
"430 0 LINE",
"430 1147 LINE SMOOTH",
"430 1187 OFFCURVE",
"600 1219 OFFCURVE",
"688 1219 CURVE",
"688 1518 LINE",
"555 1518 OFFCURVE",
"464 1449 OFFCURVE",
"430 1333 CURVE",
"430 1500 LINE",
"72 1500 LINE",
"72 0 LINE"
);
}
);
width = 704;
}
);
unicode = 0072;
userData = {
com.typemytype.robofont.layerData = {
};
};
},
{
glyphname = s;
layers = (
{
anchors = (
{
name = bot;
position = "{478, 0}";
},
{
name = top;
position = "{489, 1500}";
}
);
background = {
anchors = (
{
name = bot;
position = "{478, 0}";
},
{
name = top;
position = "{489, 1500}";
}
);
paths = (
{
closed = 1;
nodes = (
"763 -16 OFFCURVE",
"934 135 OFFCURVE",
"934 418 CURVE SMOOTH",
"934 646 OFFCURVE",
"825 768 OFFCURVE",
"688 870 CURVE SMOOTH",
"467 1032 LINE SMOOTH",
"424 1063 OFFCURVE",
"403 1106 OFFCURVE",
"403 1159 CURVE SMOOTH",
"403 1209 OFFCURVE",
"429 1239 OFFCURVE",
"479 1239 CURVE SMOOTH",
"539 1239 OFFCURVE",
"555 1170 OFFCURVE",
"555 1110 CURVE SMOOTH",
"555 1053 LINE",
"925 1053 LINE",
"925 1081 LINE SMOOTH",
"925 1372 OFFCURVE",
"776 1516 OFFCURVE",
"489 1516 CURVE SMOOTH",
"252 1516 OFFCURVE",
"45 1394 OFFCURVE",
"45 1157 CURVE SMOOTH",
"45 951 OFFCURVE",
"109 865 OFFCURVE",
"229 772 CURVE SMOOTH",
"420 625 LINE SMOOTH",
"498 566 OFFCURVE",
"561 515 OFFCURVE",
"561 385 CURVE SMOOTH",
"561 307 OFFCURVE",
"537 268 OFFCURVE",
"489 268 CURVE SMOOTH",
"424 268 OFFCURVE",
"401 309 OFFCURVE",
"401 377 CURVE SMOOTH",
"399 553 LINE",
"41 553 LINE",
"39 434 LINE SMOOTH",
"39 133 OFFCURVE",
"187 -16 OFFCURVE",
"483 -16 CURVE SMOOTH"
);
}
);
};
layerId = "6CD1E358-6E98-409F-9A1F-EA9DE4C1A8AA";
paths = (
{
closed = 1;
nodes = (
"763 -16 OFFCURVE",
"934 135 OFFCURVE",
"934 418 CURVE SMOOTH",
"934 646 OFFCURVE",
"825 768 OFFCURVE",
"688 870 CURVE SMOOTH",
"467 1032 LINE SMOOTH",
"424 1063 OFFCURVE",
"403 1106 OFFCURVE",
"403 1159 CURVE SMOOTH",
"403 1209 OFFCURVE",
"429 1239 OFFCURVE",
"479 1239 CURVE SMOOTH",
"539 1239 OFFCURVE",
"555 1170 OFFCURVE",
"555 1110 CURVE SMOOTH",
"555 1053 LINE",
"925 1053 LINE",
"925 1081 LINE SMOOTH",
"925 1372 OFFCURVE",
"776 1516 OFFCURVE",
"489 1516 CURVE SMOOTH",
"252 1516 OFFCURVE",
"45 1394 OFFCURVE",
"45 1157 CURVE SMOOTH",
"45 951 OFFCURVE",
"109 865 OFFCURVE",
"229 772 CURVE SMOOTH",
"420 625 LINE SMOOTH",
"498 566 OFFCURVE",
"561 515 OFFCURVE",
"561 385 CURVE SMOOTH",
"561 307 OFFCURVE",
"537 268 OFFCURVE",
"489 268 CURVE SMOOTH",
"424 268 OFFCURVE",
"401 309 OFFCURVE",
"401 377 CURVE SMOOTH",
"399 553 LINE",
"41 553 LINE",
"39 434 LINE SMOOTH",
"39 133 OFFCURVE",
"187 -16 OFFCURVE",
"483 -16 CURVE SMOOTH"
);
}
);
width = 972;
}
);
unicode = 0073;
userData = {
com.typemytype.robofont.layerData = {
};
};
},
{
glyphname = germandbls;
layers = (
{
background = {
paths = (
{
closed = 1;
nodes = (
"408 0 LINE",
"408 1453 LINE SMOOTH",
"408 1504 OFFCURVE",
"433 1529 OFFCURVE",
"483 1529 CURVE SMOOTH",
"533 1529 OFFCURVE",
"558 1504 OFFCURVE",
"558 1453 CURVE SMOOTH",
"558 1245 LINE SMOOTH",
"558 1177 OFFCURVE",
"544 1126 OFFCURVE",
"474 1126 CURVE",
"474 878 LINE",
"583 878 OFFCURVE",
"621 839 OFFCURVE",
"621 731 CURVE SMOOTH",
"621 399 LINE SMOOTH",
"621 320 OFFCURVE",
"573 281 OFFCURVE",
"478 281 CURVE",
"478 0 LINE",
"582 0 LINE SMOOTH",
"882 0 OFFCURVE",
"969 260 OFFCURVE",
"969 559 CURVE SMOOTH",
"969 817 OFFCURVE",
"928 980 OFFCURVE",
"759 1020 CURVE",
"867 1055 OFFCURVE",
"909 1155 OFFCURVE",
"909 1295 CURVE SMOOTH",
"909 1412 LINE SMOOTH",
"909 1673 OFFCURVE",
"742 1776 OFFCURVE",
"483 1776 CURVE SMOOTH",
"200 1776 OFFCURVE",
"58 1655 OFFCURVE",
"58 1412 CURVE SMOOTH",
"58 0 LINE"
);
}
);
};
layerId = "6CD1E358-6E98-409F-9A1F-EA9DE4C1A8AA";
paths = (
{
closed = 1;
nodes = (
"408 0 LINE",
"408 1453 LINE SMOOTH",
"408 1504 OFFCURVE",
"433 1529 OFFCURVE",
"483 1529 CURVE SMOOTH",
"533 1529 OFFCURVE",
"558 1504 OFFCURVE",
"558 1453 CURVE SMOOTH",
"558 1245 LINE SMOOTH",
"558 1177 OFFCURVE",
"544 1126 OFFCURVE",
"474 1126 CURVE",
"474 878 LINE",
"583 878 OFFCURVE",
"621 839 OFFCURVE",
"621 731 CURVE SMOOTH",
"621 399 LINE SMOOTH",
"621 320 OFFCURVE",
"573 281 OFFCURVE",
"478 281 CURVE",
"478 0 LINE",
"582 0 LINE SMOOTH",
"882 0 OFFCURVE",
"969 260 OFFCURVE",
"969 559 CURVE SMOOTH",
"969 817 OFFCURVE",
"928 980 OFFCURVE",
"759 1020 CURVE",
"867 1055 OFFCURVE",
"909 1155 OFFCURVE",
"909 1295 CURVE SMOOTH",
"909 1412 LINE SMOOTH",
"909 1673 OFFCURVE",
"742 1776 OFFCURVE",
"483 1776 CURVE SMOOTH",
"200 1776 OFFCURVE",
"58 1655 OFFCURVE",
"58 1412 CURVE SMOOTH",
"58 0 LINE"
);
}
);
width = 1007;
}
);
unicode = 00DF;
userData = {
com.typemytype.robofont.layerData = {
};
};
},
{
glyphname = t;
layers = (
{
anchors = (
{
name = bot;
position = "{382, 0}";
},
{
name = caron.alt;
position = "{318, 1500}";
},
{
name = mid;
position = "{315, 776}";
},
{
name = top;
position = "{315, 1760}";
}
);
background = {
anchors = (
{
name = bot;
position = "{382, 0}";
},
{
name = caron.alt;
position = "{318, 1500}";
},
{
name = mid;
position = "{315, 776}";
},
{
name = top;
position = "{315, 1760}";
}
);
paths = (
{
closed = 1;
nodes = (
"467 -16 OFFCURVE",
"567 6 OFFCURVE",
"583 11 CURVE",
"583 255 LINE",
"583 255 OFFCURVE",
"546 251 OFFCURVE",
"520 251 CURVE SMOOTH",
"482 251 OFFCURVE",
"482 288 OFFCURVE",
"482 328 CURVE SMOOTH",
"482 1169 LINE",
"583 1169 LINE",
"583 1442 LINE",
"482 1442 LINE",
"482 1760 LINE",
"134 1760 LINE",
"134 1442 LINE",
"33 1442 LINE",
"33 1169 LINE",
"134 1169 LINE",
"134 234 LINE SMOOTH",
"134 65 OFFCURVE",
"187 -16 OFFCURVE",
"380 -16 CURVE SMOOTH"
);
}
);
};
layerId = "6CD1E358-6E98-409F-9A1F-EA9DE4C1A8AA";
paths = (
{
closed = 1;
nodes = (
"467 -16 OFFCURVE",
"567 6 OFFCURVE",
"583 11 CURVE",
"583 255 LINE",
"583 255 OFFCURVE",
"546 251 OFFCURVE",
"520 251 CURVE SMOOTH",
"482 251 OFFCURVE",
"482 288 OFFCURVE",
"482 328 CURVE SMOOTH",
"482 1169 LINE",
"583 1169 LINE",
"583 1442 LINE",
"482 1442 LINE",
"482 1760 LINE",
"134 1760 LINE",
"134 1442 LINE",
"33 1442 LINE",
"33 1169 LINE",
"134 1169 LINE",
"134 234 LINE SMOOTH",
"134 65 OFFCURVE",
"187 -16 OFFCURVE",
"380 -16 CURVE SMOOTH"
);
}
);
width = 625;
}
);
unicode = 0074;
userData = {
com.typemytype.robofont.layerData = {
};
};
},
{
glyphname = u;
layers = (
{
anchors = (
{
name = bottom;
position = "{539, 0}";
},
{
name = ogonek;
position = "{755, 0}";
},
{
name = top;
position = "{512, 1500}";
},
{
name = top_right;
position = "{697, 1239}";
}
);
background = {
anchors = (
{
name = bottom;
position = "{539, 0}";
},
{
name = ogonek;
position = "{755, 0}";
},
{
name = top;
position = "{512, 1500}";
}
);
paths = (
{
closed = 1;
nodes = (
"497 -16 OFFCURVE",
"546 45 OFFCURVE",
"592 160 CURVE",
"592 0 LINE",
"950 0 LINE",
"950 1500 LINE",
"594 1500 LINE",
"592 455 LINE",
"592 443 LINE SMOOTH",
"592 360 OFFCURVE",
"591 264 OFFCURVE",
"508 264 CURVE SMOOTH",
"420 264 OFFCURVE",
"428 342 OFFCURVE",
"428 455 CURVE SMOOTH",
"428 1500 LINE",
"68 1500 LINE",
"68 383 LINE SMOOTH",
"68 143 OFFCURVE",
"120 -16 OFFCURVE",
"361 -16 CURVE SMOOTH"
);
}
);
};
layerId = "6CD1E358-6E98-409F-9A1F-EA9DE4C1A8AA";
paths = (
{
closed = 1;
nodes = (
"497 -16 OFFCURVE",
"546 45 OFFCURVE",
"592 160 CURVE",
"592 0 LINE",
"950 0 LINE",
"950 1500 LINE",
"594 1500 LINE",
"592 455 LINE",
"592 443 LINE SMOOTH",
"592 360 OFFCURVE",
"591 264 OFFCURVE",
"508 264 CURVE SMOOTH",
"420 264 OFFCURVE",
"428 342 OFFCURVE",
"428 455 CURVE SMOOTH",
"428 1500 LINE",
"68 1500 LINE",
"68 383 LINE SMOOTH",
"68 143 OFFCURVE",
"120 -16 OFFCURVE",
"361 -16 CURVE SMOOTH"
);
}
);
width = 1022;
}
);
unicode = 0075;
userData = {
com.typemytype.robofont.layerData = {
};
};
},
{
glyphname = uhorn;
layers = (
{
anchors = (
{
name = bottom;
position = "{539, 0}";
},
{
name = ogonek;
position = "{755, 0}";
},
{
name = top;
position = "{512, 1530}";
}
);
background = {
components = (
{
name = u;
},
{
name = horncomb;
}
);
};
layerId = "6CD1E358-6E98-409F-9A1F-EA9DE4C1A8AA";
paths = (
{
closed = 1;
nodes = (
"497 -16 OFFCURVE",
"546 45 OFFCURVE",
"592 160 CURVE",
"592 0 LINE",
"950 0 LINE",
"950 1350 LINE",
"923 1298 LINE",
"1064 1326 OFFCURVE",
"1168 1425 OFFCURVE",
"1168 1633 CURVE SMOOTH",
"1168 1648 LINE",
"890 1647 LINE",
"890 1625 LINE SMOOTH",
"890 1539 OFFCURVE",
"850 1500 OFFCURVE",
"775 1500 CURVE SMOOTH",
"594 1500 LINE",
"592 455 LINE",
"592 443 LINE SMOOTH",
"592 360 OFFCURVE",
"591 264 OFFCURVE",
"508 264 CURVE SMOOTH",
"420 264 OFFCURVE",
"428 342 OFFCURVE",
"428 455 CURVE SMOOTH",
"428 1500 LINE",
"68 1500 LINE",
"68 383 LINE SMOOTH",
"68 143 OFFCURVE",
"120 -16 OFFCURVE",
"361 -16 CURVE SMOOTH"
);
}
);
width = 1168;
},
{
anchors = (
{
name = _top_right;
position = "{697, 1239}";
},
{
name = bottom;
position = "{539, 0}";
},
{
name = ogonek;
position = "{755, 0}";
},
{
name = top;
position = "{512, 1500}";
},
{
name = top_right;
position = "{697, 1239}";
}
);
associatedMasterId = "6CD1E358-6E98-409F-9A1F-EA9DE4C1A8AA";
background = {
components = (
{
name = u;
},
{
name = horncomb;
}
);
};
layerId = "32C5AD85-BBBA-4A8C-BD32-985D2D356577";
name = "Regular Jul 25 16, 00:33";
paths = (
{
closed = 1;
nodes = (
"497 -16 OFFCURVE",
"546 45 OFFCURVE",
"592 160 CURVE",
"592 0 LINE",
"950 0 LINE",
"950 1500 LINE",
"594 1500 LINE",
"592 455 LINE",
"592 443 LINE SMOOTH",
"592 360 OFFCURVE",
"591 264 OFFCURVE",
"508 264 CURVE SMOOTH",
"420 264 OFFCURVE",
"428 342 OFFCURVE",
"428 455 CURVE SMOOTH",
"428 1500 LINE",
"68 1500 LINE",
"68 383 LINE SMOOTH",
"68 143 OFFCURVE",
"120 -16 OFFCURVE",
"361 -16 CURVE SMOOTH"
);
},
{
closed = 1;
nodes = (
"1018 1290 OFFCURVE",
"1168 1383 OFFCURVE",
"1168 1633 CURVE SMOOTH",
"1168 1648 LINE",
"890 1647 LINE",
"890 1625 LINE SMOOTH",
"890 1539 OFFCURVE",
"850 1500 OFFCURVE",
"775 1500 CURVE SMOOTH",
"698 1500 LINE",
"698 1311 LINE",
"738 1297 OFFCURVE",
"779 1290 OFFCURVE",
"833 1290 CURVE"
);
}
);
width = 1022;
}
);
unicode = 01B0;
},
{
glyphname = v;
layers = (
{
anchors = (
{
name = bottom;
position = "{472, 0}";
},
{
name = top;
position = "{472, 1500}";
}
);
background = {
anchors = (
{
name = bottom;
position = "{472, 0}";
},
{
name = top;
position = "{472, 1500}";
}
);
paths = (
{
closed = 1;
nodes = (
"677 0 LINE",
"922 1500 LINE",
"564 1500 LINE",
"481 743 LINE",
"467 498 LINE",
"455 741 LINE",
"381 1500 LINE",
"22 1500 LINE",
"263 0 LINE"
);
}
);
};
layerId = "6CD1E358-6E98-409F-9A1F-EA9DE4C1A8AA";
paths = (
{
closed = 1;
nodes = (
"677 0 LINE",
"922 1500 LINE",
"564 1500 LINE",
"481 743 LINE",
"467 498 LINE",
"455 741 LINE",
"381 1500 LINE",
"22 1500 LINE",
"263 0 LINE"
);
}
);
width = 944;
}
);
unicode = 0076;
userData = {
com.typemytype.robofont.layerData = {
};
};
},
{
glyphname = w;
layers = (
{
anchors = (
{
name = bottom;
position = "{713, 0}";
},
{
name = top;
position = "{722, 1500}";
}
);
background = {
anchors = (
{
name = bottom;
position = "{713, 0}";
},
{
name = top;
position = "{722, 1500}";
}
);
paths = (
{
closed = 1;
nodes = (
"626 0 LINE",
"720 851 LINE",
"828 0 LINE",
"1185 0 LINE",
"1378 1500 LINE",
"1040 1500 LINE",
"957 694 LINE",
"854 1500 LINE",
"541 1500 LINE",
"454 694 LINE",
"355 1500 LINE",
"48 1500 LINE",
"229 0 LINE"
);
}
);
};
layerId = "6CD1E358-6E98-409F-9A1F-EA9DE4C1A8AA";
paths = (
{
closed = 1;
nodes = (
"626 0 LINE",
"720 851 LINE",
"828 0 LINE",
"1185 0 LINE",
"1378 1500 LINE",
"1040 1500 LINE",
"957 694 LINE",
"854 1500 LINE",
"541 1500 LINE",
"454 694 LINE",
"355 1500 LINE",
"48 1500 LINE",
"229 0 LINE"
);
}
);
width = 1426;
}
);
unicode = 0077;
userData = {
com.typemytype.robofont.layerData = {
};
};
},
{
glyphname = x;
layers = (
{
anchors = (
{
name = bottom;
position = "{470, 0}";
},
{
name = top;
position = "{470, 1500}";
}
);
background = {
anchors = (
{
name = bottom;
position = "{470, 0}";
},
{
name = top;
position = "{470, 1500}";
}
);
paths = (
{
closed = 1;
nodes = (
"279 0 LINE",
"520 714 LINE",
"660 754 LINE",
"920 1501 LINE",
"654 1501 LINE",
"434 869 LINE",
"292 833 LINE",
"8 0 LINE"
);
},
{
closed = 1;
nodes = (
"932 0 LINE",
"398 1501 LINE",
"33 1501 LINE",
"573 0 LINE"
);
}
);
};
layerId = "6CD1E358-6E98-409F-9A1F-EA9DE4C1A8AA";
paths = (
{
closed = 1;
nodes = (
"279 0 LINE",
"520 714 LINE",
"660 754 LINE",
"920 1501 LINE",
"654 1501 LINE",
"434 869 LINE",
"292 833 LINE",
"8 0 LINE"
);
},
{
closed = 1;
nodes = (
"932 0 LINE",
"398 1501 LINE",
"33 1501 LINE",
"573 0 LINE"
);
}
);
width = 940;
}
);
unicode = 0078;
userData = {
com.typemytype.robofont.layerData = {
};
};
},
{
glyphname = y;
layers = (
{
anchors = (
{
name = bottom;
position = "{447, -250}";
},
{
name = top;
position = "{471, 1500}";
}
);
background = {
anchors = (
{
name = bottom;
position = "{447, -250}";
},
{
name = top;
position = "{471, 1500}";
}
);
paths = (
{
closed = 1;
nodes = (
"447 -250 LINE SMOOTH",
"576 -250 OFFCURVE",
"624 -191 OFFCURVE",
"644 -78 CURVE SMOOTH",
"922 1500 LINE",
"577 1500 LINE",
"497 767 LINE SMOOTH",
"459 395 LINE",
"425 767 LINE SMOOTH",
"359 1500 LINE",
"16 1500 LINE",
"250 31 LINE SMOOTH",
"255 0 OFFCURVE",
"257 -23 OFFCURVE",
"215 -23 CURVE SMOOTH",
"43 -23 LINE",
"43 -250 LINE"
);
}
);
};
layerId = "6CD1E358-6E98-409F-9A1F-EA9DE4C1A8AA";
paths = (
{
closed = 1;
nodes = (
"447 -250 LINE SMOOTH",
"576 -250 OFFCURVE",
"624 -191 OFFCURVE",
"644 -78 CURVE SMOOTH",
"922 1500 LINE",
"577 1500 LINE",
"497 767 LINE SMOOTH",
"459 395 LINE",
"425 767 LINE SMOOTH",
"359 1500 LINE",
"16 1500 LINE",
"250 31 LINE SMOOTH",
"255 0 OFFCURVE",
"257 -23 OFFCURVE",
"215 -23 CURVE SMOOTH",
"43 -23 LINE",
"43 -250 LINE"
);
}
);
width = 944;
}
);
unicode = 0079;
userData = {
com.typemytype.robofont.layerData = {
};
};
},
{
glyphname = z;
layers = (
{
anchors = (
{
name = bottom;
position = "{395, 0}";
},
{
name = top;
position = "{436, 1500}";
}
);
background = {
anchors = (
{
name = bottom;
position = "{395, 0}";
},
{
name = top;
position = "{436, 1500}";
}
);
paths = (
{
closed = 1;
nodes = (
"776 0 LINE",
"776 268 LINE",
"420 268 LINE",
"773 1256 LINE",
"773 1500 LINE",
"46 1500 LINE",
"46 1216 LINE",
"402 1216 LINE",
"28 219 LINE",
"28 0 LINE"
);
}
);
};
layerId = "6CD1E358-6E98-409F-9A1F-EA9DE4C1A8AA";
paths = (
{
closed = 1;
nodes = (
"776 0 LINE",
"776 268 LINE",
"420 268 LINE",
"773 1256 LINE",
"773 1500 LINE",
"46 1500 LINE",
"46 1216 LINE",
"402 1216 LINE",
"28 219 LINE",
"28 0 LINE"
);
}
);
width = 790;
}
);
unicode = 007A;
userData = {
com.typemytype.robofont.layerData = {
};
};
},
{
glyphname = ordfeminine;
layers = (
{
background = {
paths = (
{
closed = 1;
nodes = (
"368 779 OFFCURVE",
"446 851 OFFCURVE",
"463 917 CURVE",
"463 793 LINE",
"745 793 LINE",
"745 1700 LINE SMOOTH",
"745 1891 OFFCURVE",
"606 1997 OFFCURVE",
"419 1997 CURVE SMOOTH",
"412 1997 LINE SMOOTH",
"169 1997 OFFCURVE",
"62 1906 OFFCURVE",
"62 1670 CURVE SMOOTH",
"62 1653 OFFCURVE",
"62 1640 OFFCURVE",
"63 1631 CURVE",
"339 1631 LINE",
"339 1711 LINE SMOOTH",
"339 1754 OFFCURVE",
"359 1776 OFFCURVE",
"398 1776 CURVE SMOOTH",
"474 1776 OFFCURVE",
"459 1649 OFFCURVE",
"459 1573 CURVE SMOOTH",
"459 1571 LINE",
"193 1480 OFFCURVE",
"44 1458 OFFCURVE",
"44 1134 CURVE SMOOTH",
"44 931 OFFCURVE",
"88 779 OFFCURVE",
"286 779 CURVE SMOOTH"
);
},
{
closed = 1;
nodes = (
"355 1001 OFFCURVE",
"334 1036 OFFCURVE",
"334 1106 CURVE SMOOTH",
"334 1245 LINE SMOOTH",
"334 1338 OFFCURVE",
"379 1376 OFFCURVE",
"458 1407 CURVE",
"458 1094 LINE SMOOTH",
"458 1049 OFFCURVE",
"444 1001 OFFCURVE",
"398 1001 CURVE SMOOTH"
);
}
);
};
layerId = "6CD1E358-6E98-409F-9A1F-EA9DE4C1A8AA";
paths = (
{
closed = 1;
nodes = (
"368 779 OFFCURVE",
"446 851 OFFCURVE",
"463 917 CURVE",
"463 793 LINE",
"745 793 LINE",
"745 1700 LINE SMOOTH",
"745 1891 OFFCURVE",
"606 1997 OFFCURVE",
"419 1997 CURVE SMOOTH",
"412 1997 LINE SMOOTH",
"169 1997 OFFCURVE",
"62 1906 OFFCURVE",
"62 1670 CURVE SMOOTH",
"62 1653 OFFCURVE",
"62 1640 OFFCURVE",
"63 1631 CURVE",
"339 1631 LINE",
"339 1711 LINE SMOOTH",
"339 1754 OFFCURVE",
"359 1776 OFFCURVE",
"398 1776 CURVE SMOOTH",
"474 1776 OFFCURVE",
"459 1649 OFFCURVE",
"459 1573 CURVE SMOOTH",
"459 1571 LINE",
"193 1480 OFFCURVE",
"44 1458 OFFCURVE",
"44 1134 CURVE SMOOTH",
"44 931 OFFCURVE",
"88 779 OFFCURVE",
"286 779 CURVE SMOOTH"
);
},
{
closed = 1;
nodes = (
"355 1001 OFFCURVE",
"334 1036 OFFCURVE",
"334 1106 CURVE SMOOTH",
"334 1245 LINE SMOOTH",
"334 1338 OFFCURVE",
"379 1376 OFFCURVE",
"458 1407 CURVE",
"458 1094 LINE SMOOTH",
"458 1049 OFFCURVE",
"444 1001 OFFCURVE",
"398 1001 CURVE SMOOTH"
);
}
);
width = 803;
}
);
unicode = 00AA;
userData = {
com.typemytype.robofont.layerData = {
};
};
},
{
glyphname = ordmasculine;
layers = (
{
background = {
paths = (
{
closed = 1;
nodes = (
"645 779 OFFCURVE",
"762 907 OFFCURVE",
"762 1149 CURVE SMOOTH",
"762 1627 LINE SMOOTH",
"762 1852 OFFCURVE",
"629 1997 OFFCURVE",
"406 1997 CURVE SMOOTH",
"403 1997 LINE SMOOTH",
"182 1997 OFFCURVE",
"50 1848 OFFCURVE",
"50 1627 CURVE SMOOTH",
"50 1149 LINE SMOOTH",
"50 902 OFFCURVE",
"169 779 OFFCURVE",
"406 779 CURVE SMOOTH"
);
},
{
closed = 1;
nodes = (
"339 1672 LINE SMOOTH",
"339 1741 OFFCURVE",
"361 1776 OFFCURVE",
"406 1776 CURVE SMOOTH",
"450 1776 OFFCURVE",
"472 1741 OFFCURVE",
"472 1672 CURVE SMOOTH",
"472 1091 LINE SMOOTH",
"472 961 OFFCURVE",
"339 978 OFFCURVE",
"339 1091 CURVE SMOOTH"
);
}
);
};
layerId = "6CD1E358-6E98-409F-9A1F-EA9DE4C1A8AA";
paths = (
{
closed = 1;
nodes = (
"645 779 OFFCURVE",
"762 907 OFFCURVE",
"762 1149 CURVE SMOOTH",
"762 1627 LINE SMOOTH",
"762 1852 OFFCURVE",
"629 1997 OFFCURVE",
"406 1997 CURVE SMOOTH",
"403 1997 LINE SMOOTH",
"182 1997 OFFCURVE",
"50 1848 OFFCURVE",
"50 1627 CURVE SMOOTH",
"50 1149 LINE SMOOTH",
"50 902 OFFCURVE",
"169 779 OFFCURVE",
"406 779 CURVE SMOOTH"
);
},
{
closed = 1;
nodes = (
"339 1672 LINE SMOOTH",
"339 1741 OFFCURVE",
"361 1776 OFFCURVE",
"406 1776 CURVE SMOOTH",
"450 1776 OFFCURVE",
"472 1741 OFFCURVE",
"472 1672 CURVE SMOOTH",
"472 1091 LINE SMOOTH",
"472 961 OFFCURVE",
"339 978 OFFCURVE",
"339 1091 CURVE SMOOTH"
);
}
);
width = 813;
}
);
unicode = 00BA;
userData = {
com.typemytype.robofont.layerData = {
};
};
},
{
glyphname = Delta;
layers = (
{
background = {
paths = (
{
closed = 1;
nodes = (
"1073 0 LINE",
"796 1760 LINE",
"299 1760 LINE",
"30 0 LINE"
);
},
{
closed = 1;
nodes = (
"515 1560 LINE",
"531 1560 LINE",
"668 225 LINE",
"359 225 LINE"
);
}
);
};
layerId = "6CD1E358-6E98-409F-9A1F-EA9DE4C1A8AA";
paths = (
{
closed = 1;
nodes = (
"1073 0 LINE",
"796 1760 LINE",
"299 1760 LINE",
"30 0 LINE"
);
},
{
closed = 1;
nodes = (
"515 1560 LINE",
"531 1560 LINE",
"668 225 LINE",
"359 225 LINE"
);
}
);
width = 1103;
}
);
unicode = 0394;
},
{
glyphname = Sigma;
layers = (
{
background = {
paths = (
{
closed = 1;
nodes = (
"795 -119 LINE",
"795 176 LINE",
"387 176 LINE",
"692 790 LINE",
"692 866 LINE",
"387 1444 LINE",
"779 1444 LINE",
"779 1760 LINE",
"62 1760 LINE",
"62 1455 LINE",
"399 822 LINE",
"62 149 LINE",
"62 -119 LINE"
);
}
);
};
layerId = "6CD1E358-6E98-409F-9A1F-EA9DE4C1A8AA";
paths = (
{
closed = 1;
nodes = (
"795 -119 LINE",
"795 176 LINE",
"387 176 LINE",
"692 790 LINE",
"692 866 LINE",
"387 1444 LINE",
"779 1444 LINE",
"779 1760 LINE",
"62 1760 LINE",
"62 1455 LINE",
"399 822 LINE",
"62 149 LINE",
"62 -119 LINE"
);
}
);
width = 836;
}
);
unicode = 03A3;
},
{
glyphname = pi;
layers = (
{
background = {
paths = (
{
closed = 1;
nodes = (
"533 0 LINE",
"533 1178 LINE",
"710 1178 LINE",
"720 0 LINE",
"1069 0 LINE",
"1065 1178 LINE",
"1206 1178 LINE",
"1206 1500 LINE",
"37 1500 LINE",
"37 1178 LINE",
"175 1178 LINE",
"175 0 LINE"
);
}
);
};
layerId = "6CD1E358-6E98-409F-9A1F-EA9DE4C1A8AA";
paths = (
{
closed = 1;
nodes = (
"533 0 LINE",
"533 1178 LINE",
"710 1178 LINE",
"720 0 LINE",
"1069 0 LINE",
"1065 1178 LINE",
"1206 1178 LINE",
"1206 1500 LINE",
"37 1500 LINE",
"37 1178 LINE",
"175 1178 LINE",
"175 0 LINE"
);
}
);
width = 1241;
}
);
unicode = 03C0;
userData = {
com.typemytype.robofont.layerData = {
};
};
},
{
glyphname = zero;
layers = (
{
background = {
paths = (
{
closed = 1;
nodes = (
"804 -16 OFFCURVE",
"972 156 OFFCURVE",
"972 469 CURVE SMOOTH",
"972 1263 LINE SMOOTH",
"972 1594 OFFCURVE",
"820 1776 OFFCURVE",
"506 1776 CURVE SMOOTH",
"192 1776 OFFCURVE",
"40 1594 OFFCURVE",
"40 1263 CURVE SMOOTH",
"40 469 LINE SMOOTH",
"40 156 OFFCURVE",
"208 -16 OFFCURVE",
"506 -16 CURVE SMOOTH"
);
},
{
closed = 1;
nodes = (
"452 308 OFFCURVE",
"419 366 OFFCURVE",
"419 428 CURVE SMOOTH",
"419 1297 LINE SMOOTH",
"419 1379 OFFCURVE",
"426 1452 OFFCURVE",
"506 1452 CURVE SMOOTH",
"586 1452 OFFCURVE",
"593 1379 OFFCURVE",
"593 1297 CURVE SMOOTH",
"593 428 LINE SMOOTH",
"593 366 OFFCURVE",
"560 308 OFFCURVE",
"506 308 CURVE SMOOTH"
);
}
);
};
layerId = "6CD1E358-6E98-409F-9A1F-EA9DE4C1A8AA";
paths = (
{
closed = 1;
nodes = (
"804 -16 OFFCURVE",
"972 156 OFFCURVE",
"972 469 CURVE SMOOTH",
"972 1263 LINE SMOOTH",
"972 1594 OFFCURVE",
"820 1776 OFFCURVE",
"506 1776 CURVE SMOOTH",
"192 1776 OFFCURVE",
"40 1594 OFFCURVE",
"40 1263 CURVE SMOOTH",
"40 469 LINE SMOOTH",
"40 156 OFFCURVE",
"208 -16 OFFCURVE",
"506 -16 CURVE SMOOTH"
);
},
{
closed = 1;
nodes = (
"452 308 OFFCURVE",
"419 366 OFFCURVE",
"419 428 CURVE SMOOTH",
"419 1297 LINE SMOOTH",
"419 1379 OFFCURVE",
"426 1452 OFFCURVE",
"506 1452 CURVE SMOOTH",
"586 1452 OFFCURVE",
"593 1379 OFFCURVE",
"593 1297 CURVE SMOOTH",
"593 428 LINE SMOOTH",
"593 366 OFFCURVE",
"560 308 OFFCURVE",
"506 308 CURVE SMOOTH"
);
}
);
width = 1012;
}
);
unicode = 0030;
userData = {
com.typemytype.robofont.layerData = {
};
};
},
{
glyphname = one;
layers = (
{
background = {
paths = (
{
closed = 1;
nodes = (
"615 0 LINE",
"615 1761 LINE",
"332 1761 LINE",
"276 1629 OFFCURVE",
"130 1556 OFFCURVE",
"24 1541 CURVE",
"24 1260 LINE",
"98 1260 OFFCURVE",
"194 1299 OFFCURVE",
"242 1356 CURVE",
"242 0 LINE"
);
}
);
};
layerId = "6CD1E358-6E98-409F-9A1F-EA9DE4C1A8AA";
paths = (
{
closed = 1;
nodes = (
"615 0 LINE",
"615 1761 LINE",
"332 1761 LINE",
"276 1629 OFFCURVE",
"130 1556 OFFCURVE",
"24 1541 CURVE",
"24 1260 LINE",
"98 1260 OFFCURVE",
"194 1299 OFFCURVE",
"242 1356 CURVE",
"242 0 LINE"
);
}
);
width = 677;
}
);
unicode = 0031;
userData = {
com.typemytype.robofont.layerData = {
};
};
},
{
glyphname = two;
layers = (
{
background = {
paths = (
{
closed = 1;
nodes = (
"975 0 LINE",
"975 332 LINE",
"495 332 LINE",
"653 645 OFFCURVE",
"987 823 OFFCURVE",
"987 1293 CURVE SMOOTH",
"987 1597 OFFCURVE",
"817 1767 OFFCURVE",
"525 1767 CURVE SMOOTH",
"156 1767 OFFCURVE",
"58 1553 OFFCURVE",
"58 1173 CURVE SMOOTH",
"62 1065 LINE",
"432 1065 LINE",
"432 1280 LINE SMOOTH",
"432 1384 OFFCURVE",
"461 1437 OFFCURVE",
"520 1437 CURVE SMOOTH",
"597 1437 OFFCURVE",
"615 1369 OFFCURVE",
"615 1286 CURVE SMOOTH",
"615 1164 OFFCURVE",
"585 1067 OFFCURVE",
"525 992 CURVE SMOOTH",
"406 844 OFFCURVE",
"326 743 OFFCURVE",
"287 689 CURVE SMOOTH",
"141 484 OFFCURVE",
"62 337 OFFCURVE",
"62 84 CURVE SMOOTH",
"62 0 LINE"
);
}
);
};
layerId = "6CD1E358-6E98-409F-9A1F-EA9DE4C1A8AA";
paths = (
{
closed = 1;
nodes = (
"975 0 LINE",
"975 332 LINE",
"495 332 LINE",
"653 645 OFFCURVE",
"987 823 OFFCURVE",
"987 1293 CURVE SMOOTH",
"987 1597 OFFCURVE",
"817 1767 OFFCURVE",
"525 1767 CURVE SMOOTH",
"156 1767 OFFCURVE",
"58 1553 OFFCURVE",
"58 1173 CURVE SMOOTH",
"62 1065 LINE",
"432 1065 LINE",
"432 1280 LINE SMOOTH",
"432 1384 OFFCURVE",
"461 1437 OFFCURVE",
"520 1437 CURVE SMOOTH",
"597 1437 OFFCURVE",
"615 1369 OFFCURVE",
"615 1286 CURVE SMOOTH",
"615 766 OFFCURVE",
"62 603 OFFCURVE",
"62 84 CURVE SMOOTH",
"62 0 LINE"
);
}
);
width = 1012;
}
);
unicode = 0032;
userData = {
com.typemytype.robofont.layerData = {
};
};
},
{
glyphname = three;
layers = (
{
background = {
paths = (
{
closed = 1;
nodes = (
"825 -20 OFFCURVE",
"961 178 OFFCURVE",
"961 530 CURVE SMOOTH",
"961 766 OFFCURVE",
"942 889 OFFCURVE",
"792 962 CURVE",
"918 1007 OFFCURVE",
"957 1122 OFFCURVE",
"957 1295 CURVE SMOOTH",
"957 1609 OFFCURVE",
"807 1763 OFFCURVE",
"507 1763 CURVE SMOOTH",
"196 1763 OFFCURVE",
"50 1618 OFFCURVE",
"48 1295 CURVE SMOOTH",
"50 1233 LINE",
"414 1233 LINE",
"414 1286 LINE",
"426 1369 OFFCURVE",
"415 1440 OFFCURVE",
"509 1440 CURVE SMOOTH",
"566 1440 OFFCURVE",
"595 1391 OFFCURVE",
"595 1291 CURVE SMOOTH",
"595 1164 OFFCURVE",
"529 1115 OFFCURVE",
"408 1115 CURVE",
"408 799 LINE",
"416 800 OFFCURVE",
"427 801 OFFCURVE",
"442 801 CURVE SMOOTH",
"560 801 OFFCURVE",
"592 695 OFFCURVE",
"592 574 CURVE SMOOTH",
"592 530 LINE SMOOTH",
"592 418 OFFCURVE",
"596 306 OFFCURVE",
"501 306 CURVE SMOOTH",
"414 306 OFFCURVE",
"400 380 OFFCURVE",
"400 473 CURVE SMOOTH",
"400 658 LINE",
"39 658 LINE",
"39 474 LINE SMOOTH",
"39 143 OFFCURVE",
"173 -20 OFFCURVE",
"484 -20 CURVE SMOOTH"
);
}
);
};
layerId = "6CD1E358-6E98-409F-9A1F-EA9DE4C1A8AA";
paths = (
{
closed = 1;
nodes = (
"825 -20 OFFCURVE",
"961 178 OFFCURVE",
"961 530 CURVE SMOOTH",
"961 766 OFFCURVE",
"942 889 OFFCURVE",
"792 962 CURVE",
"918 1007 OFFCURVE",
"957 1122 OFFCURVE",
"957 1295 CURVE SMOOTH",
"957 1609 OFFCURVE",
"807 1763 OFFCURVE",
"507 1763 CURVE SMOOTH",
"196 1763 OFFCURVE",
"50 1618 OFFCURVE",
"48 1295 CURVE SMOOTH",
"50 1233 LINE",
"414 1233 LINE",
"414 1286 LINE",
"426 1369 OFFCURVE",
"415 1440 OFFCURVE",
"509 1440 CURVE SMOOTH",
"566 1440 OFFCURVE",
"595 1391 OFFCURVE",
"595 1291 CURVE SMOOTH",
"595 1164 OFFCURVE",
"529 1115 OFFCURVE",
"408 1115 CURVE",
"408 799 LINE",
"416 800 OFFCURVE",
"427 801 OFFCURVE",
"442 801 CURVE SMOOTH",
"560 801 OFFCURVE",
"592 695 OFFCURVE",
"592 574 CURVE SMOOTH",
"592 530 LINE SMOOTH",
"592 418 OFFCURVE",
"596 306 OFFCURVE",
"501 306 CURVE SMOOTH",
"414 306 OFFCURVE",
"400 380 OFFCURVE",
"400 473 CURVE SMOOTH",
"400 658 LINE",
"39 658 LINE",
"39 474 LINE SMOOTH",
"39 143 OFFCURVE",
"173 -20 OFFCURVE",
"484 -20 CURVE SMOOTH"
);
}
);
width = 1012;
}
);
unicode = 0033;
userData = {
com.typemytype.robofont.layerData = {
};
};
},
{
glyphname = four;
layers = (
{
background = {
paths = (
{
closed = 1;
nodes = (
"899 -1 LINE",
"899 278 LINE",
"993 278 LINE",
"993 572 LINE",
"899 572 LINE",
"899 1761 LINE",
"351 1761 LINE",
"18 553 LINE",
"18 278 LINE",
"540 278 LINE",
"540 -1 LINE"
);
},
{
closed = 1;
nodes = (
"540 1459 LINE",
"540 572 LINE",
"332 572 LINE"
);
}
);
};
layerId = "6CD1E358-6E98-409F-9A1F-EA9DE4C1A8AA";
paths = (
{
closed = 1;
nodes = (
"899 -1 LINE",
"899 278 LINE",
"993 278 LINE",
"993 572 LINE",
"899 572 LINE",
"899 1761 LINE",
"351 1761 LINE",
"18 553 LINE",
"18 278 LINE",
"540 278 LINE",
"540 -1 LINE"
);
},
{
closed = 1;
nodes = (
"540 1459 LINE",
"540 572 LINE",
"332 572 LINE"
);
}
);
width = 1012;
}
);
unicode = 0034;
userData = {
com.typemytype.robofont.layerData = {
};
};
},
{
glyphname = five;
layers = (
{
background = {
paths = (
{
closed = 1;
nodes = (
"917 -25 OFFCURVE",
"977 245 OFFCURVE",
"977 668 CURVE SMOOTH",
"977 999 OFFCURVE",
"914 1264 OFFCURVE",
"594 1264 CURVE SMOOTH",
"514 1264 OFFCURVE",
"453 1226 OFFCURVE",
"419 1183 CURVE",
"419 1431 LINE",
"924 1431 LINE",
"924 1761 LINE",
"85 1761 LINE",
"85 825 LINE",
"408 825 LINE",
"408 922 OFFCURVE",
"441 970 OFFCURVE",
"508 970 CURVE SMOOTH",
"591 970 OFFCURVE",
"599 873 OFFCURVE",
"599 787 CURVE SMOOTH",
"599 441 LINE SMOOTH",
"599 361 OFFCURVE",
"582 304 OFFCURVE",
"506 304 CURVE SMOOTH",
"419 304 OFFCURVE",
"412 400 OFFCURVE",
"412 495 CURVE SMOOTH",
"412 646 LINE",
"46 646 LINE",
"46 384 LINE SMOOTH",
"46 107 OFFCURVE",
"235 -25 OFFCURVE",
"506 -25 CURVE SMOOTH"
);
}
);
};
layerId = "6CD1E358-6E98-409F-9A1F-EA9DE4C1A8AA";
paths = (
{
closed = 1;
nodes = (
"917 -25 OFFCURVE",
"977 245 OFFCURVE",
"977 668 CURVE SMOOTH",
"977 999 OFFCURVE",
"914 1264 OFFCURVE",
"594 1264 CURVE SMOOTH",
"514 1264 OFFCURVE",
"453 1226 OFFCURVE",
"419 1183 CURVE",
"419 1431 LINE",
"924 1431 LINE",
"924 1761 LINE",
"85 1761 LINE",
"85 825 LINE",
"408 825 LINE",
"408 922 OFFCURVE",
"441 970 OFFCURVE",
"508 970 CURVE SMOOTH",
"591 970 OFFCURVE",
"599 873 OFFCURVE",
"599 787 CURVE SMOOTH",
"599 441 LINE SMOOTH",
"599 361 OFFCURVE",
"582 304 OFFCURVE",
"506 304 CURVE SMOOTH",
"419 304 OFFCURVE",
"412 400 OFFCURVE",
"412 495 CURVE SMOOTH",
"412 646 LINE",
"46 646 LINE",
"46 384 LINE SMOOTH",
"46 107 OFFCURVE",
"235 -25 OFFCURVE",
"506 -25 CURVE SMOOTH"
);
}
);
width = 1012;
}
);
unicode = 0035;
userData = {
com.typemytype.robofont.layerData = {
};
};
},
{
glyphname = six;
layers = (
{
background = {
paths = (
{
closed = 1;
nodes = (
"873 -16 OFFCURVE",
"988 217 OFFCURVE",
"988 569 CURVE SMOOTH",
"988 916 OFFCURVE",
"916 1092 OFFCURVE",
"625 1092 CURVE SMOOTH",
"529 1092 OFFCURVE",
"461 1050 OFFCURVE",
"428 988 CURVE",
"428 1341 LINE SMOOTH",
"428 1422 OFFCURVE",
"454 1467 OFFCURVE",
"533 1467 CURVE SMOOTH",
"618 1467 OFFCURVE",
"621 1365 OFFCURVE",
"621 1277 CURVE SMOOTH",
"621 1241 LINE",
"960 1241 LINE",
"960 1431 LINE SMOOTH",
"960 1660 OFFCURVE",
"761 1776 OFFCURVE",
"539 1776 CURVE SMOOTH",
"106 1776 OFFCURVE",
"54 1512 OFFCURVE",
"54 1025 CURVE SMOOTH",
"54 549 LINE SMOOTH",
"54 172 OFFCURVE",
"162 -16 OFFCURVE",
"529 -16 CURVE SMOOTH"
);
},
{
closed = 1;
nodes = (
"457 308 OFFCURVE",
"428 351 OFFCURVE",
"428 438 CURVE SMOOTH",
"428 656 LINE SMOOTH",
"428 739 OFFCURVE",
"459 781 OFFCURVE",
"521 781 CURVE SMOOTH",
"575 781 OFFCURVE",
"602 733 OFFCURVE",
"602 637 CURVE SMOOTH",
"602 495 LINE SMOOTH",
"602 386 OFFCURVE",
"599 308 OFFCURVE",
"516 308 CURVE SMOOTH"
);
}
);
};
layerId = "6CD1E358-6E98-409F-9A1F-EA9DE4C1A8AA";
paths = (
{
closed = 1;
nodes = (
"873 -16 OFFCURVE",
"988 217 OFFCURVE",
"988 569 CURVE SMOOTH",
"988 916 OFFCURVE",
"916 1092 OFFCURVE",
"625 1092 CURVE SMOOTH",
"529 1092 OFFCURVE",
"461 1050 OFFCURVE",
"428 988 CURVE",
"428 1341 LINE SMOOTH",
"428 1422 OFFCURVE",
"454 1467 OFFCURVE",
"533 1467 CURVE SMOOTH",
"618 1467 OFFCURVE",
"621 1365 OFFCURVE",
"621 1277 CURVE SMOOTH",
"621 1241 LINE",
"960 1241 LINE",
"960 1431 LINE SMOOTH",
"960 1660 OFFCURVE",
"761 1776 OFFCURVE",
"539 1776 CURVE SMOOTH",
"106 1776 OFFCURVE",
"54 1512 OFFCURVE",
"54 1025 CURVE SMOOTH",
"54 549 LINE SMOOTH",
"54 172 OFFCURVE",
"162 -16 OFFCURVE",
"529 -16 CURVE SMOOTH"
);
},
{
closed = 1;
nodes = (
"457 308 OFFCURVE",
"428 351 OFFCURVE",
"428 438 CURVE SMOOTH",
"428 656 LINE SMOOTH",
"428 739 OFFCURVE",
"459 781 OFFCURVE",
"521 781 CURVE SMOOTH",
"575 781 OFFCURVE",
"602 733 OFFCURVE",
"602 637 CURVE SMOOTH",
"602 495 LINE SMOOTH",
"602 386 OFFCURVE",
"599 308 OFFCURVE",
"516 308 CURVE SMOOTH"
);
}
);
width = 1012;
}
);
unicode = 0036;
userData = {
com.typemytype.robofont.layerData = {
};
};
},
{
glyphname = seven;
layers = (
{
background = {
paths = (
{
closed = 1;
nodes = (
"543 1 LINE",
"566 368 OFFCURVE",
"653 676 OFFCURVE",
"758 946 CURVE SMOOTH",
"829 1129 OFFCURVE",
"936 1292 OFFCURVE",
"958 1499 CURVE",
"958 1761 LINE",
"70 1761 LINE",
"70 1435 LINE",
"567 1435 LINE",
"497 1252 LINE SMOOTH",
"356 883 OFFCURVE",
"177 492 OFFCURVE",
"145 1 CURVE"
);
}
);
};
layerId = "6CD1E358-6E98-409F-9A1F-EA9DE4C1A8AA";
paths = (
{
closed = 1;
nodes = (
"543 1 LINE",
"566 368 OFFCURVE",
"653 676 OFFCURVE",
"758 946 CURVE SMOOTH",
"829 1129 OFFCURVE",
"936 1292 OFFCURVE",
"958 1499 CURVE",
"958 1761 LINE",
"70 1761 LINE",
"70 1435 LINE",
"567 1435 LINE",
"497 1252 LINE SMOOTH",
"356 883 OFFCURVE",
"177 492 OFFCURVE",
"145 1 CURVE"
);
}
);
width = 1012;
}
);
unicode = 0037;
userData = {
com.typemytype.robofont.layerData = {
};
};
},
{
glyphname = eight;
layers = (
{
background = {
paths = (
{
closed = 1;
nodes = (
"837 -19 OFFCURVE",
"965 178 OFFCURVE",
"965 525 CURVE",
"966 535 OFFCURVE",
"966 550 OFFCURVE",
"966 569 CURVE SMOOTH",
"966 776 OFFCURVE",
"952 918 OFFCURVE",
"815 984 CURVE",
"934 1034 OFFCURVE",
"964 1152 OFFCURVE",
"964 1321 CURVE SMOOTH",
"964 1644 OFFCURVE",
"812 1782 OFFCURVE",
"506 1782 CURVE SMOOTH",
"207 1782 OFFCURVE",
"47 1647 OFFCURVE",
"47 1335 CURVE SMOOTH",
"47 1289 LINE SMOOTH",
"47 1135 OFFCURVE",
"88 1030 OFFCURVE",
"196 986 CURVE",
"81 927 OFFCURVE",
"46 820 OFFCURVE",
"46 642 CURVE SMOOTH",
"46 525 LINE SMOOTH",
"46 178 OFFCURVE",
"175 -19 OFFCURVE",
"506 -19 CURVE SMOOTH"
);
},
{
closed = 1;
nodes = (
"442 329 OFFCURVE",
"410 387 OFFCURVE",
"410 503 CURVE SMOOTH",
"410 514 OFFCURVE",
"411 550 OFFCURVE",
"411 560 CURVE SMOOTH",
"411 575 LINE",
"404 674 OFFCURVE",
"415 815 OFFCURVE",
"506 815 CURVE SMOOTH",
"597 815 OFFCURVE",
"601 686 OFFCURVE",
"601 592 CURVE SMOOTH",
"601 571 OFFCURVE",
"602 525 OFFCURVE",
"602 503 CURVE SMOOTH",
"602 387 OFFCURVE",
"570 329 OFFCURVE",
"506 329 CURVE SMOOTH"
);
},
{
closed = 1;
nodes = (
"444 1134 OFFCURVE",
"413 1190 OFFCURVE",
"413 1302 CURVE SMOOTH",
"413 1377 OFFCURVE",
"434 1458 OFFCURVE",
"506 1458 CURVE SMOOTH",
"578 1458 OFFCURVE",
"599 1377 OFFCURVE",
"599 1302 CURVE SMOOTH",
"599 1190 OFFCURVE",
"568 1134 OFFCURVE",
"506 1134 CURVE SMOOTH"
);
}
);
};
layerId = "6CD1E358-6E98-409F-9A1F-EA9DE4C1A8AA";
paths = (
{
closed = 1;
nodes = (
"837 -19 OFFCURVE",
"965 178 OFFCURVE",
"965 525 CURVE",
"966 535 OFFCURVE",
"966 550 OFFCURVE",
"966 569 CURVE SMOOTH",
"966 776 OFFCURVE",
"952 918 OFFCURVE",
"815 984 CURVE",
"934 1034 OFFCURVE",
"964 1152 OFFCURVE",
"964 1321 CURVE SMOOTH",
"964 1644 OFFCURVE",
"812 1782 OFFCURVE",
"506 1782 CURVE SMOOTH",
"207 1782 OFFCURVE",
"47 1647 OFFCURVE",
"47 1335 CURVE SMOOTH",
"47 1289 LINE SMOOTH",
"47 1135 OFFCURVE",
"88 1030 OFFCURVE",
"196 986 CURVE",
"81 927 OFFCURVE",
"46 820 OFFCURVE",
"46 642 CURVE SMOOTH",
"46 525 LINE SMOOTH",
"46 178 OFFCURVE",
"175 -19 OFFCURVE",
"506 -19 CURVE SMOOTH"
);
},
{
closed = 1;
nodes = (
"442 329 OFFCURVE",
"410 387 OFFCURVE",
"410 503 CURVE SMOOTH",
"410 514 OFFCURVE",
"411 550 OFFCURVE",
"411 560 CURVE SMOOTH",
"411 575 LINE",
"404 674 OFFCURVE",
"415 815 OFFCURVE",
"506 815 CURVE SMOOTH",
"597 815 OFFCURVE",
"601 686 OFFCURVE",
"601 592 CURVE SMOOTH",
"601 571 OFFCURVE",
"602 525 OFFCURVE",
"602 503 CURVE SMOOTH",
"602 387 OFFCURVE",
"570 329 OFFCURVE",
"506 329 CURVE SMOOTH"
);
},
{
closed = 1;
nodes = (
"444 1134 OFFCURVE",
"413 1190 OFFCURVE",
"413 1302 CURVE SMOOTH",
"413 1377 OFFCURVE",
"434 1458 OFFCURVE",
"506 1458 CURVE SMOOTH",
"578 1458 OFFCURVE",
"599 1377 OFFCURVE",
"599 1302 CURVE SMOOTH",
"599 1190 OFFCURVE",
"568 1134 OFFCURVE",
"506 1134 CURVE SMOOTH"
);
}
);
width = 1012;
}
);
unicode = 0038;
userData = {
com.typemytype.robofont.layerData = {
};
};
},
{
glyphname = nine;
layers = (
{
background = {
paths = (
{
closed = 1;
nodes = (
"933 -16 OFFCURVE",
"985 248 OFFCURVE",
"985 735 CURVE SMOOTH",
"985 1211 LINE SMOOTH",
"985 1588 OFFCURVE",
"877 1776 OFFCURVE",
"510 1776 CURVE SMOOTH",
"166 1776 OFFCURVE",
"51 1543 OFFCURVE",
"51 1191 CURVE SMOOTH",
"51 844 OFFCURVE",
"123 668 OFFCURVE",
"414 668 CURVE SMOOTH",
"510 668 OFFCURVE",
"578 710 OFFCURVE",
"611 772 CURVE",
"611 419 LINE SMOOTH",
"611 338 OFFCURVE",
"585 293 OFFCURVE",
"506 293 CURVE SMOOTH",
"421 293 OFFCURVE",
"418 395 OFFCURVE",
"418 483 CURVE SMOOTH",
"418 519 LINE",
"79 519 LINE",
"79 329 LINE SMOOTH",
"79 100 OFFCURVE",
"278 -16 OFFCURVE",
"500 -16 CURVE SMOOTH"
);
},
{
closed = 1;
nodes = (
"464 979 OFFCURVE",
"437 1027 OFFCURVE",
"437 1123 CURVE SMOOTH",
"437 1265 LINE SMOOTH",
"437 1374 OFFCURVE",
"440 1452 OFFCURVE",
"523 1452 CURVE SMOOTH",
"582 1452 OFFCURVE",
"611 1409 OFFCURVE",
"611 1322 CURVE SMOOTH",
"611 1104 LINE SMOOTH",
"611 1021 OFFCURVE",
"580 979 OFFCURVE",
"518 979 CURVE SMOOTH"
);
}
);
};
layerId = "6CD1E358-6E98-409F-9A1F-EA9DE4C1A8AA";
paths = (
{
closed = 1;
nodes = (
"933 -16 OFFCURVE",
"985 248 OFFCURVE",
"985 735 CURVE SMOOTH",
"985 1211 LINE SMOOTH",
"985 1588 OFFCURVE",
"877 1776 OFFCURVE",
"510 1776 CURVE SMOOTH",
"166 1776 OFFCURVE",
"51 1543 OFFCURVE",
"51 1191 CURVE SMOOTH",
"51 844 OFFCURVE",
"123 668 OFFCURVE",
"414 668 CURVE SMOOTH",
"510 668 OFFCURVE",
"578 710 OFFCURVE",
"611 772 CURVE",
"611 419 LINE SMOOTH",
"611 338 OFFCURVE",
"585 293 OFFCURVE",
"506 293 CURVE SMOOTH",
"421 293 OFFCURVE",
"418 395 OFFCURVE",
"418 483 CURVE SMOOTH",
"418 519 LINE",
"79 519 LINE",
"79 329 LINE SMOOTH",
"79 100 OFFCURVE",
"278 -16 OFFCURVE",
"500 -16 CURVE SMOOTH"
);
},
{
closed = 1;
nodes = (
"464 979 OFFCURVE",
"437 1027 OFFCURVE",
"437 1123 CURVE SMOOTH",
"437 1265 LINE SMOOTH",
"437 1374 OFFCURVE",
"440 1452 OFFCURVE",
"523 1452 CURVE SMOOTH",
"582 1452 OFFCURVE",
"611 1409 OFFCURVE",
"611 1322 CURVE SMOOTH",
"611 1104 LINE SMOOTH",
"611 1021 OFFCURVE",
"580 979 OFFCURVE",
"518 979 CURVE SMOOTH"
);
}
);
width = 1033;
}
);
unicode = 0039;
userData = {
com.typemytype.robofont.layerData = {
};
};
},
{
glyphname = onesuperior;
layers = (
{
background = {
paths = (
{
closed = 1;
nodes = (
"362 656 LINE",
"362 1607 LINE",
"203 1607 LINE",
"203 1545 OFFCURVE",
"87 1487 OFFCURVE",
"29 1487 CURVE",
"30 1483 OFFCURVE",
"31 1469 OFFCURVE",
"31 1444 CURVE SMOOTH",
"31 1413 OFFCURVE",
"30 1377 OFFCURVE",
"29 1334 CURVE",
"72 1334 OFFCURVE",
"113 1344 OFFCURVE",
"152 1364 CURVE",
"152 656 LINE"
);
}
);
};
layerId = "6CD1E358-6E98-409F-9A1F-EA9DE4C1A8AA";
paths = (
{
closed = 1;
nodes = (
"362 819 LINE",
"362 1760 LINE",
"203 1760 LINE",
"203 1698 OFFCURVE",
"87 1640 OFFCURVE",
"29 1640 CURVE",
"30 1636 OFFCURVE",
"31 1622 OFFCURVE",
"31 1597 CURVE SMOOTH",
"31 1566 OFFCURVE",
"30 1530 OFFCURVE",
"29 1487 CURVE",
"72 1487 OFFCURVE",
"113 1497 OFFCURVE",
"152 1517 CURVE",
"152 819 LINE"
);
}
);
width = 421;
}
);
unicode = 00B9;
userData = {
com.typemytype.robofont.layerData = {
};
};
},
{
glyphname = twosuperior;
layers = (
{
background = {
paths = (
{
closed = 1;
nodes = (
"566 631 LINE",
"566 814 LINE",
"293 814 LINE",
"383 987 OFFCURVE",
"573 1085 OFFCURVE",
"573 1344 CURVE SMOOTH",
"573 1511 OFFCURVE",
"475 1606 OFFCURVE",
"310 1606 CURVE SMOOTH",
"99 1606 OFFCURVE",
"45 1496 OFFCURVE",
"45 1278 CURVE SMOOTH",
"47 1218 LINE",
"257 1218 LINE",
"257 1337 LINE SMOOTH",
"257 1395 OFFCURVE",
"274 1424 OFFCURVE",
"308 1424 CURVE SMOOTH",
"343 1424 OFFCURVE",
"361 1396 OFFCURVE",
"361 1341 CURVE SMOOTH",
"361 1272 OFFCURVE",
"344 1218 OFFCURVE",
"310 1178 CURVE SMOOTH",
"175 1015 OFFCURVE",
"47 890 OFFCURVE",
"47 678 CURVE SMOOTH",
"47 631 LINE"
);
}
);
};
layerId = "6CD1E358-6E98-409F-9A1F-EA9DE4C1A8AA";
paths = (
{
closed = 1;
nodes = (
"566 801 LINE",
"566 984 LINE",
"293 984 LINE",
"383 1157 OFFCURVE",
"573 1255 OFFCURVE",
"573 1514 CURVE SMOOTH",
"573 1681 OFFCURVE",
"475 1776 OFFCURVE",
"310 1776 CURVE SMOOTH",
"99 1776 OFFCURVE",
"38 1666 OFFCURVE",
"45 1448 CURVE SMOOTH",
"47 1388 LINE",
"257 1388 LINE",
"257 1507 LINE SMOOTH",
"257 1565 OFFCURVE",
"274 1594 OFFCURVE",
"308 1594 CURVE SMOOTH",
"343 1594 OFFCURVE",
"361 1566 OFFCURVE",
"361 1511 CURVE SMOOTH",
"361 1254 OFFCURVE",
"47 1193 OFFCURVE",
"47 848 CURVE SMOOTH",
"47 801 LINE"
);
}
);
width = 618;
}
);
unicode = 00B2;
userData = {
com.typemytype.robofont.layerData = {
};
};
},
{
glyphname = threesuperior;
layers = (
{
background = {
paths = (
{
closed = 1;
nodes = (
"483 635 OFFCURVE",
"559 743 OFFCURVE",
"559 935 CURVE SMOOTH",
"559 1066 OFFCURVE",
"548 1132 OFFCURVE",
"464 1170 CURVE",
"534 1194 OFFCURVE",
"556 1258 OFFCURVE",
"556 1351 CURVE SMOOTH",
"556 1521 OFFCURVE",
"472 1606 OFFCURVE",
"304 1606 CURVE SMOOTH",
"130 1606 OFFCURVE",
"48 1532 OFFCURVE",
"47 1351 CURVE SMOOTH",
"48 1317 LINE",
"252 1317 LINE",
"255 1373 OFFCURVE",
"244 1430 OFFCURVE",
"305 1430 CURVE SMOOTH",
"337 1430 OFFCURVE",
"353 1403 OFFCURVE",
"353 1349 CURVE SMOOTH",
"353 1279 OFFCURVE",
"317 1254 OFFCURVE",
"248 1254 CURVE",
"248 1081 LINE",
"253 1082 OFFCURVE",
"259 1082 OFFCURVE",
"268 1082 CURVE SMOOTH",
"344 1082 OFFCURVE",
"352 1011 OFFCURVE",
"352 935 CURVE SMOOTH",
"352 865 OFFCURVE",
"352 813 OFFCURVE",
"301 813 CURVE SMOOTH",
"253 813 OFFCURVE",
"244 851 OFFCURVE",
"244 903 CURVE SMOOTH",
"244 1004 LINE",
"42 1004 LINE",
"42 904 LINE SMOOTH",
"42 725 OFFCURVE",
"117 635 OFFCURVE",
"291 635 CURVE SMOOTH"
);
}
);
};
layerId = "6CD1E358-6E98-409F-9A1F-EA9DE4C1A8AA";
paths = (
{
closed = 1;
nodes = (
"483 805 OFFCURVE",
"559 913 OFFCURVE",
"559 1105 CURVE SMOOTH",
"559 1236 OFFCURVE",
"548 1302 OFFCURVE",
"464 1340 CURVE",
"534 1364 OFFCURVE",
"556 1428 OFFCURVE",
"556 1521 CURVE SMOOTH",
"556 1691 OFFCURVE",
"472 1776 OFFCURVE",
"304 1776 CURVE SMOOTH",
"130 1776 OFFCURVE",
"42 1702 OFFCURVE",
"47 1521 CURVE SMOOTH",
"48 1487 LINE",
"252 1487 LINE",
"255 1543 OFFCURVE",
"244 1600 OFFCURVE",
"305 1600 CURVE SMOOTH",
"337 1600 OFFCURVE",
"353 1573 OFFCURVE",
"353 1519 CURVE SMOOTH",
"353 1449 OFFCURVE",
"317 1424 OFFCURVE",
"248 1424 CURVE",
"248 1251 LINE",
"253 1252 OFFCURVE",
"259 1252 OFFCURVE",
"268 1252 CURVE SMOOTH",
"344 1252 OFFCURVE",
"352 1181 OFFCURVE",
"352 1105 CURVE SMOOTH",
"352 1035 OFFCURVE",
"352 983 OFFCURVE",
"301 983 CURVE SMOOTH",
"253 983 OFFCURVE",
"244 1021 OFFCURVE",
"244 1073 CURVE SMOOTH",
"244 1174 LINE",
"42 1174 LINE",
"42 1074 LINE SMOOTH",
"42 895 OFFCURVE",
"117 805 OFFCURVE",
"291 805 CURVE SMOOTH"
);
}
);
width = 610;
}
);
unicode = 00B3;
userData = {
com.typemytype.robofont.layerData = {
};
};
},
{
glyphname = foursuperior;
layers = (
{
background = {
paths = (
{
closed = 1;
nodes = (
"540 834 LINE",
"540 986 LINE",
"579 986 LINE",
"579 1157 LINE",
"540 1157 LINE",
"540 1776 LINE",
"217 1776 LINE",
"30 1135 LINE",
"30 986 LINE",
"333 986 LINE",
"333 834 LINE"
);
},
{
closed = 1;
nodes = (
"333 1562 LINE",
"333 1157 LINE",
"223 1157 LINE"
);
}
);
};
layerId = "6CD1E358-6E98-409F-9A1F-EA9DE4C1A8AA";
paths = (
{
closed = 1;
nodes = (
"540 819 LINE",
"540 971 LINE",
"579 971 LINE",
"579 1142 LINE",
"540 1142 LINE",
"540 1761 LINE",
"217 1761 LINE",
"30 1120 LINE",
"30 971 LINE",
"333 971 LINE",
"333 819 LINE"
);
},
{
closed = 1;
nodes = (
"333 1587 LINE",
"333 1142 LINE",
"223 1142 LINE"
);
}
);
width = 627;
}
);
unicode = 2074;
userData = {
com.typemytype.robofont.layerData = {
};
};
},
{
glyphname = fraction;
layers = (
{
background = {
paths = (
{
closed = 1;
nodes = (
"121 0 LINE",
"612 1767 LINE",
"328 1767 LINE",
"-162 0 LINE"
);
}
);
};
layerId = "6CD1E358-6E98-409F-9A1F-EA9DE4C1A8AA";
paths = (
{
closed = 1;
nodes = (
"-17 -16 LINE",
"663 1776 LINE",
"379 1776 LINE",
"-200 -16 LINE"
);
}
);
width = 463;
},
{
associatedMasterId = "6CD1E358-6E98-409F-9A1F-EA9DE4C1A8AA";
background = {
paths = (
{
closed = 1;
nodes = (
"312 0 LINE",
"803 1767 LINE",
"519 1767 LINE",
"29 0 LINE"
);
}
);
};
layerId = "2AF05795-7996-4ED5-9030-446ABFA4BC99";
name = "Regular Jul 21 16, 14:59";
paths = (
{
closed = 1;
nodes = (
"312 0 LINE",
"803 1767 LINE",
"519 1767 LINE",
"29 0 LINE"
);
}
);
width = 829;
}
);
unicode = 2044;
userData = {
com.typemytype.robofont.layerData = {
};
};
},
{
glyphname = onehalf;
layers = (
{
background = {
paths = (
{
closed = 1;
nodes = (
"614 0 LINE",
"1285 1767 LINE",
"1001 1767 LINE",
"431 0 LINE"
);
},
{
closed = 1;
nodes = (
"483 696 LINE",
"483 1647 LINE",
"324 1647 LINE",
"324 1585 OFFCURVE",
"208 1527 OFFCURVE",
"150 1527 CURVE",
"151 1523 OFFCURVE",
"152 1509 OFFCURVE",
"152 1484 CURVE SMOOTH",
"152 1453 OFFCURVE",
"151 1417 OFFCURVE",
"150 1374 CURVE",
"193 1374 OFFCURVE",
"234 1384 OFFCURVE",
"273 1404 CURVE",
"273 696 LINE"
);
},
{
closed = 1;
nodes = (
"1607 -1 LINE",
"1607 182 LINE",
"1334 182 LINE",
"1424 355 OFFCURVE",
"1614 453 OFFCURVE",
"1614 712 CURVE SMOOTH",
"1614 879 OFFCURVE",
"1516 974 OFFCURVE",
"1351 974 CURVE SMOOTH",
"1140 974 OFFCURVE",
"1086 864 OFFCURVE",
"1086 646 CURVE SMOOTH",
"1088 586 LINE",
"1298 586 LINE",
"1298 705 LINE SMOOTH",
"1298 763 OFFCURVE",
"1315 792 OFFCURVE",
"1349 792 CURVE SMOOTH",
"1384 792 OFFCURVE",
"1402 764 OFFCURVE",
"1402 709 CURVE SMOOTH",
"1402 640 OFFCURVE",
"1385 586 OFFCURVE",
"1351 546 CURVE SMOOTH",
"1216 383 OFFCURVE",
"1088 258 OFFCURVE",
"1088 46 CURVE SMOOTH",
"1088 -1 LINE"
);
}
);
};
components = (
{
alignment = -1;
name = onesuperior;
transform = "{1, 0, 0, 1, 121, 0}";
},
{
alignment = -1;
name = fraction;
transform = "{1, 0, 0, 1, 629, 10}";
},
{
name = twosuperior;
transform = "{1, 0, 0, 1, 1041, -801}";
}
);
layerId = "6CD1E358-6E98-409F-9A1F-EA9DE4C1A8AA";
width = 1764;
},
{
associatedMasterId = "6CD1E358-6E98-409F-9A1F-EA9DE4C1A8AA";
background = {
paths = (
{
closed = 1;
nodes = (
"486 0 LINE",
"1157 1767 LINE",
"873 1767 LINE",
"303 0 LINE"
);
},
{
closed = 1;
nodes = (
"355 696 LINE",
"355 1647 LINE",
"196 1647 LINE",
"196 1585 OFFCURVE",
"80 1527 OFFCURVE",
"22 1527 CURVE",
"23 1523 OFFCURVE",
"24 1509 OFFCURVE",
"24 1484 CURVE SMOOTH",
"24 1453 OFFCURVE",
"23 1417 OFFCURVE",
"22 1374 CURVE",
"65 1374 OFFCURVE",
"106 1384 OFFCURVE",
"145 1404 CURVE",
"145 696 LINE"
);
},
{
closed = 1;
nodes = (
"1479 -1 LINE",
"1479 182 LINE",
"1206 182 LINE",
"1296 355 OFFCURVE",
"1486 453 OFFCURVE",
"1486 712 CURVE SMOOTH",
"1486 879 OFFCURVE",
"1388 974 OFFCURVE",
"1223 974 CURVE SMOOTH",
"1012 974 OFFCURVE",
"958 864 OFFCURVE",
"958 646 CURVE SMOOTH",
"960 586 LINE",
"1170 586 LINE",
"1170 705 LINE SMOOTH",
"1170 763 OFFCURVE",
"1187 792 OFFCURVE",
"1221 792 CURVE SMOOTH",
"1256 792 OFFCURVE",
"1274 764 OFFCURVE",
"1274 709 CURVE SMOOTH",
"1274 640 OFFCURVE",
"1257 586 OFFCURVE",
"1223 546 CURVE SMOOTH",
"1088 383 OFFCURVE",
"960 258 OFFCURVE",
"960 46 CURVE SMOOTH",
"960 -1 LINE"
);
}
);
};
layerId = "27CB715D-A31D-4C1B-B44F-9685A1C2A895";
name = "Regular Jul 21 16, 17:18";
paths = (
{
closed = 1;
nodes = (
"486 0 LINE",
"1157 1767 LINE",
"873 1767 LINE",
"303 0 LINE"
);
},
{
closed = 1;
nodes = (
"355 696 LINE",
"355 1647 LINE",
"196 1647 LINE",
"196 1585 OFFCURVE",
"80 1527 OFFCURVE",
"22 1527 CURVE",
"23 1523 OFFCURVE",
"24 1509 OFFCURVE",
"24 1484 CURVE SMOOTH",
"24 1453 OFFCURVE",
"23 1417 OFFCURVE",
"22 1374 CURVE",
"65 1374 OFFCURVE",
"106 1384 OFFCURVE",
"145 1404 CURVE",
"145 696 LINE"
);
},
{
closed = 1;
nodes = (
"1479 -1 LINE",
"1479 182 LINE",
"1206 182 LINE",
"1296 355 OFFCURVE",
"1486 453 OFFCURVE",
"1486 712 CURVE SMOOTH",
"1486 879 OFFCURVE",
"1388 974 OFFCURVE",
"1223 974 CURVE SMOOTH",
"1012 974 OFFCURVE",
"958 864 OFFCURVE",
"958 646 CURVE SMOOTH",
"960 586 LINE",
"1170 586 LINE",
"1170 705 LINE SMOOTH",
"1170 763 OFFCURVE",
"1187 792 OFFCURVE",
"1221 792 CURVE SMOOTH",
"1256 792 OFFCURVE",
"1274 764 OFFCURVE",
"1274 709 CURVE SMOOTH",
"1274 452 OFFCURVE",
"960 391 OFFCURVE",
"960 46 CURVE SMOOTH",
"960 -1 LINE"
);
}
);
width = 1560;
}
);
unicode = 00BD;
userData = {
com.typemytype.robofont.layerData = {
};
};
},
{
glyphname = onequarter;
layers = (
{
background = {
paths = (
{
closed = 1;
nodes = (
"608 0 LINE",
"1279 1767 LINE",
"995 1767 LINE",
"425 0 LINE"
);
},
{
closed = 1;
nodes = (
"483 696 LINE",
"483 1647 LINE",
"324 1647 LINE",
"324 1585 OFFCURVE",
"208 1527 OFFCURVE",
"150 1527 CURVE",
"151 1523 OFFCURVE",
"152 1509 OFFCURVE",
"152 1484 CURVE SMOOTH",
"152 1453 OFFCURVE",
"151 1417 OFFCURVE",
"150 1374 CURVE",
"193 1374 OFFCURVE",
"234 1384 OFFCURVE",
"273 1404 CURVE",
"273 696 LINE"
);
},
{
closed = 1;
nodes = (
"1468 -1 LINE",
"1468 151 LINE",
"1507 151 LINE",
"1507 322 LINE",
"1468 322 LINE",
"1468 941 LINE",
"1145 941 LINE",
"958 300 LINE",
"958 151 LINE",
"1261 151 LINE",
"1261 -1 LINE"
);
},
{
closed = 1;
nodes = (
"1261 777 LINE",
"1261 322 LINE",
"1121 322 LINE"
);
}
);
};
components = (
{
alignment = -1;
name = onesuperior;
transform = "{1, 0, 0, 1, 121, 0}";
},
{
name = fraction;
transform = "{1, 0, 0, 1, 619, 0}";
},
{
alignment = -1;
name = foursuperior;
transform = "{1, 0, 0, 1, 938, -819}";
}
);
layerId = "6CD1E358-6E98-409F-9A1F-EA9DE4C1A8AA";
width = 1667;
},
{
associatedMasterId = "6CD1E358-6E98-409F-9A1F-EA9DE4C1A8AA";
background = {
paths = (
{
closed = 1;
nodes = (
"480 0 LINE",
"1151 1767 LINE",
"867 1767 LINE",
"297 0 LINE"
);
},
{
closed = 1;
nodes = (
"355 696 LINE",
"355 1647 LINE",
"196 1647 LINE",
"196 1585 OFFCURVE",
"80 1527 OFFCURVE",
"22 1527 CURVE",
"23 1523 OFFCURVE",
"24 1509 OFFCURVE",
"24 1484 CURVE SMOOTH",
"24 1453 OFFCURVE",
"23 1417 OFFCURVE",
"22 1374 CURVE",
"65 1374 OFFCURVE",
"106 1384 OFFCURVE",
"145 1404 CURVE",
"145 696 LINE"
);
},
{
closed = 1;
nodes = (
"1340 -1 LINE",
"1340 151 LINE",
"1379 151 LINE",
"1379 322 LINE",
"1340 322 LINE",
"1340 941 LINE",
"1017 941 LINE",
"830 300 LINE",
"830 151 LINE",
"1133 151 LINE",
"1133 -1 LINE"
);
},
{
closed = 1;
nodes = (
"1133 777 LINE",
"1133 322 LINE",
"993 322 LINE"
);
}
);
};
layerId = "896BFD94-809C-4FD2-A9EA-84F4313D4E57";
name = "Regular Jul 21 16, 15:00";
paths = (
{
closed = 1;
nodes = (
"474 -16 LINE",
"1154 1776 LINE",
"870 1776 LINE",
"291 -16 LINE"
);
},
{
closed = 1;
nodes = (
"355 696 LINE",
"355 1647 LINE",
"196 1647 LINE",
"196 1585 OFFCURVE",
"80 1527 OFFCURVE",
"22 1527 CURVE",
"23 1523 OFFCURVE",
"24 1509 OFFCURVE",
"24 1484 CURVE SMOOTH",
"24 1453 OFFCURVE",
"23 1417 OFFCURVE",
"22 1374 CURVE",
"65 1374 OFFCURVE",
"106 1384 OFFCURVE",
"145 1404 CURVE",
"145 696 LINE"
);
},
{
closed = 1;
nodes = (
"1340 -1 LINE",
"1340 151 LINE",
"1379 151 LINE",
"1379 322 LINE",
"1340 322 LINE",
"1340 941 LINE",
"1017 941 LINE",
"830 300 LINE",
"830 151 LINE",
"1133 151 LINE",
"1133 -1 LINE"
);
},
{
closed = 1;
nodes = (
"1133 777 LINE",
"1133 322 LINE",
"993 322 LINE"
);
}
);
width = 1453;
}
);
unicode = 00BC;
userData = {
com.typemytype.robofont.layerData = {
};
};
},
{
glyphname = threequarters;
layers = (
{
background = {
paths = (
{
closed = 1;
nodes = (
"706 0 LINE",
"1377 1767 LINE",
"1093 1767 LINE",
"523 0 LINE"
);
},
{
closed = 1;
nodes = (
"552 635 OFFCURVE",
"628 743 OFFCURVE",
"628 935 CURVE SMOOTH",
"628 1066 OFFCURVE",
"617 1132 OFFCURVE",
"533 1170 CURVE",
"603 1194 OFFCURVE",
"625 1258 OFFCURVE",
"625 1351 CURVE SMOOTH",
"625 1521 OFFCURVE",
"541 1606 OFFCURVE",
"373 1606 CURVE SMOOTH",
"199 1606 OFFCURVE",
"117 1532 OFFCURVE",
"116 1351 CURVE SMOOTH",
"117 1317 LINE",
"321 1317 LINE",
"324 1373 OFFCURVE",
"313 1430 OFFCURVE",
"374 1430 CURVE SMOOTH",
"406 1430 OFFCURVE",
"422 1403 OFFCURVE",
"422 1349 CURVE SMOOTH",
"422 1279 OFFCURVE",
"386 1254 OFFCURVE",
"317 1254 CURVE",
"317 1081 LINE",
"322 1082 OFFCURVE",
"328 1082 OFFCURVE",
"337 1082 CURVE SMOOTH",
"413 1082 OFFCURVE",
"421 1011 OFFCURVE",
"421 935 CURVE SMOOTH",
"421 865 OFFCURVE",
"421 813 OFFCURVE",
"370 813 CURVE SMOOTH",
"322 813 OFFCURVE",
"313 851 OFFCURVE",
"313 903 CURVE SMOOTH",
"313 1004 LINE",
"111 1004 LINE",
"111 904 LINE SMOOTH",
"111 725 OFFCURVE",
"186 635 OFFCURVE",
"360 635 CURVE SMOOTH"
);
},
{
closed = 1;
nodes = (
"1561 -1 LINE",
"1561 151 LINE",
"1600 151 LINE",
"1600 322 LINE",
"1561 322 LINE",
"1561 941 LINE",
"1238 941 LINE",
"1051 300 LINE",
"1051 151 LINE",
"1354 151 LINE",
"1354 -1 LINE"
);
},
{
closed = 1;
nodes = (
"1354 777 LINE",
"1354 322 LINE",
"1214 322 LINE"
);
}
);
};
components = (
{
alignment = -1;
name = threesuperior;
transform = "{1, 0, 0, 1, 108, 0}";
},
{
name = fraction;
transform = "{1, 0, 0, 1, 717, 0}";
},
{
alignment = -1;
name = foursuperior;
transform = "{1, 0, 0, 1, 1021, -819}";
}
);
layerId = "6CD1E358-6E98-409F-9A1F-EA9DE4C1A8AA";
width = 1750;
},
{
associatedMasterId = "6CD1E358-6E98-409F-9A1F-EA9DE4C1A8AA";
background = {
paths = (
{
closed = 1;
nodes = (
"625 0 LINE",
"1296 1767 LINE",
"1012 1767 LINE",
"442 0 LINE"
);
},
{
closed = 1;
nodes = (
"471 635 OFFCURVE",
"547 743 OFFCURVE",
"547 935 CURVE SMOOTH",
"547 1066 OFFCURVE",
"536 1132 OFFCURVE",
"452 1170 CURVE",
"522 1194 OFFCURVE",
"544 1258 OFFCURVE",
"544 1351 CURVE SMOOTH",
"544 1521 OFFCURVE",
"460 1606 OFFCURVE",
"292 1606 CURVE SMOOTH",
"118 1606 OFFCURVE",
"36 1532 OFFCURVE",
"35 1351 CURVE SMOOTH",
"36 1317 LINE",
"240 1317 LINE",
"243 1373 OFFCURVE",
"232 1430 OFFCURVE",
"293 1430 CURVE SMOOTH",
"325 1430 OFFCURVE",
"341 1403 OFFCURVE",
"341 1349 CURVE SMOOTH",
"341 1279 OFFCURVE",
"305 1254 OFFCURVE",
"236 1254 CURVE",
"236 1081 LINE",
"241 1082 OFFCURVE",
"247 1082 OFFCURVE",
"256 1082 CURVE SMOOTH",
"332 1082 OFFCURVE",
"340 1011 OFFCURVE",
"340 935 CURVE SMOOTH",
"340 865 OFFCURVE",
"340 813 OFFCURVE",
"289 813 CURVE SMOOTH",
"241 813 OFFCURVE",
"232 851 OFFCURVE",
"232 903 CURVE SMOOTH",
"232 1004 LINE",
"30 1004 LINE",
"30 904 LINE SMOOTH",
"30 725 OFFCURVE",
"105 635 OFFCURVE",
"279 635 CURVE SMOOTH"
);
},
{
closed = 1;
nodes = (
"1480 -1 LINE",
"1480 151 LINE",
"1519 151 LINE",
"1519 322 LINE",
"1480 322 LINE",
"1480 941 LINE",
"1157 941 LINE",
"970 300 LINE",
"970 151 LINE",
"1273 151 LINE",
"1273 -1 LINE"
);
},
{
closed = 1;
nodes = (
"1273 777 LINE",
"1273 322 LINE",
"1133 322 LINE"
);
}
);
};
layerId = "91504DB6-8A8A-4F29-9373-2B45B28ABA16";
name = "Regular Jul 21 16, 17:19";
paths = (
{
closed = 1;
nodes = (
"625 0 LINE",
"1296 1767 LINE",
"1012 1767 LINE",
"442 0 LINE"
);
},
{
closed = 1;
nodes = (
"471 635 OFFCURVE",
"547 743 OFFCURVE",
"547 935 CURVE SMOOTH",
"547 1066 OFFCURVE",
"536 1132 OFFCURVE",
"452 1170 CURVE",
"522 1194 OFFCURVE",
"544 1258 OFFCURVE",
"544 1351 CURVE SMOOTH",
"544 1521 OFFCURVE",
"460 1606 OFFCURVE",
"292 1606 CURVE SMOOTH",
"118 1606 OFFCURVE",
"36 1532 OFFCURVE",
"35 1351 CURVE SMOOTH",
"36 1317 LINE",
"240 1317 LINE",
"243 1373 OFFCURVE",
"232 1430 OFFCURVE",
"293 1430 CURVE SMOOTH",
"325 1430 OFFCURVE",
"341 1403 OFFCURVE",
"341 1349 CURVE SMOOTH",
"341 1279 OFFCURVE",
"305 1254 OFFCURVE",
"236 1254 CURVE",
"236 1081 LINE",
"241 1082 OFFCURVE",
"247 1082 OFFCURVE",
"256 1082 CURVE SMOOTH",
"332 1082 OFFCURVE",
"340 1011 OFFCURVE",
"340 935 CURVE SMOOTH",
"340 865 OFFCURVE",
"340 813 OFFCURVE",
"289 813 CURVE SMOOTH",
"241 813 OFFCURVE",
"232 851 OFFCURVE",
"232 903 CURVE SMOOTH",
"232 1004 LINE",
"30 1004 LINE",
"30 904 LINE SMOOTH",
"30 725 OFFCURVE",
"105 635 OFFCURVE",
"279 635 CURVE SMOOTH"
);
},
{
closed = 1;
nodes = (
"1480 -1 LINE",
"1480 151 LINE",
"1519 151 LINE",
"1519 322 LINE",
"1480 322 LINE",
"1480 941 LINE",
"1157 941 LINE",
"970 300 LINE",
"970 151 LINE",
"1273 151 LINE",
"1273 -1 LINE"
);
},
{
closed = 1;
nodes = (
"1273 777 LINE",
"1273 322 LINE",
"1133 322 LINE"
);
}
);
width = 1580;
}
);
unicode = 00BE;
userData = {
com.typemytype.robofont.layerData = {
};
};
},
{
glyphname = asterisk;
layers = (
{
background = {
paths = (
{
closed = 1;
nodes = (
"579 741 LINE",
"543 1036 LINE",
"774 854 LINE",
"890 1054 LINE",
"615 1171 LINE",
"890 1280 LINE",
"774 1480 LINE",
"544 1307 LINE",
"579 1593 LINE",
"347 1593 LINE",
"390 1301 LINE",
"152 1480 LINE",
"36 1280 LINE",
"310 1171 LINE",
"36 1054 LINE",
"152 854 LINE",
"391 1043 LINE",
"347 741 LINE"
);
}
);
};
layerId = "6CD1E358-6E98-409F-9A1F-EA9DE4C1A8AA";
paths = (
{
closed = 1;
nodes = (
"579 741 LINE",
"543 1036 LINE",
"774 854 LINE",
"890 1054 LINE",
"615 1171 LINE",
"890 1280 LINE",
"774 1480 LINE",
"544 1307 LINE",
"579 1593 LINE",
"347 1593 LINE",
"390 1301 LINE",
"152 1480 LINE",
"36 1280 LINE",
"310 1171 LINE",
"36 1054 LINE",
"152 854 LINE",
"391 1043 LINE",
"347 741 LINE"
);
}
);
width = 926;
}
);
unicode = 002A;
userData = {
com.typemytype.robofont.layerData = {
};
};
},
{
glyphname = backslash;
layers = (
{
background = {
paths = (
{
closed = 1;
nodes = (
"801 0 LINE",
"391 1767 LINE",
"27 1767 LINE",
"438 0 LINE"
);
}
);
};
layerId = "6CD1E358-6E98-409F-9A1F-EA9DE4C1A8AA";
paths = (
{
closed = 1;
nodes = (
"801 0 LINE",
"391 1767 LINE",
"27 1767 LINE",
"438 0 LINE"
);
}
);
width = 830;
}
);
unicode = 005C;
userData = {
com.typemytype.robofont.layerData = {
};
};
},
{
glyphname = periodcentered;
layers = (
{
anchors = (
{
name = _mid;
position = "{240, 878}";
}
);
background = {
anchors = (
{
name = _mid;
position = "{240, 878}";
}
);
paths = (
{
closed = 1;
nodes = (
"399 723 LINE",
"399 1021 LINE",
"81 1021 LINE",
"81 723 LINE"
);
}
);
};
layerId = "6CD1E358-6E98-409F-9A1F-EA9DE4C1A8AA";
paths = (
{
closed = 1;
nodes = (
"399 723 LINE",
"399 1021 LINE",
"81 1021 LINE",
"81 723 LINE"
);
}
);
width = 480;
}
);
unicode = 00B7;
userData = {
com.typemytype.robofont.layerData = {
};
};
},
{
glyphname = bullet;
layers = (
{
background = {
paths = (
{
closed = 1;
nodes = (
"559 403 OFFCURVE",
"674 539 OFFCURVE",
"674 741 CURVE SMOOTH",
"674 943 OFFCURVE",
"559 1079 OFFCURVE",
"360 1079 CURVE SMOOTH",
"161 1079 OFFCURVE",
"47 943 OFFCURVE",
"47 741 CURVE SMOOTH",
"47 539 OFFCURVE",
"161 403 OFFCURVE",
"360 403 CURVE SMOOTH"
);
}
);
};
layerId = "6CD1E358-6E98-409F-9A1F-EA9DE4C1A8AA";
paths = (
{
closed = 1;
nodes = (
"559 403 OFFCURVE",
"674 539 OFFCURVE",
"674 741 CURVE SMOOTH",
"674 943 OFFCURVE",
"559 1079 OFFCURVE",
"360 1079 CURVE SMOOTH",
"161 1079 OFFCURVE",
"47 943 OFFCURVE",
"47 741 CURVE SMOOTH",
"47 539 OFFCURVE",
"161 403 OFFCURVE",
"360 403 CURVE SMOOTH"
);
}
);
width = 721;
}
);
unicode = 2022;
userData = {
com.typemytype.robofont.layerData = {
};
};
},
{
glyphname = colon;
layers = (
{
background = {
paths = (
{
closed = 1;
nodes = (
"426 976 LINE",
"426 1274 LINE",
"68 1274 LINE",
"68 976 LINE"
);
},
{
closed = 1;
nodes = (
"426 237 LINE",
"426 535 LINE",
"68 535 LINE",
"68 237 LINE"
);
}
);
};
layerId = "6CD1E358-6E98-409F-9A1F-EA9DE4C1A8AA";
paths = (
{
closed = 1;
nodes = (
"426 976 LINE",
"426 1274 LINE",
"68 1274 LINE",
"68 976 LINE"
);
},
{
closed = 1;
nodes = (
"426 237 LINE",
"426 535 LINE",
"68 535 LINE",
"68 237 LINE"
);
}
);
width = 495;
}
);
unicode = 003A;
userData = {
com.typemytype.robofont.layerData = {
};
};
},
{
glyphname = comma;
layers = (
{
anchors = (
{
name = _mid;
position = "{247, 131}";
}
);
background = {
anchors = (
{
name = _mid;
position = "{247, 131}";
}
);
paths = (
{
closed = 1;
nodes = (
"327 -235 LINE",
"429 10 LINE",
"429 299 LINE",
"55 299 LINE",
"55 1 LINE",
"182 1 LINE",
"116 -235 LINE"
);
}
);
};
layerId = "6CD1E358-6E98-409F-9A1F-EA9DE4C1A8AA";
paths = (
{
closed = 1;
nodes = (
"327 -235 LINE",
"429 10 LINE",
"429 299 LINE",
"55 299 LINE",
"55 1 LINE",
"182 1 LINE",
"116 -235 LINE"
);
}
);
width = 484;
}
);
unicode = 002C;
userData = {
com.typemytype.robofont.layerData = {
};
};
},
{
glyphname = ellipsis;
layers = (
{
background = {
paths = (
{
closed = 1;
nodes = (
"1395 1 LINE",
"1395 299 LINE",
"1037 299 LINE",
"1037 1 LINE"
);
},
{
closed = 1;
nodes = (
"413 1 LINE",
"413 299 LINE",
"55 299 LINE",
"55 1 LINE"
);
},
{
closed = 1;
nodes = (
"904 1 LINE",
"904 299 LINE",
"546 299 LINE",
"546 1 LINE"
);
}
);
};
layerId = "6CD1E358-6E98-409F-9A1F-EA9DE4C1A8AA";
paths = (
{
closed = 1;
nodes = (
"1395 1 LINE",
"1395 299 LINE",
"1037 299 LINE",
"1037 1 LINE"
);
},
{
closed = 1;
nodes = (
"413 1 LINE",
"413 299 LINE",
"55 299 LINE",
"55 1 LINE"
);
},
{
closed = 1;
nodes = (
"904 1 LINE",
"904 299 LINE",
"546 299 LINE",
"546 1 LINE"
);
}
);
width = 1450;
}
);
unicode = 2026;
userData = {
com.typemytype.robofont.layerData = {
};
};
},
{
glyphname = exclam;
layers = (
{
background = {
paths = (
{
closed = 1;
nodes = (
"343 479 LINE",
"413 1760 LINE",
"55 1760 LINE",
"125 479 LINE"
);
},
{
closed = 1;
nodes = (
"413 1 LINE",
"413 299 LINE",
"55 299 LINE",
"55 1 LINE"
);
}
);
};
layerId = "6CD1E358-6E98-409F-9A1F-EA9DE4C1A8AA";
paths = (
{
closed = 1;
nodes = (
"343 479 LINE",
"413 1760 LINE",
"55 1760 LINE",
"125 479 LINE"
);
},
{
closed = 1;
nodes = (
"413 1 LINE",
"413 299 LINE",
"55 299 LINE",
"55 1 LINE"
);
}
);
width = 469;
}
);
unicode = 0021;
userData = {
com.typemytype.robofont.layerData = {
};
};
},
{
glyphname = exclamdown;
layers = (
{
background = {
paths = (
{
closed = 1;
nodes = (
"413 -108 LINE",
"343 1173 LINE",
"125 1173 LINE",
"55 -108 LINE"
);
},
{
closed = 1;
nodes = (
"413 1353 LINE",
"413 1651 LINE",
"55 1651 LINE",
"55 1353 LINE"
);
}
);
};
layerId = "6CD1E358-6E98-409F-9A1F-EA9DE4C1A8AA";
paths = (
{
closed = 1;
nodes = (
"413 -108 LINE",
"343 1173 LINE",
"125 1173 LINE",
"55 -108 LINE"
);
},
{
closed = 1;
nodes = (
"413 1353 LINE",
"413 1651 LINE",
"55 1651 LINE",
"55 1353 LINE"
);
}
);
width = 464;
}
);
unicode = 00A1;
userData = {
com.typemytype.robofont.layerData = {
};
};
},
{
glyphname = numbersign;
layers = (
{
background = {
paths = (
{
closed = 1;
nodes = (
"321 0 LINE",
"420 509 LINE",
"587 509 LINE",
"488 0 LINE",
"771 0 LINE",
"870 509 LINE",
"1024 509 LINE",
"1024 741 LINE",
"916 741 LINE",
"944 886 LINE",
"1082 886 LINE",
"1082 1118 LINE",
"989 1118 LINE",
"1082 1593 LINE",
"798 1593 LINE",
"705 1118 LINE",
"539 1118 LINE",
"632 1593 LINE",
"348 1593 LINE",
"255 1118 LINE",
"100 1118 LINE",
"100 886 LINE",
"210 886 LINE",
"182 741 LINE",
"42 741 LINE",
"42 509 LINE",
"137 509 LINE",
"38 0 LINE"
);
},
{
closed = 1;
nodes = (
"494 886 LINE",
"660 886 LINE",
"632 741 LINE",
"466 741 LINE"
);
}
);
};
layerId = "6CD1E358-6E98-409F-9A1F-EA9DE4C1A8AA";
paths = (
{
closed = 1;
nodes = (
"321 0 LINE",
"420 509 LINE",
"587 509 LINE",
"488 0 LINE",
"771 0 LINE",
"870 509 LINE",
"1024 509 LINE",
"1024 741 LINE",
"916 741 LINE",
"944 886 LINE",
"1082 886 LINE",
"1082 1118 LINE",
"989 1118 LINE",
"1082 1593 LINE",
"798 1593 LINE",
"705 1118 LINE",
"539 1118 LINE",
"632 1593 LINE",
"348 1593 LINE",
"255 1118 LINE",
"100 1118 LINE",
"100 886 LINE",
"210 886 LINE",
"182 741 LINE",
"42 741 LINE",
"42 509 LINE",
"137 509 LINE",
"38 0 LINE"
);
},
{
closed = 1;
nodes = (
"494 886 LINE",
"660 886 LINE",
"632 741 LINE",
"466 741 LINE"
);
}
);
width = 1119;
}
);
unicode = 0023;
userData = {
com.typemytype.robofont.layerData = {
};
};
},
{
glyphname = period;
layers = (
{
background = {
paths = (
{
closed = 1;
nodes = (
"413 1 LINE",
"413 299 LINE",
"55 299 LINE",
"55 1 LINE"
);
}
);
};
layerId = "6CD1E358-6E98-409F-9A1F-EA9DE4C1A8AA";
paths = (
{
closed = 1;
nodes = (
"413 1 LINE",
"413 299 LINE",
"55 299 LINE",
"55 1 LINE"
);
}
);
width = 468;
}
);
unicode = 002E;
userData = {
com.typemytype.robofont.layerData = {
};
};
},
{
glyphname = question;
layers = (
{
background = {
paths = (
{
closed = 1;
nodes = (
"460 455 LINE",
"460 625 LINE",
"810 625 OFFCURVE",
"978 880 OFFCURVE",
"978 1226 CURVE SMOOTH",
"978 1579 OFFCURVE",
"863 1776 OFFCURVE",
"508 1776 CURVE SMOOTH",
"237 1776 OFFCURVE",
"48 1648 OFFCURVE",
"48 1379 CURVE SMOOTH",
"48 1125 LINE",
"414 1125 LINE",
"414 1271 LINE SMOOTH",
"414 1363 OFFCURVE",
"421 1457 OFFCURVE",
"508 1457 CURVE SMOOTH",
"588 1457 OFFCURVE",
"601 1381 OFFCURVE",
"601 1294 CURVE SMOOTH",
"601 912 OFFCURVE",
"460 871 OFFCURVE",
"127 871 CURVE",
"127 455 LINE"
);
},
{
closed = 1;
nodes = (
"474 1 LINE",
"474 299 LINE",
"116 299 LINE",
"116 1 LINE"
);
}
);
};
layerId = "6CD1E358-6E98-409F-9A1F-EA9DE4C1A8AA";
paths = (
{
closed = 1;
nodes = (
"460 455 LINE",
"460 625 LINE",
"810 625 OFFCURVE",
"978 880 OFFCURVE",
"978 1226 CURVE SMOOTH",
"978 1579 OFFCURVE",
"863 1776 OFFCURVE",
"508 1776 CURVE SMOOTH",
"237 1776 OFFCURVE",
"48 1648 OFFCURVE",
"48 1379 CURVE SMOOTH",
"48 1125 LINE",
"414 1125 LINE",
"414 1271 LINE SMOOTH",
"414 1363 OFFCURVE",
"421 1457 OFFCURVE",
"508 1457 CURVE SMOOTH",
"588 1457 OFFCURVE",
"601 1381 OFFCURVE",
"601 1294 CURVE SMOOTH",
"601 912 OFFCURVE",
"460 871 OFFCURVE",
"127 871 CURVE",
"127 455 LINE"
);
},
{
closed = 1;
nodes = (
"474 1 LINE",
"474 299 LINE",
"116 299 LINE",
"116 1 LINE"
);
}
);
width = 1008;
}
);
unicode = 003F;
userData = {
com.typemytype.robofont.layerData = {
};
};
},
{
glyphname = quotedbl;
layers = (
{
background = {
paths = (
{
closed = 1;
nodes = (
"757 1124 LINE",
"833 1760 LINE",
"481 1760 LINE",
"581 1124 LINE"
);
},
{
closed = 1;
nodes = (
"317 1124 LINE",
"393 1760 LINE",
"41 1760 LINE",
"141 1124 LINE"
);
}
);
};
layerId = "6CD1E358-6E98-409F-9A1F-EA9DE4C1A8AA";
paths = (
{
closed = 1;
nodes = (
"757 1124 LINE",
"833 1760 LINE",
"481 1760 LINE",
"581 1124 LINE"
);
},
{
closed = 1;
nodes = (
"317 1124 LINE",
"393 1760 LINE",
"41 1760 LINE",
"141 1124 LINE"
);
}
);
width = 878;
}
);
unicode = 0022;
userData = {
com.typemytype.robofont.layerData = {
};
};
},
{
glyphname = quotesingle;
layers = (
{
background = {
paths = (
{
closed = 1;
nodes = (
"317 1124 LINE",
"393 1760 LINE",
"41 1760 LINE",
"141 1124 LINE"
);
}
);
};
layerId = "6CD1E358-6E98-409F-9A1F-EA9DE4C1A8AA";
paths = (
{
closed = 1;
nodes = (
"317 1124 LINE",
"393 1760 LINE",
"41 1760 LINE",
"141 1124 LINE"
);
}
);
width = 438;
}
);
unicode = 0027;
userData = {
com.typemytype.robofont.layerData = {
};
};
},
{
glyphname = semicolon;
layers = (
{
background = {
paths = (
{
closed = 1;
nodes = (
"338 0 LINE",
"440 245 LINE",
"440 534 LINE",
"66 534 LINE",
"66 236 LINE",
"193 236 LINE",
"127 0 LINE"
);
},
{
closed = 1;
nodes = (
"424 976 LINE",
"424 1274 LINE",
"66 1274 LINE",
"66 976 LINE"
);
}
);
};
layerId = "6CD1E358-6E98-409F-9A1F-EA9DE4C1A8AA";
paths = (
{
closed = 1;
nodes = (
"338 0 LINE",
"440 245 LINE",
"440 534 LINE",
"66 534 LINE",
"66 236 LINE",
"193 236 LINE",
"127 0 LINE"
);
},
{
closed = 1;
nodes = (
"424 976 LINE",
"424 1274 LINE",
"66 1274 LINE",
"66 976 LINE"
);
}
);
width = 502;
}
);
unicode = 003B;
userData = {
com.typemytype.robofont.layerData = {
};
};
},
{
glyphname = slash;
layers = (
{
background = {
paths = (
{
closed = 1;
nodes = (
"392 0 LINE",
"803 1767 LINE",
"439 1767 LINE",
"29 0 LINE"
);
}
);
};
layerId = "6CD1E358-6E98-409F-9A1F-EA9DE4C1A8AA";
paths = (
{
closed = 1;
nodes = (
"392 0 LINE",
"803 1767 LINE",
"439 1767 LINE",
"29 0 LINE"
);
}
);
width = 830;
}
);
unicode = 002F;
userData = {
com.typemytype.robofont.layerData = {
};
};
},
{
glyphname = underscore;
layers = (
{
background = {
paths = (
{
closed = 1;
nodes = (
"700 -362 LINE",
"700 -130 LINE",
"49 -130 LINE",
"49 -362 LINE"
);
}
);
};
layerId = "6CD1E358-6E98-409F-9A1F-EA9DE4C1A8AA";
paths = (
{
closed = 1;
nodes = (
"700 -362 LINE",
"700 -130 LINE",
"49 -130 LINE",
"49 -362 LINE"
);
}
);
width = 748;
}
);
unicode = 005F;
userData = {
com.typemytype.robofont.layerData = {
};
};
},
{
glyphname = periodcentered.loclCAT.case;
layers = (
{
anchors = (
{
name = _mid;
position = "{0, 878}";
}
);
background = {
anchors = (
{
name = _mid;
position = "{0, 878}";
}
);
paths = (
{
closed = 1;
nodes = (
"164 703 LINE",
"164 1041 LINE",
"-164 1041 LINE",
"-164 703 LINE"
);
}
);
};
layerId = "6CD1E358-6E98-409F-9A1F-EA9DE4C1A8AA";
paths = (
{
closed = 1;
nodes = (
"164 703 LINE",
"164 1041 LINE",
"-164 1041 LINE",
"-164 703 LINE"
);
}
);
width = 0;
}
);
},
{
glyphname = periodcentered.loclCAT;
layers = (
{
anchors = (
{
name = _mid;
position = "{0, 878}";
}
);
background = {
anchors = (
{
name = _mid;
position = "{0, 878}";
}
);
paths = (
{
closed = 1;
nodes = (
"159 713 LINE",
"159 1031 LINE",
"-159 1031 LINE",
"-159 713 LINE"
);
}
);
};
layerId = "6CD1E358-6E98-409F-9A1F-EA9DE4C1A8AA";
paths = (
{
closed = 1;
nodes = (
"159 713 LINE",
"159 1031 LINE",
"-159 1031 LINE",
"-159 713 LINE"
);
}
);
width = 0;
}
);
},
{
glyphname = braceleft;
layers = (
{
background = {
paths = (
{
closed = 1;
nodes = (
"661 79 LINE",
"589 84 OFFCURVE",
"522 92 OFFCURVE",
"522 163 CURVE SMOOTH",
"522 538 LINE SMOOTH",
"522 731.741 OFFCURVE",
"418.386 791.24 OFFCURVE",
"304.27 817.5 CURVE",
"418.386 843.76 OFFCURVE",
"522 903.259 OFFCURVE",
"522 1097 CURVE SMOOTH",
"522 1472 LINE SMOOTH",
"522 1543 OFFCURVE",
"589 1551 OFFCURVE",
"661 1556 CURVE",
"661 1823 LINE",
"281 1815 OFFCURVE",
"170 1734 OFFCURVE",
"170 1455 CURVE SMOOTH",
"170 1120 LINE SMOOTH",
"170 987 OFFCURVE",
"153 930 OFFCURVE",
"31 916 CURVE",
"31 719 LINE",
"153 705 OFFCURVE",
"170 648 OFFCURVE",
"170 515 CURVE SMOOTH",
"170 180 LINE SMOOTH",
"170 -99 OFFCURVE",
"281 -180 OFFCURVE",
"661 -188 CURVE"
);
}
);
};
layerId = "6CD1E358-6E98-409F-9A1F-EA9DE4C1A8AA";
paths = (
{
closed = 1;
nodes = (
"661 79 LINE",
"589 84 OFFCURVE",
"522 92 OFFCURVE",
"522 163 CURVE SMOOTH",
"522 538 LINE SMOOTH",
"522 731.741 OFFCURVE",
"418.386 791.24 OFFCURVE",
"304.27 817.5 CURVE",
"418.386 843.76 OFFCURVE",
"522 903.259 OFFCURVE",
"522 1097 CURVE SMOOTH",
"522 1472 LINE SMOOTH",
"522 1543 OFFCURVE",
"589 1551 OFFCURVE",
"661 1556 CURVE",
"661 1823 LINE",
"281 1815 OFFCURVE",
"170 1734 OFFCURVE",
"170 1455 CURVE SMOOTH",
"170 1120 LINE SMOOTH",
"170 987 OFFCURVE",
"153 930 OFFCURVE",
"31 916 CURVE",
"31 719 LINE",
"153 705 OFFCURVE",
"170 648 OFFCURVE",
"170 515 CURVE SMOOTH",
"170 180 LINE SMOOTH",
"170 -99 OFFCURVE",
"281 -180 OFFCURVE",
"661 -188 CURVE"
);
}
);
width = 696;
}
);
unicode = 007B;
userData = {
com.typemytype.robofont.layerData = {
};
};
},
{
glyphname = braceright;
layers = (
{
background = {
paths = (
{
closed = 1;
nodes = (
"420 -180 OFFCURVE",
"531 -99 OFFCURVE",
"531 180 CURVE SMOOTH",
"531 515 LINE SMOOTH",
"531 648 OFFCURVE",
"548 705 OFFCURVE",
"670 719 CURVE",
"670 916 LINE",
"548 930 OFFCURVE",
"531 987 OFFCURVE",
"531 1120 CURVE SMOOTH",
"531 1455 LINE SMOOTH",
"531 1734 OFFCURVE",
"420 1815 OFFCURVE",
"40 1823 CURVE",
"40 1556 LINE",
"112 1551 OFFCURVE",
"179 1543 OFFCURVE",
"179 1472 CURVE SMOOTH",
"179 1097 LINE SMOOTH",
"179 903 OFFCURVE",
"283 844 OFFCURVE",
"397 818 CURVE",
"283 791 OFFCURVE",
"179 732 OFFCURVE",
"179 538 CURVE SMOOTH",
"179 163 LINE SMOOTH",
"179 92 OFFCURVE",
"112 84 OFFCURVE",
"40 79 CURVE",
"40 -188 LINE"
);
}
);
};
layerId = "6CD1E358-6E98-409F-9A1F-EA9DE4C1A8AA";
paths = (
{
closed = 1;
nodes = (
"420 -180 OFFCURVE",
"531 -99 OFFCURVE",
"531 180 CURVE SMOOTH",
"531 515 LINE SMOOTH",
"531 648 OFFCURVE",
"548 705 OFFCURVE",
"670 719 CURVE",
"670 916 LINE",
"548 930 OFFCURVE",
"531 987 OFFCURVE",
"531 1120 CURVE SMOOTH",
"531 1455 LINE SMOOTH",
"531 1734 OFFCURVE",
"420 1815 OFFCURVE",
"40 1823 CURVE",
"40 1556 LINE",
"112 1551 OFFCURVE",
"179 1543 OFFCURVE",
"179 1472 CURVE SMOOTH",
"179 1097 LINE SMOOTH",
"179 903 OFFCURVE",
"283 844 OFFCURVE",
"397 818 CURVE",
"283 791 OFFCURVE",
"179 732 OFFCURVE",
"179 538 CURVE SMOOTH",
"179 163 LINE SMOOTH",
"179 92 OFFCURVE",
"112 84 OFFCURVE",
"40 79 CURVE",
"40 -188 LINE"
);
}
);
width = 697;
}
);
unicode = 007D;
userData = {
com.typemytype.robofont.layerData = {
};
};
},
{
glyphname = bracketleft;
layers = (
{
background = {
paths = (
{
closed = 1;
nodes = (
"616 0 LINE",
"616 281 LINE",
"414 281 LINE",
"414 1480 LINE",
"616 1480 LINE",
"616 1761 LINE",
"62 1761 LINE",
"62 0 LINE"
);
}
);
};
layerId = "6CD1E358-6E98-409F-9A1F-EA9DE4C1A8AA";
paths = (
{
closed = 1;
nodes = (
"616 0 LINE",
"616 281 LINE",
"414 281 LINE",
"414 1480 LINE",
"616 1480 LINE",
"616 1761 LINE",
"62 1761 LINE",
"62 0 LINE"
);
}
);
width = 651;
}
);
unicode = 005B;
userData = {
com.typemytype.robofont.layerData = {
};
};
},
{
glyphname = bracketright;
layers = (
{
background = {
paths = (
{
closed = 1;
nodes = (
"589 0 LINE",
"589 1761 LINE",
"35 1761 LINE",
"35 1480 LINE",
"237 1480 LINE",
"237 281 LINE",
"35 281 LINE",
"35 0 LINE"
);
}
);
};
layerId = "6CD1E358-6E98-409F-9A1F-EA9DE4C1A8AA";
paths = (
{
closed = 1;
nodes = (
"589 0 LINE",
"589 1761 LINE",
"35 1761 LINE",
"35 1480 LINE",
"237 1480 LINE",
"237 281 LINE",
"35 281 LINE",
"35 0 LINE"
);
}
);
width = 651;
}
);
unicode = 005D;
userData = {
com.typemytype.robofont.layerData = {
};
};
},
{
glyphname = parenleft;
layers = (
{
background = {
paths = (
{
closed = 1;
nodes = (
"560 268 LINE",
"481 289 OFFCURVE",
"421 350 OFFCURVE",
"421 450 CURVE SMOOTH",
"421 1297 LINE SMOOTH",
"421 1415 OFFCURVE",
"459 1476 OFFCURVE",
"560 1494 CURVE",
"560 1761 LINE",
"215 1751 OFFCURVE",
"49 1546 OFFCURVE",
"49 1183 CURVE SMOOTH",
"49 562 LINE SMOOTH",
"49 227 OFFCURVE",
"244 -4 OFFCURVE",
"560 -17 CURVE"
);
}
);
};
layerId = "6CD1E358-6E98-409F-9A1F-EA9DE4C1A8AA";
paths = (
{
closed = 1;
nodes = (
"560 268 LINE",
"481 289 OFFCURVE",
"421 350 OFFCURVE",
"421 450 CURVE SMOOTH",
"421 1297 LINE SMOOTH",
"421 1415 OFFCURVE",
"459 1476 OFFCURVE",
"560 1494 CURVE",
"560 1761 LINE",
"215 1751 OFFCURVE",
"49 1546 OFFCURVE",
"49 1183 CURVE SMOOTH",
"49 562 LINE SMOOTH",
"49 227 OFFCURVE",
"244 -4 OFFCURVE",
"560 -17 CURVE"
);
}
);
width = 596;
}
);
unicode = 0028;
userData = {
com.typemytype.robofont.layerData = {
};
};
},
{
glyphname = parenright;
layers = (
{
background = {
paths = (
{
closed = 1;
nodes = (
"352 -4 OFFCURVE",
"547 225 OFFCURVE",
"547 562 CURVE SMOOTH",
"547 1183 LINE SMOOTH",
"547 1546 OFFCURVE",
"381 1751 OFFCURVE",
"36 1761 CURVE",
"36 1494 LINE",
"137 1476 OFFCURVE",
"175 1415 OFFCURVE",
"175 1297 CURVE SMOOTH",
"175 450 LINE SMOOTH",
"175 350 OFFCURVE",
"115 289 OFFCURVE",
"36 268 CURVE",
"36 -17 LINE"
);
}
);
};
layerId = "6CD1E358-6E98-409F-9A1F-EA9DE4C1A8AA";
paths = (
{
closed = 1;
nodes = (
"352 -4 OFFCURVE",
"547 225 OFFCURVE",
"547 562 CURVE SMOOTH",
"547 1183 LINE SMOOTH",
"547 1546 OFFCURVE",
"381 1751 OFFCURVE",
"36 1761 CURVE",
"36 1494 LINE",
"137 1476 OFFCURVE",
"175 1415 OFFCURVE",
"175 1297 CURVE SMOOTH",
"175 450 LINE SMOOTH",
"175 350 OFFCURVE",
"115 289 OFFCURVE",
"36 268 CURVE",
"36 -17 LINE"
);
}
);
width = 596;
}
);
unicode = 0029;
userData = {
com.typemytype.robofont.layerData = {
};
};
},
{
glyphname = emdash;
layers = (
{
background = {
paths = (
{
closed = 1;
nodes = (
"1092 509 LINE",
"1092 741 LINE",
"60 741 LINE",
"60 509 LINE"
);
}
);
};
layerId = "6CD1E358-6E98-409F-9A1F-EA9DE4C1A8AA";
paths = (
{
closed = 1;
nodes = (
"1092 509 LINE",
"1092 741 LINE",
"60 741 LINE",
"60 509 LINE"
);
}
);
width = 1153;
}
);
unicode = 2014;
userData = {
com.typemytype.robofont.layerData = {
};
};
},
{
glyphname = endash;
layers = (
{
background = {
paths = (
{
closed = 1;
nodes = (
"576 509 LINE",
"576 741 LINE",
"60 741 LINE",
"60 509 LINE"
);
}
);
};
layerId = "6CD1E358-6E98-409F-9A1F-EA9DE4C1A8AA";
paths = (
{
closed = 1;
nodes = (
"576 509 LINE",
"576 741 LINE",
"60 741 LINE",
"60 509 LINE"
);
}
);
width = 637;
}
);
unicode = 2013;
userData = {
com.typemytype.robofont.layerData = {
};
};
},
{
glyphname = hyphen;
layers = (
{
anchors = (
{
name = _mid;
position = "{328, 628}";
}
);
background = {
anchors = (
{
name = _mid;
position = "{328, 628}";
}
);
paths = (
{
closed = 1;
nodes = (
"576 509 LINE",
"576 741 LINE",
"60 741 LINE",
"60 509 LINE"
);
}
);
};
layerId = "6CD1E358-6E98-409F-9A1F-EA9DE4C1A8AA";
paths = (
{
closed = 1;
nodes = (
"576 509 LINE",
"576 741 LINE",
"60 741 LINE",
"60 509 LINE"
);
}
);
width = 637;
}
);
unicode = 002D;
userData = {
com.typemytype.robofont.layerData = {
};
};
},
{
glyphname = guillemetleft;
layers = (
{
background = {
paths = (
{
closed = 1;
nodes = (
"1126 618 LINE",
"814 749 LINE",
"1126 871 LINE",
"1126 1230 LINE",
"616 959 LINE",
"616 545 LINE",
"1126 260 LINE"
);
},
{
closed = 1;
nodes = (
"548 618 LINE",
"236 749 LINE",
"548 871 LINE",
"548 1230 LINE",
"38 959 LINE",
"38 545 LINE",
"548 260 LINE"
);
}
);
};
layerId = "6CD1E358-6E98-409F-9A1F-EA9DE4C1A8AA";
paths = (
{
closed = 1;
nodes = (
"1126 618 LINE",
"814 749 LINE",
"1126 871 LINE",
"1126 1230 LINE",
"616 959 LINE",
"616 545 LINE",
"1126 260 LINE"
);
},
{
closed = 1;
nodes = (
"548 618 LINE",
"236 749 LINE",
"548 871 LINE",
"548 1230 LINE",
"38 959 LINE",
"38 545 LINE",
"548 260 LINE"
);
}
);
width = 1184;
}
);
unicode = 00AB;
userData = {
com.typemytype.robofont.layerData = {
};
};
},
{
glyphname = guillemetright;
layers = (
{
background = {
paths = (
{
closed = 1;
nodes = (
"1145 545 LINE",
"1145 959 LINE",
"635 1230 LINE",
"635 871 LINE",
"947 749 LINE",
"635 618 LINE",
"635 260 LINE"
);
},
{
closed = 1;
nodes = (
"568 545 LINE",
"568 959 LINE",
"58 1230 LINE",
"58 871 LINE",
"370 749 LINE",
"58 618 LINE",
"58 260 LINE"
);
}
);
};
layerId = "6CD1E358-6E98-409F-9A1F-EA9DE4C1A8AA";
paths = (
{
closed = 1;
nodes = (
"1145 545 LINE",
"1145 959 LINE",
"635 1230 LINE",
"635 871 LINE",
"947 749 LINE",
"635 618 LINE",
"635 260 LINE"
);
},
{
closed = 1;
nodes = (
"568 545 LINE",
"568 959 LINE",
"58 1230 LINE",
"58 871 LINE",
"370 749 LINE",
"58 618 LINE",
"58 260 LINE"
);
}
);
width = 1184;
}
);
unicode = 00BB;
userData = {
com.typemytype.robofont.layerData = {
};
};
},
{
glyphname = guilsinglleft;
layers = (
{
background = {
paths = (
{
closed = 1;
nodes = (
"548 618 LINE",
"236 749 LINE",
"548 871 LINE",
"548 1230 LINE",
"38 959 LINE",
"38 545 LINE",
"548 260 LINE"
);
}
);
};
layerId = "6CD1E358-6E98-409F-9A1F-EA9DE4C1A8AA";
paths = (
{
closed = 1;
nodes = (
"548 618 LINE",
"236 749 LINE",
"548 871 LINE",
"548 1230 LINE",
"38 959 LINE",
"38 545 LINE",
"548 260 LINE"
);
}
);
width = 606;
}
);
unicode = 2039;
userData = {
com.typemytype.robofont.layerData = {
};
};
},
{
glyphname = guilsinglright;
layers = (
{
background = {
paths = (
{
closed = 1;
nodes = (
"568 545 LINE",
"568 959 LINE",
"58 1230 LINE",
"58 871 LINE",
"370 749 LINE",
"58 618 LINE",
"58 260 LINE"
);
}
);
};
layerId = "6CD1E358-6E98-409F-9A1F-EA9DE4C1A8AA";
paths = (
{
closed = 1;
nodes = (
"568 545 LINE",
"568 959 LINE",
"58 1230 LINE",
"58 871 LINE",
"370 749 LINE",
"58 618 LINE",
"58 260 LINE"
);
}
);
width = 607;
}
);
unicode = 203A;
userData = {
com.typemytype.robofont.layerData = {
};
};
},
{
glyphname = quotedblbase;
layers = (
{
background = {
paths = (
{
closed = 1;
nodes = (
"800 -236 LINE",
"902 9 LINE",
"902 298 LINE",
"528 298 LINE",
"528 0 LINE",
"655 0 LINE",
"589 -236 LINE"
);
},
{
closed = 1;
nodes = (
"327 -236 LINE",
"429 9 LINE",
"429 298 LINE",
"55 298 LINE",
"55 0 LINE",
"182 0 LINE",
"116 -236 LINE"
);
}
);
};
layerId = "6CD1E358-6E98-409F-9A1F-EA9DE4C1A8AA";
paths = (
{
closed = 1;
nodes = (
"800 -236 LINE",
"902 9 LINE",
"902 298 LINE",
"528 298 LINE",
"528 0 LINE",
"655 0 LINE",
"589 -236 LINE"
);
},
{
closed = 1;
nodes = (
"327 -236 LINE",
"429 9 LINE",
"429 298 LINE",
"55 298 LINE",
"55 0 LINE",
"182 0 LINE",
"116 -236 LINE"
);
}
);
width = 957;
}
);
unicode = 201E;
userData = {
com.typemytype.robofont.layerData = {
};
};
},
{
glyphname = quotedblleft;
layers = (
{
background = {
paths = (
{
closed = 1;
nodes = (
"897 1226 LINE",
"897 1524 LINE",
"770 1524 LINE",
"836 1760 LINE",
"625 1760 LINE",
"523 1515 LINE",
"523 1226 LINE"
);
},
{
closed = 1;
nodes = (
"428 1226 LINE",
"428 1524 LINE",
"301 1524 LINE",
"367 1760 LINE",
"156 1760 LINE",
"54 1515 LINE",
"54 1226 LINE"
);
}
);
};
layerId = "6CD1E358-6E98-409F-9A1F-EA9DE4C1A8AA";
paths = (
{
closed = 1;
nodes = (
"897 1226 LINE",
"897 1524 LINE",
"770 1524 LINE",
"836 1760 LINE",
"625 1760 LINE",
"523 1515 LINE",
"523 1226 LINE"
);
},
{
closed = 1;
nodes = (
"428 1226 LINE",
"428 1524 LINE",
"301 1524 LINE",
"367 1760 LINE",
"156 1760 LINE",
"54 1515 LINE",
"54 1226 LINE"
);
}
);
width = 950;
}
);
unicode = 201C;
userData = {
com.typemytype.robofont.layerData = {
};
};
},
{
glyphname = quotedblright;
layers = (
{
background = {
paths = (
{
closed = 1;
nodes = (
"795 1226 LINE",
"897 1471 LINE",
"897 1760 LINE",
"523 1760 LINE",
"523 1462 LINE",
"650 1462 LINE",
"584 1226 LINE"
);
},
{
closed = 1;
nodes = (
"322 1226 LINE",
"424 1471 LINE",
"424 1760 LINE",
"50 1760 LINE",
"50 1462 LINE",
"177 1462 LINE",
"111 1226 LINE"
);
}
);
};
layerId = "6CD1E358-6E98-409F-9A1F-EA9DE4C1A8AA";
paths = (
{
closed = 1;
nodes = (
"795 1226 LINE",
"897 1471 LINE",
"897 1760 LINE",
"523 1760 LINE",
"523 1462 LINE",
"650 1462 LINE",
"584 1226 LINE"
);
},
{
closed = 1;
nodes = (
"322 1226 LINE",
"424 1471 LINE",
"424 1760 LINE",
"50 1760 LINE",
"50 1462 LINE",
"177 1462 LINE",
"111 1226 LINE"
);
}
);
width = 948;
}
);
unicode = 201D;
userData = {
com.typemytype.robofont.layerData = {
};
};
},
{
glyphname = quoteleft;
layers = (
{
background = {
paths = (
{
closed = 1;
nodes = (
"428 1226 LINE",
"428 1524 LINE",
"301 1524 LINE",
"367 1760 LINE",
"156 1760 LINE",
"54 1515 LINE",
"54 1226 LINE"
);
}
);
};
layerId = "6CD1E358-6E98-409F-9A1F-EA9DE4C1A8AA";
paths = (
{
closed = 1;
nodes = (
"428 1226 LINE",
"428 1524 LINE",
"301 1524 LINE",
"367 1760 LINE",
"156 1760 LINE",
"54 1515 LINE",
"54 1226 LINE"
);
}
);
width = 481;
}
);
unicode = 2018;
userData = {
com.typemytype.robofont.layerData = {
};
};
},
{
glyphname = quoteright;
layers = (
{
background = {
paths = (
{
closed = 1;
nodes = (
"322 1244 LINE",
"424 1489 LINE",
"424 1778 LINE",
"50 1778 LINE",
"50 1480 LINE",
"177 1480 LINE",
"111 1244 LINE"
);
}
);
};
layerId = "6CD1E358-6E98-409F-9A1F-EA9DE4C1A8AA";
paths = (
{
closed = 1;
nodes = (
"322 1244 LINE",
"424 1489 LINE",
"424 1778 LINE",
"50 1778 LINE",
"50 1480 LINE",
"177 1480 LINE",
"111 1244 LINE"
);
}
);
width = 475;
}
);
unicode = 2019;
userData = {
com.typemytype.robofont.layerData = {
};
};
},
{
glyphname = quotesinglbase;
layers = (
{
background = {
paths = (
{
closed = 1;
nodes = (
"327 -236 LINE",
"429 9 LINE",
"429 298 LINE",
"55 298 LINE",
"55 0 LINE",
"182 0 LINE",
"116 -236 LINE"
);
}
);
};
layerId = "6CD1E358-6E98-409F-9A1F-EA9DE4C1A8AA";
paths = (
{
closed = 1;
nodes = (
"327 -236 LINE",
"429 9 LINE",
"429 298 LINE",
"55 298 LINE",
"55 0 LINE",
"182 0 LINE",
"116 -236 LINE"
);
}
);
width = 484;
}
);
unicode = 201A;
userData = {
com.typemytype.robofont.layerData = {
};
};
},
{
glyphname = cedi;
layers = (
{
background = {
components = (
{
name = cent;
}
);
};
components = (
{
name = cent;
}
);
layerId = "6CD1E358-6E98-409F-9A1F-EA9DE4C1A8AA";
width = 986;
},
{
associatedMasterId = "6CD1E358-6E98-409F-9A1F-EA9DE4C1A8AA";
layerId = "5521CA10-DEC5-49E0-ACE9-E0A5DC0373F7";
name = "Regular Jul 5 16, 00:34";
paths = (
{
closed = 1;
nodes = (
"385 294 OFFCURVE",
"419 228 OFFCURVE",
"519 228 CURVE SMOOTH",
"616 228 OFFCURVE",
"655 301 OFFCURVE",
"655 408 CURVE SMOOTH",
"655 682 LINE",
"916 682 LINE",
"916 381 LINE SMOOTH",
"916 103 OFFCURVE",
"768 -21 OFFCURVE",
"521 -21 CURVE SMOOTH",
"285 -21 OFFCURVE",
"129 134 OFFCURVE",
"129 391 CURVE SMOOTH",
"129 1129 LINE SMOOTH",
"129 1437 OFFCURVE",
"247 1600 OFFCURVE",
"529 1600 CURVE SMOOTH",
"749 1600 OFFCURVE",
"909 1482 OFFCURVE",
"909 1232 CURVE SMOOTH",
"909 952 LINE",
"655 952 LINE",
"655 1136 LINE SMOOTH",
"655 1270 OFFCURVE",
"625 1340 OFFCURVE",
"521 1340 CURVE SMOOTH",
"405 1340 OFFCURVE",
"385 1267 OFFCURVE",
"385 1161 CURVE SMOOTH",
"385 408 LINE SMOOTH"
);
},
{
closed = 1;
nodes = (
"588 1709 LINE",
"588 -143 LINE",
"453 -143 LINE",
"453 1709 LINE"
);
}
);
width = 1044;
}
);
unicode = 20B5;
},
{
glyphname = cent;
layers = (
{
background = {
paths = (
{
closed = 1;
nodes = (
"595 -163 LINE",
"595 -12 LINE",
"795 16 OFFCURVE",
"941 155 OFFCURVE",
"941 379 CURVE SMOOTH",
"941 614 LINE",
"576 614 LINE",
"578 389 LINE SMOOTH",
"578 322 OFFCURVE",
"556 264 OFFCURVE",
"494 264 CURVE SMOOTH",
"433 264 OFFCURVE",
"408 326 OFFCURVE",
"408 387 CURVE SMOOTH",
"408 1114 LINE SMOOTH",
"408 1197 OFFCURVE",
"437 1239 OFFCURVE",
"496 1239 CURVE SMOOTH",
"563 1239 OFFCURVE",
"576 1185 OFFCURVE",
"576 1116 CURVE SMOOTH",
"576 879 LINE",
"941 879 LINE",
"941 1135 LINE SMOOTH",
"941 1354 OFFCURVE",
"792 1483 OFFCURVE",
"595 1511 CURVE",
"595 1677 LINE",
"422 1677 LINE",
"422 1514 LINE",
"130 1485 OFFCURVE",
"48 1294 OFFCURVE",
"48 954 CURVE SMOOTH",
"48 492 LINE SMOOTH",
"48 190 OFFCURVE",
"149 18 OFFCURVE",
"422 -13 CURVE",
"422 -163 LINE"
);
}
);
};
layerId = "6CD1E358-6E98-409F-9A1F-EA9DE4C1A8AA";
paths = (
{
closed = 1;
nodes = (
"595 -163 LINE",
"595 -12 LINE",
"795 16 OFFCURVE",
"941 155 OFFCURVE",
"941 379 CURVE SMOOTH",
"941 614 LINE",
"576 614 LINE",
"578 389 LINE SMOOTH",
"578 322 OFFCURVE",
"556 264 OFFCURVE",
"494 264 CURVE SMOOTH",
"433 264 OFFCURVE",
"408 326 OFFCURVE",
"408 387 CURVE SMOOTH",
"408 1114 LINE SMOOTH",
"408 1197 OFFCURVE",
"437 1239 OFFCURVE",
"496 1239 CURVE SMOOTH",
"563 1239 OFFCURVE",
"576 1185 OFFCURVE",
"576 1116 CURVE SMOOTH",
"576 879 LINE",
"941 879 LINE",
"941 1135 LINE SMOOTH",
"941 1354 OFFCURVE",
"792 1483 OFFCURVE",
"595 1511 CURVE",
"595 1677 LINE",
"422 1677 LINE",
"422 1514 LINE",
"130 1485 OFFCURVE",
"48 1294 OFFCURVE",
"48 954 CURVE SMOOTH",
"48 492 LINE SMOOTH",
"48 190 OFFCURVE",
"149 18 OFFCURVE",
"422 -13 CURVE",
"422 -163 LINE"
);
}
);
width = 986;
}
);
unicode = 00A2;
userData = {
com.typemytype.robofont.layerData = {
};
};
},
{
glyphname = colonsign;
layers = (
{
background = {
paths = (
{
closed = 1;
nodes = (
"767 -21 OFFCURVE",
"915 103 OFFCURVE",
"915 381 CURVE SMOOTH",
"915 682 LINE",
"654 682 LINE",
"654 408 LINE SMOOTH",
"654 301 OFFCURVE",
"615 228 OFFCURVE",
"518 228 CURVE SMOOTH",
"418 228 OFFCURVE",
"384 294 OFFCURVE",
"384 408 CURVE SMOOTH",
"384 1161 LINE SMOOTH",
"384 1267 OFFCURVE",
"404 1340 OFFCURVE",
"520 1340 CURVE SMOOTH",
"624 1340 OFFCURVE",
"654 1270 OFFCURVE",
"654 1136 CURVE SMOOTH",
"654 952 LINE",
"908 952 LINE",
"908 1232 LINE SMOOTH",
"908 1482 OFFCURVE",
"748 1600 OFFCURVE",
"528 1600 CURVE SMOOTH",
"246 1600 OFFCURVE",
"128 1437 OFFCURVE",
"128 1129 CURVE SMOOTH",
"128 391 LINE SMOOTH",
"128 134 OFFCURVE",
"284 -21 OFFCURVE",
"520 -21 CURVE SMOOTH"
);
},
{
closed = 1;
nodes = (
"278 -113 LINE",
"648 1679 LINE",
"543 1679 LINE",
"173 -113 LINE"
);
},
{
closed = 1;
nodes = (
"458 -113 LINE",
"828 1679 LINE",
"723 1679 LINE",
"353 -113 LINE"
);
}
);
};
layerId = "6CD1E358-6E98-409F-9A1F-EA9DE4C1A8AA";
paths = (
{
closed = 1;
nodes = (
"767 -21 OFFCURVE",
"915 103 OFFCURVE",
"915 381 CURVE SMOOTH",
"915 682 LINE",
"654 682 LINE",
"654 408 LINE SMOOTH",
"654 301 OFFCURVE",
"615 228 OFFCURVE",
"518 228 CURVE SMOOTH",
"418 228 OFFCURVE",
"384 294 OFFCURVE",
"384 408 CURVE SMOOTH",
"384 1161 LINE SMOOTH",
"384 1267 OFFCURVE",
"404 1340 OFFCURVE",
"520 1340 CURVE SMOOTH",
"624 1340 OFFCURVE",
"654 1270 OFFCURVE",
"654 1136 CURVE SMOOTH",
"654 952 LINE",
"908 952 LINE",
"908 1232 LINE SMOOTH",
"908 1482 OFFCURVE",
"748 1600 OFFCURVE",
"528 1600 CURVE SMOOTH",
"246 1600 OFFCURVE",
"128 1437 OFFCURVE",
"128 1129 CURVE SMOOTH",
"128 391 LINE SMOOTH",
"128 134 OFFCURVE",
"284 -21 OFFCURVE",
"520 -21 CURVE SMOOTH"
);
},
{
closed = 1;
nodes = (
"278 -113 LINE",
"648 1679 LINE",
"543 1679 LINE",
"173 -113 LINE"
);
},
{
closed = 1;
nodes = (
"458 -113 LINE",
"828 1679 LINE",
"723 1679 LINE",
"353 -113 LINE"
);
}
);
width = 1042;
},
{
associatedMasterId = "6CD1E358-6E98-409F-9A1F-EA9DE4C1A8AA";
layerId = "5DD7724E-8236-43BD-9DFD-E91206D76853";
name = "Condensed Jul 1 16, 14:07";
paths = (
{
closed = 1;
nodes = (
"454 332 OFFCURVE",
"473 288 OFFCURVE",
"528 288 CURVE SMOOTH",
"582 288 OFFCURVE",
"604 336 OFFCURVE",
"604 408 CURVE SMOOTH",
"604 682 LINE",
"925 682 LINE",
"925 381 LINE SMOOTH",
"925 103 OFFCURVE",
"777 -21 OFFCURVE",
"530 -21 CURVE SMOOTH",
"294 -21 OFFCURVE",
"138 134 OFFCURVE",
"138 391 CURVE SMOOTH",
"138 1129 LINE SMOOTH",
"138 1437 OFFCURVE",
"256 1600 OFFCURVE",
"538 1600 CURVE SMOOTH",
"758 1600 OFFCURVE",
"918 1482 OFFCURVE",
"918 1232 CURVE SMOOTH",
"918 952 LINE",
"604 952 LINE",
"604 1136 LINE SMOOTH",
"604 1230 OFFCURVE",
"588 1280 OFFCURVE",
"530 1280 CURVE SMOOTH",
"465 1280 OFFCURVE",
"454 1231 OFFCURVE",
"454 1161 CURVE SMOOTH",
"454 408 LINE SMOOTH"
);
},
{
closed = 1;
nodes = (
"708 1679 LINE",
"298 -113 LINE",
"223 -113 LINE",
"633 1679 LINE"
);
},
{
closed = 1;
nodes = (
"848 1679 LINE",
"438 -113 LINE",
"363 -113 LINE",
"773 1679 LINE"
);
}
);
width = 971;
}
);
unicode = 20A1;
},
{
glyphname = currency;
layers = (
{
background = {
paths = (
{
closed = 1;
nodes = (
"283 598 LINE",
"344 563 OFFCURVE",
"416 545 OFFCURVE",
"499 545 CURVE SMOOTH",
"581 545 OFFCURVE",
"653 562 OFFCURVE",
"715 597 CURVE",
"804 509 LINE",
"954 658 LINE",
"864 748 LINE",
"900 813 OFFCURVE",
"918 885 OFFCURVE",
"918 964 CURVE SMOOTH",
"918 1043 OFFCURVE",
"900 1114 OFFCURVE",
"864 1179 CURVE",
"954 1269 LINE",
"804 1418 LINE",
"717 1331 LINE",
"652 1367 OFFCURVE",
"579 1385 OFFCURVE",
"499 1385 CURVE SMOOTH",
"418 1385 OFFCURVE",
"346 1367 OFFCURVE",
"281 1330 CURVE",
"194 1418 LINE",
"45 1268 LINE",
"135 1178 LINE",
"100 1113 OFFCURVE",
"83 1042 OFFCURVE",
"83 964 CURVE SMOOTH",
"83 887 OFFCURVE",
"101 815 OFFCURVE",
"136 750 CURVE",
"45 659 LINE",
"194 509 LINE"
);
},
{
closed = 1;
nodes = (
"372 741 OFFCURVE",
"291 840 OFFCURVE",
"291 964 CURVE SMOOTH",
"291 1087 OFFCURVE",
"373 1186 OFFCURVE",
"499 1186 CURVE SMOOTH",
"628 1186 OFFCURVE",
"708 1092 OFFCURVE",
"708 966 CURVE SMOOTH",
"708 842 OFFCURVE",
"626 741 OFFCURVE",
"499 741 CURVE SMOOTH"
);
}
);
};
layerId = "6CD1E358-6E98-409F-9A1F-EA9DE4C1A8AA";
paths = (
{
closed = 1;
nodes = (
"283 598 LINE",
"344 563 OFFCURVE",
"416 545 OFFCURVE",
"499 545 CURVE SMOOTH",
"581 545 OFFCURVE",
"653 562 OFFCURVE",
"715 597 CURVE",
"804 509 LINE",
"954 658 LINE",
"864 748 LINE",
"900 813 OFFCURVE",
"918 885 OFFCURVE",
"918 964 CURVE SMOOTH",
"918 1043 OFFCURVE",
"900 1114 OFFCURVE",
"864 1179 CURVE",
"954 1269 LINE",
"804 1418 LINE",
"717 1331 LINE",
"652 1367 OFFCURVE",
"579 1385 OFFCURVE",
"499 1385 CURVE SMOOTH",
"418 1385 OFFCURVE",
"346 1367 OFFCURVE",
"281 1330 CURVE",
"194 1418 LINE",
"45 1268 LINE",
"135 1178 LINE",
"100 1113 OFFCURVE",
"83 1042 OFFCURVE",
"83 964 CURVE SMOOTH",
"83 887 OFFCURVE",
"101 815 OFFCURVE",
"136 750 CURVE",
"45 659 LINE",
"194 509 LINE"
);
},
{
closed = 1;
nodes = (
"372 741 OFFCURVE",
"291 840 OFFCURVE",
"291 964 CURVE SMOOTH",
"291 1087 OFFCURVE",
"373 1186 OFFCURVE",
"499 1186 CURVE SMOOTH",
"628 1186 OFFCURVE",
"708 1092 OFFCURVE",
"708 966 CURVE SMOOTH",
"708 842 OFFCURVE",
"626 741 OFFCURVE",
"499 741 CURVE SMOOTH"
);
}
);
width = 1000;
}
);
unicode = 00A4;
userData = {
com.typemytype.robofont.layerData = {
};
};
},
{
glyphname = dollar;
layers = (
{
background = {
paths = (
{
closed = 1;
nodes = (
"557 -113 LINE",
"557 34 LINE",
"760 57 OFFCURVE",
"911 193 OFFCURVE",
"911 413 CURVE SMOOTH",
"911 559 OFFCURVE",
"842 677 OFFCURVE",
"760 758 CURVE SMOOTH",
"480 1034 LINE SMOOTH",
"414 1099 OFFCURVE",
"381 1149 OFFCURVE",
"381 1182 CURVE SMOOTH",
"381 1228 OFFCURVE",
"419 1259 OFFCURVE",
"465 1259 CURVE SMOOTH",
"505 1259 OFFCURVE",
"544 1227 OFFCURVE",
"547 1190 CURVE",
"549 1105 LINE",
"906 1105 LINE",
"906 1366 OFFCURVE",
"785 1532 OFFCURVE",
"557 1561 CURVE",
"557 1679 LINE",
"384 1679 LINE",
"384 1558 LINE",
"203 1526 OFFCURVE",
"52 1392 OFFCURVE",
"52 1192 CURVE SMOOTH",
"52 1069 OFFCURVE",
"105 954 OFFCURVE",
"210 849 CURVE SMOOTH",
"498 560 LINE",
"539 514 OFFCURVE",
"560 479 OFFCURVE",
"560 456 CURVE SMOOTH",
"560 397 OFFCURVE",
"532 347 OFFCURVE",
"476 347 CURVE SMOOTH",
"413 347 OFFCURVE",
"382 398 OFFCURVE",
"382 501 CURVE SMOOTH",
"382 543 LINE",
"34 543 LINE",
"34 488 LINE SMOOTH",
"34 208 OFFCURVE",
"133 65 OFFCURVE",
"384 36 CURVE",
"384 -113 LINE"
);
}
);
};
layerId = "6CD1E358-6E98-409F-9A1F-EA9DE4C1A8AA";
paths = (
{
closed = 1;
nodes = (
"557 -113 LINE",
"557 34 LINE",
"760 57 OFFCURVE",
"911 193 OFFCURVE",
"911 413 CURVE SMOOTH",
"911 559 OFFCURVE",
"842 677 OFFCURVE",
"760 758 CURVE SMOOTH",
"480 1034 LINE SMOOTH",
"414 1099 OFFCURVE",
"381 1149 OFFCURVE",
"381 1182 CURVE SMOOTH",
"381 1228 OFFCURVE",
"419 1259 OFFCURVE",
"465 1259 CURVE SMOOTH",
"505 1259 OFFCURVE",
"544 1227 OFFCURVE",
"547 1190 CURVE",
"549 1105 LINE",
"906 1105 LINE",
"906 1366 OFFCURVE",
"785 1532 OFFCURVE",
"557 1561 CURVE",
"557 1679 LINE",
"384 1679 LINE",
"384 1558 LINE",
"203 1526 OFFCURVE",
"52 1392 OFFCURVE",
"52 1192 CURVE SMOOTH",
"52 1069 OFFCURVE",
"105 954 OFFCURVE",
"210 849 CURVE SMOOTH",
"498 560 LINE",
"539 514 OFFCURVE",
"560 479 OFFCURVE",
"560 456 CURVE SMOOTH",
"560 397 OFFCURVE",
"532 347 OFFCURVE",
"476 347 CURVE SMOOTH",
"413 347 OFFCURVE",
"382 398 OFFCURVE",
"382 501 CURVE SMOOTH",
"382 543 LINE",
"34 543 LINE",
"34 488 LINE SMOOTH",
"34 208 OFFCURVE",
"133 65 OFFCURVE",
"384 36 CURVE",
"384 -113 LINE"
);
}
);
width = 946;
}
);
unicode = 0024;
userData = {
com.typemytype.robofont.layerData = {
};
};
},
{
glyphname = dong;
layers = (
{
background = {
paths = (
{
closed = 1;
nodes = (
"478 -18 OFFCURVE",
"531 44 OFFCURVE",
"567 142 CURVE",
"567 -2 LINE",
"891 -2 LINE",
"891 1331 LINE",
"954 1331 LINE",
"954 1498 LINE",
"891 1498 LINE",
"891 1596 LINE",
"567 1596 LINE",
"567 1498 LINE",
"233 1498 LINE",
"233 1331 LINE",
"567 1331 LINE",
"567 1161 LINE",
"523 1221 OFFCURVE",
"457 1251 OFFCURVE",
"371 1251 CURVE SMOOTH",
"185 1251 OFFCURVE",
"91 1105 OFFCURVE",
"91 921 CURVE SMOOTH",
"88 430 LINE SMOOTH",
"88 180 OFFCURVE",
"115 -18 OFFCURVE",
"365 -18 CURVE SMOOTH"
);
},
{
closed = 1;
nodes = (
"891 -340 LINE",
"891 -106 LINE",
"88 -106 LINE",
"88 -340 LINE"
);
},
{
closed = 1;
nodes = (
"438 237 OFFCURVE",
"412 294 OFFCURVE",
"412 407 CURVE SMOOTH",
"412 857 LINE SMOOTH",
"412 927 OFFCURVE",
"421 999 OFFCURVE",
"491 999 CURVE SMOOTH",
"554 999 OFFCURVE",
"567 921 OFFCURVE",
"567 857 CURVE SMOOTH",
"567 468 LINE SMOOTH",
"567 380 OFFCURVE",
"578 237 OFFCURVE",
"489 237 CURVE SMOOTH"
);
}
);
};
layerId = "6CD1E358-6E98-409F-9A1F-EA9DE4C1A8AA";
paths = (
{
closed = 1;
nodes = (
"478 -18 OFFCURVE",
"531 44 OFFCURVE",
"567 142 CURVE",
"567 -2 LINE",
"891 -2 LINE",
"891 1331 LINE",
"954 1331 LINE",
"954 1498 LINE",
"891 1498 LINE",
"891 1596 LINE",
"567 1596 LINE",
"567 1498 LINE",
"233 1498 LINE",
"233 1331 LINE",
"567 1331 LINE",
"567 1161 LINE",
"523 1221 OFFCURVE",
"457 1251 OFFCURVE",
"371 1251 CURVE SMOOTH",
"185 1251 OFFCURVE",
"91 1105 OFFCURVE",
"91 921 CURVE SMOOTH",
"88 430 LINE SMOOTH",
"88 180 OFFCURVE",
"115 -18 OFFCURVE",
"365 -18 CURVE SMOOTH"
);
},
{
closed = 1;
nodes = (
"891 -340 LINE",
"891 -106 LINE",
"88 -106 LINE",
"88 -340 LINE"
);
},
{
closed = 1;
nodes = (
"438 237 OFFCURVE",
"412 294 OFFCURVE",
"412 407 CURVE SMOOTH",
"412 857 LINE SMOOTH",
"412 927 OFFCURVE",
"421 999 OFFCURVE",
"491 999 CURVE SMOOTH",
"554 999 OFFCURVE",
"567 921 OFFCURVE",
"567 857 CURVE SMOOTH",
"567 468 LINE SMOOTH",
"567 380 OFFCURVE",
"578 237 OFFCURVE",
"489 237 CURVE SMOOTH"
);
}
);
width = 1042;
}
);
unicode = 20AB;
},
{
glyphname = euro;
layers = (
{
background = {
paths = (
{
closed = 1;
nodes = (
"889 -16 OFFCURVE",
"1040 188 OFFCURVE",
"1042 477 CURVE",
"693 471 LINE",
"693 449 LINE SMOOTH",
"693 388 OFFCURVE",
"660 332 OFFCURVE",
"606 332 CURVE SMOOTH",
"552 332 OFFCURVE",
"519 388 OFFCURVE",
"519 449 CURVE SMOOTH",
"519 651 LINE",
"834 651 LINE",
"834 833 LINE",
"519 833 LINE",
"519 984 LINE",
"834 984 LINE",
"834 1168 LINE",
"519 1168 LINE",
"519 1320 LINE SMOOTH",
"519 1400 OFFCURVE",
"526 1471 OFFCURVE",
"606 1471 CURVE SMOOTH",
"686 1471 OFFCURVE",
"693 1400 OFFCURVE",
"693 1320 CURVE SMOOTH",
"693 1293 LINE",
"1042 1292 LINE",
"1037 1596 OFFCURVE",
"904 1776 OFFCURVE",
"606 1776 CURVE SMOOTH",
"292 1776 OFFCURVE",
"140 1599 OFFCURVE",
"140 1278 CURVE SMOOTH",
"140 1168 LINE",
"40 1168 LINE",
"40 984 LINE",
"140 984 LINE",
"140 833 LINE",
"40 833 LINE",
"40 651 LINE",
"140 651 LINE",
"140 484 LINE SMOOTH",
"140 181 OFFCURVE",
"308 -16 OFFCURVE",
"606 -16 CURVE SMOOTH"
);
}
);
};
layerId = "6CD1E358-6E98-409F-9A1F-EA9DE4C1A8AA";
paths = (
{
closed = 1;
nodes = (
"889 -16 OFFCURVE",
"1040 188 OFFCURVE",
"1042 477 CURVE",
"693 471 LINE",
"693 449 LINE SMOOTH",
"693 388 OFFCURVE",
"660 332 OFFCURVE",
"606 332 CURVE SMOOTH",
"552 332 OFFCURVE",
"519 388 OFFCURVE",
"519 449 CURVE SMOOTH",
"519 651 LINE",
"834 651 LINE",
"834 833 LINE",
"519 833 LINE",
"519 984 LINE",
"834 984 LINE",
"834 1168 LINE",
"519 1168 LINE",
"519 1320 LINE SMOOTH",
"519 1400 OFFCURVE",
"526 1471 OFFCURVE",
"606 1471 CURVE SMOOTH",
"686 1471 OFFCURVE",
"693 1400 OFFCURVE",
"693 1320 CURVE SMOOTH",
"693 1293 LINE",
"1042 1292 LINE",
"1037 1596 OFFCURVE",
"904 1776 OFFCURVE",
"606 1776 CURVE SMOOTH",
"292 1776 OFFCURVE",
"140 1599 OFFCURVE",
"140 1278 CURVE SMOOTH",
"140 1168 LINE",
"40 1168 LINE",
"40 984 LINE",
"140 984 LINE",
"140 833 LINE",
"40 833 LINE",
"40 651 LINE",
"140 651 LINE",
"140 484 LINE SMOOTH",
"140 181 OFFCURVE",
"308 -16 OFFCURVE",
"606 -16 CURVE SMOOTH"
);
}
);
width = 1075;
}
);
unicode = 20AC;
userData = {
com.typemytype.robofont.layerData = {
};
};
},
{
glyphname = florin;
layers = (
{
background = {
paths = (
{
closed = 1;
nodes = (
"406 -47 OFFCURVE",
"487 34 OFFCURVE",
"487 195 CURVE SMOOTH",
"487 986 LINE",
"578 986 LINE",
"578 1263 LINE",
"480 1263 LINE",
"480 1281 LINE SMOOTH",
"480 1332 OFFCURVE",
"486 1362 OFFCURVE",
"535 1362 CURVE SMOOTH",
"545 1362 OFFCURVE",
"559 1360 OFFCURVE",
"578 1357 CURVE",
"578 1578 LINE",
"527 1597 OFFCURVE",
"459 1607 OFFCURVE",
"374 1607 CURVE SMOOTH",
"213 1607 OFFCURVE",
"132 1526 OFFCURVE",
"132 1365 CURVE SMOOTH",
"132 1263 LINE",
"47 1263 LINE",
"47 986 LINE",
"132 986 LINE",
"139 297 LINE",
"139 279 LINE SMOOTH",
"139 228 OFFCURVE",
"133 198 OFFCURVE",
"84 198 CURVE SMOOTH",
"74 198 OFFCURVE",
"60 200 OFFCURVE",
"41 203 CURVE",
"41 -18 LINE",
"92 -37 OFFCURVE",
"160 -47 OFFCURVE",
"245 -47 CURVE SMOOTH"
);
}
);
};
layerId = "6CD1E358-6E98-409F-9A1F-EA9DE4C1A8AA";
paths = (
{
closed = 1;
nodes = (
"406 -47 OFFCURVE",
"487 34 OFFCURVE",
"487 195 CURVE SMOOTH",
"487 986 LINE",
"578 986 LINE",
"578 1263 LINE",
"480 1263 LINE",
"480 1281 LINE SMOOTH",
"480 1332 OFFCURVE",
"486 1362 OFFCURVE",
"535 1362 CURVE SMOOTH",
"545 1362 OFFCURVE",
"559 1360 OFFCURVE",
"578 1357 CURVE",
"578 1578 LINE",
"527 1597 OFFCURVE",
"459 1607 OFFCURVE",
"374 1607 CURVE SMOOTH",
"213 1607 OFFCURVE",
"132 1526 OFFCURVE",
"132 1365 CURVE SMOOTH",
"132 1263 LINE",
"47 1263 LINE",
"47 986 LINE",
"132 986 LINE",
"139 297 LINE",
"139 279 LINE SMOOTH",
"139 228 OFFCURVE",
"133 198 OFFCURVE",
"84 198 CURVE SMOOTH",
"74 198 OFFCURVE",
"60 200 OFFCURVE",
"41 203 CURVE",
"41 -18 LINE",
"92 -37 OFFCURVE",
"160 -47 OFFCURVE",
"245 -47 CURVE SMOOTH"
);
}
);
width = 620;
}
);
unicode = 0192;
userData = {
com.typemytype.robofont.layerData = {
};
};
},
{
glyphname = franc;
layers = (
{
background = {
paths = (
{
closed = 1;
nodes = (
"573 0 LINE",
"573 722 LINE",
"873 722 LINE",
"873 1028 LINE",
"573 1028 LINE",
"573 1282 LINE",
"889 1282 LINE",
"889 1592 LINE",
"252 1592 LINE",
"252 0 LINE"
);
},
{
closed = 1;
nodes = (
"774 325 LINE",
"774 505 LINE",
"152 505 LINE",
"152 325 LINE"
);
}
);
};
layerId = "6CD1E358-6E98-409F-9A1F-EA9DE4C1A8AA";
paths = (
{
closed = 1;
nodes = (
"573 0 LINE",
"573 722 LINE",
"873 722 LINE",
"873 1028 LINE",
"573 1028 LINE",
"573 1282 LINE",
"889 1282 LINE",
"889 1592 LINE",
"252 1592 LINE",
"252 0 LINE"
);
},
{
closed = 1;
nodes = (
"774 325 LINE",
"774 505 LINE",
"152 505 LINE",
"152 325 LINE"
);
}
);
width = 1040;
}
);
unicode = 20A3;
},
{
glyphname = guarani;
layers = (
{
background = {
paths = (
{
closed = 1;
nodes = (
"589 -21 OFFCURVE",
"676 30 OFFCURVE",
"733 132 CURVE",
"787 -2 LINE",
"910 -2 LINE",
"910 913 LINE",
"573 913 LINE",
"573 659 LINE",
"658 659 LINE",
"658 415 LINE SMOOTH",
"658 317 OFFCURVE",
"651 239 OFFCURVE",
"513 239 CURVE SMOOTH",
"396 239 OFFCURVE",
"383 322 OFFCURVE",
"383 407 CURVE SMOOTH",
"383 1123 LINE SMOOTH",
"383 1276 OFFCURVE",
"410 1341 OFFCURVE",
"524 1341 CURVE SMOOTH",
"627 1341 OFFCURVE",
"658 1284 OFFCURVE",
"658 1186 CURVE SMOOTH",
"658 1052 LINE",
"914 1052 LINE",
"914 1407 OFFCURVE",
"841 1601 OFFCURVE",
"520 1601 CURVE SMOOTH",
"261 1601 OFFCURVE",
"127 1455 OFFCURVE",
"127 1161 CURVE SMOOTH",
"127 471 LINE SMOOTH",
"127 143 OFFCURVE",
"242 -21 OFFCURVE",
"471 -21 CURVE SMOOTH"
);
},
{
closed = 1;
nodes = (
"603 -163 LINE",
"603 79 LINE",
"428 79 LINE",
"428 -163 LINE"
);
},
{
closed = 1;
nodes = (
"603 1501 LINE",
"603 1763 LINE",
"428 1763 LINE",
"428 1501 LINE"
);
}
);
};
layerId = "6CD1E358-6E98-409F-9A1F-EA9DE4C1A8AA";
paths = (
{
closed = 1;
nodes = (
"589 -21 OFFCURVE",
"676 30 OFFCURVE",
"733 132 CURVE",
"787 -2 LINE",
"910 -2 LINE",
"910 913 LINE",
"573 913 LINE",
"573 659 LINE",
"658 659 LINE",
"658 415 LINE SMOOTH",
"658 317 OFFCURVE",
"651 239 OFFCURVE",
"513 239 CURVE SMOOTH",
"396 239 OFFCURVE",
"383 322 OFFCURVE",
"383 407 CURVE SMOOTH",
"383 1123 LINE SMOOTH",
"383 1276 OFFCURVE",
"410 1341 OFFCURVE",
"524 1341 CURVE SMOOTH",
"627 1341 OFFCURVE",
"658 1284 OFFCURVE",
"658 1186 CURVE SMOOTH",
"658 1052 LINE",
"914 1052 LINE",
"914 1407 OFFCURVE",
"841 1601 OFFCURVE",
"520 1601 CURVE SMOOTH",
"261 1601 OFFCURVE",
"127 1455 OFFCURVE",
"127 1161 CURVE SMOOTH",
"127 471 LINE SMOOTH",
"127 143 OFFCURVE",
"242 -21 OFFCURVE",
"471 -21 CURVE SMOOTH"
);
},
{
closed = 1;
nodes = (
"603 -163 LINE",
"603 79 LINE",
"428 79 LINE",
"428 -163 LINE"
);
},
{
closed = 1;
nodes = (
"603 1501 LINE",
"603 1763 LINE",
"428 1763 LINE",
"428 1501 LINE"
);
}
);
width = 1040;
},
{
associatedMasterId = "6CD1E358-6E98-409F-9A1F-EA9DE4C1A8AA";
layerId = "5103DB0D-8559-4497-9A9A-6C3CA913110B";
name = "Condensed Jul 1 16, 14:16";
paths = (
{
closed = 1;
nodes = (
"542 289 CURVE SMOOTH",
"618 289 OFFCURVE",
"622 367 OFFCURVE",
"622 465 CURVE SMOOTH",
"622 649 LINE",
"537 649 LINE",
"537 923 LINE",
"921 923 LINE",
"921 -2 LINE",
"798 -2 LINE",
"744 132 LINE",
"687 30 OFFCURVE",
"600 -21 OFFCURVE",
"482 -21 CURVE SMOOTH",
"253 -21 OFFCURVE",
"138 143 OFFCURVE",
"138 471 CURVE SMOOTH",
"138 1161 LINE SMOOTH",
"138 1455 OFFCURVE",
"272 1601 OFFCURVE",
"531 1601 CURVE SMOOTH",
"852 1601 OFFCURVE",
"925 1407 OFFCURVE",
"925 1052 CURVE",
"622 1052 LINE",
"622 1176 LINE SMOOTH",
"622 1244 OFFCURVE",
"605 1291 OFFCURVE",
"546 1291 CURVE SMOOTH",
"444 1291 OFFCURVE",
"456 1188 OFFCURVE",
"456 1073 CURVE SMOOTH",
"456 457 LINE SMOOTH",
"456 372 OFFCURVE",
"465 289 OFFCURVE"
);
}
);
width = 982;
}
);
unicode = 20B2;
},
{
glyphname = kip;
layers = (
{
background = {
paths = (
{
closed = 1;
nodes = (
"452 0 LINE",
"452 770 LINE",
"666 0 LINE",
"966 0 LINE",
"711 863 LINE",
"929 1592 LINE",
"639 1592 LINE",
"451 954 LINE",
"451 1592 LINE",
"176 1592 LINE",
"176 0 LINE"
);
},
{
closed = 1;
nodes = (
"881 740 LINE",
"881 984 LINE",
"76 984 LINE",
"76 740 LINE"
);
}
);
};
layerId = "6CD1E358-6E98-409F-9A1F-EA9DE4C1A8AA";
paths = (
{
closed = 1;
nodes = (
"452 0 LINE",
"452 770 LINE",
"666 0 LINE",
"966 0 LINE",
"711 863 LINE",
"929 1592 LINE",
"639 1592 LINE",
"451 954 LINE",
"451 1592 LINE",
"176 1592 LINE",
"176 0 LINE"
);
},
{
closed = 1;
nodes = (
"881 740 LINE",
"881 984 LINE",
"76 984 LINE",
"76 740 LINE"
);
}
);
width = 1042;
}
);
unicode = 20AD;
},
{
glyphname = lira;
layers = (
{
background = {
paths = (
{
closed = 1;
nodes = (
"924 0 LINE",
"924 291 LINE",
"454 291 LINE",
"530 337 OFFCURVE",
"596 422 OFFCURVE",
"596 541 CURVE SMOOTH",
"596 794 OFFCURVE",
"494 1050 OFFCURVE",
"494 1186 CURVE SMOOTH",
"494 1250 OFFCURVE",
"487 1312 OFFCURVE",
"550 1312 CURVE SMOOTH",
"617 1312 OFFCURVE",
"614 1212 OFFCURVE",
"614 1125 CURVE",
"933 1125 LINE",
"933 1421 OFFCURVE",
"833 1608 OFFCURVE",
"544 1608 CURVE SMOOTH",
"282 1608 OFFCURVE",
"127 1489 OFFCURVE",
"127 1224 CURVE SMOOTH",
"127 1082 OFFCURVE",
"218 822 OFFCURVE",
"218 568 CURVE SMOOTH",
"218 402 OFFCURVE",
"162 352 OFFCURVE",
"42 281 CURVE",
"42 0 LINE"
);
},
{
closed = 1;
nodes = (
"815 495 LINE",
"815 675 LINE",
"28 675 LINE",
"28 495 LINE"
);
},
{
closed = 1;
nodes = (
"815 795 LINE",
"815 975 LINE",
"28 975 LINE",
"28 795 LINE"
);
}
);
};
layerId = "6CD1E358-6E98-409F-9A1F-EA9DE4C1A8AA";
paths = (
{
closed = 1;
nodes = (
"924 0 LINE",
"924 291 LINE",
"454 291 LINE",
"530 337 OFFCURVE",
"596 422 OFFCURVE",
"596 541 CURVE SMOOTH",
"596 794 OFFCURVE",
"494 1050 OFFCURVE",
"494 1186 CURVE SMOOTH",
"494 1250 OFFCURVE",
"487 1312 OFFCURVE",
"550 1312 CURVE SMOOTH",
"617 1312 OFFCURVE",
"614 1212 OFFCURVE",
"614 1125 CURVE",
"933 1125 LINE",
"933 1421 OFFCURVE",
"833 1608 OFFCURVE",
"544 1608 CURVE SMOOTH",
"282 1608 OFFCURVE",
"127 1489 OFFCURVE",
"127 1224 CURVE SMOOTH",
"127 1082 OFFCURVE",
"218 822 OFFCURVE",
"218 568 CURVE SMOOTH",
"218 402 OFFCURVE",
"162 352 OFFCURVE",
"42 281 CURVE",
"42 0 LINE"
);
},
{
closed = 1;
nodes = (
"815 495 LINE",
"815 675 LINE",
"28 675 LINE",
"28 495 LINE"
);
},
{
closed = 1;
nodes = (
"815 795 LINE",
"815 975 LINE",
"28 975 LINE",
"28 795 LINE"
);
}
);
width = 970;
},
{
associatedMasterId = "6CD1E358-6E98-409F-9A1F-EA9DE4C1A8AA";
layerId = "9EAFD2E2-BF79-4D72-BED4-B754093EFD73";
name = "Condensed Jul 1 16, 13:50";
paths = (
{
closed = 1;
nodes = (
"924 0 LINE",
"42 0 LINE",
"42 281 LINE",
"162 352 OFFCURVE",
"218 402 OFFCURVE",
"218 568 CURVE SMOOTH",
"218 612 OFFCURVE",
"215 647 OFFCURVE",
"209 673 CURVE",
"47 673 LINE",
"47 905 LINE",
"182 905 LINE",
"168 964 LINE SMOOTH",
"154 1023 OFFCURVE",
"127 1158 OFFCURVE",
"127 1224 CURVE SMOOTH",
"127 1489 OFFCURVE",
"282 1608 OFFCURVE",
"544 1608 CURVE SMOOTH",
"833 1608 OFFCURVE",
"933 1421 OFFCURVE",
"933 1125 CURVE",
"614 1125 LINE",
"614 1212 OFFCURVE",
"617 1312 OFFCURVE",
"550 1312 CURVE SMOOTH",
"487 1312 OFFCURVE",
"494 1250 OFFCURVE",
"494 1186 CURVE SMOOTH",
"494 1173 LINE SMOOTH",
"494 1142 OFFCURVE",
"513 1053 OFFCURVE",
"550 905 CURVE",
"834 905 LINE",
"834 673 LINE",
"585 673 LINE",
"596 541 LINE",
"589 422 OFFCURVE",
"530 337 OFFCURVE",
"454 291 CURVE",
"924 291 LINE"
);
}
);
width = 970;
}
);
unicode = 20A4;
},
{
glyphname = liraTurkish;
layers = (
{
background = {
paths = (
{
closed = 1;
nodes = (
"601 0 LINE SMOOTH",
"865 0 OFFCURVE",
"958 149 OFFCURVE",
"958 412 CURVE SMOOTH",
"958 642 LINE",
"698 642 LINE",
"698 350 LINE SMOOTH",
"698 275 OFFCURVE",
"667 240 OFFCURVE",
"606 240 CURVE SMOOTH",
"438 240 LINE",
"438 1592 LINE",
"182 1592 LINE",
"182 0 LINE"
);
},
{
closed = 1;
nodes = (
"769 805 LINE",
"769 995 LINE",
"82 765 LINE",
"82 575 LINE"
);
},
{
closed = 1;
nodes = (
"769 1125 LINE",
"769 1315 LINE",
"82 1085 LINE",
"82 895 LINE"
);
}
);
};
layerId = "6CD1E358-6E98-409F-9A1F-EA9DE4C1A8AA";
paths = (
{
closed = 1;
nodes = (
"601 0 LINE SMOOTH",
"865 0 OFFCURVE",
"958 149 OFFCURVE",
"958 412 CURVE SMOOTH",
"958 642 LINE",
"698 642 LINE",
"698 350 LINE SMOOTH",
"698 275 OFFCURVE",
"667 240 OFFCURVE",
"606 240 CURVE SMOOTH",
"438 240 LINE",
"438 1592 LINE",
"182 1592 LINE",
"182 0 LINE"
);
},
{
closed = 1;
nodes = (
"769 805 LINE",
"769 995 LINE",
"82 765 LINE",
"82 575 LINE"
);
},
{
closed = 1;
nodes = (
"769 1125 LINE",
"769 1315 LINE",
"82 1085 LINE",
"82 895 LINE"
);
}
);
width = 1039;
}
);
unicode = 20BA;
},
{
glyphname = manat;
layers = (
{
background = {
paths = (
{
closed = 1;
nodes = (
"293 0 LINE SMOOTH",
"293 822 LINE SMOOTH",
"293 947 OFFCURVE",
"341 1037 OFFCURVE",
"520 1037 CURVE SMOOTH",
"716 1037 OFFCURVE",
"749 953 OFFCURVE",
"749 822 CURVE SMOOTH",
"749 0 LINE",
"1005 0 LINE SMOOTH",
"1005 816 LINE SMOOTH",
"1005 1169 OFFCURVE",
"836 1277 OFFCURVE",
"520 1277 CURVE SMOOTH",
"207 1277 OFFCURVE",
"37 1169 OFFCURVE",
"37 816 CURVE SMOOTH",
"37 0 LINE"
);
},
{
closed = 1;
nodes = (
"655 0 LINE SMOOTH",
"655 1593 LINE",
"399 1593 LINE SMOOTH",
"399 0 LINE"
);
}
);
};
layerId = "6CD1E358-6E98-409F-9A1F-EA9DE4C1A8AA";
paths = (
{
closed = 1;
nodes = (
"293 0 LINE SMOOTH",
"293 822 LINE SMOOTH",
"293 947 OFFCURVE",
"341 1037 OFFCURVE",
"520 1037 CURVE SMOOTH",
"716 1037 OFFCURVE",
"749 953 OFFCURVE",
"749 822 CURVE SMOOTH",
"749 0 LINE",
"1005 0 LINE SMOOTH",
"1005 816 LINE SMOOTH",
"1005 1169 OFFCURVE",
"836 1277 OFFCURVE",
"520 1277 CURVE SMOOTH",
"207 1277 OFFCURVE",
"37 1169 OFFCURVE",
"37 816 CURVE SMOOTH",
"37 0 LINE"
);
},
{
closed = 1;
nodes = (
"655 0 LINE SMOOTH",
"655 1593 LINE",
"399 1593 LINE SMOOTH",
"399 0 LINE"
);
}
);
width = 1042;
}
);
unicode = 20BC;
},
